/* XPM */
static char *a[] = {
/* columns rows colors chars-per-pixel */
"64 64 256 2 ",
"   c black",
".  c #0000A8",
"X  c #00A800",
"o  c #00A8A8",
"O  c #A80000",
"+  c #A800A8",
"@  c #A85400",
"#  c #4C4436",
"$  c gray33",
"%  c #5454FC",
"&  c #524A42",
"*  c #5E5246",
"=  c #736352",
"-  c #685D4C",
";  c #FCFC54",
":  c gray99",
">  c #ECECEC",
",  c gainsboro",
"<  c #D0D0D0",
"1  c #C0C0C0",
"2  c #B4B4B4",
"3  c gray66",
"4  c #989898",
"5  c gray55",
"6  c #7C7C7C",
"7  c gray44",
"8  c #646464",
"9  c gray33",
"0  c #484848",
"q  c gray22",
"w  c #2C2C2C",
"e  c #202020",
"r  c #FC0000",
"t  c #EC0000",
"y  c #E00000",
"u  c #D40000",
"i  c #C80000",
"p  c #BC0000",
"a  c #B00000",
"s  c #A40000",
"d  c #980000",
"f  c #880000",
"g  c #7C0000",
"h  c #700000",
"j  c #640000",
"k  c #580000",
"l  c #4C0000",
"z  c #400000",
"x  c #FCD8D8",
"c  c #FCB8B8",
"v  c #FC9C9C",
"b  c #FC7C7C",
"n  c #FC5C5C",
"m  c #FC4040",
"M  c #FC2020",
"N  c #FC0000",
"B  c #FCA85C",
"V  c #FC9840",
"C  c #FC8820",
"Z  c #FC7800",
"A  c #E46C00",
"S  c #CC6000",
"D  c #B45400",
"F  c #9C4C00",
"G  c #FCFCD8",
"H  c #FCFCB8",
"J  c #FCFC9C",
"K  c #FCFC7C",
"L  c #FCF85C",
"P  c #FCF440",
"I  c #FCF420",
"U  c #FCF400",
"Y  c #E4D800",
"T  c #CCC400",
"R  c #B4AC00",
"E  c #9C9C00",
"W  c #848400",
"Q  c #706C00",
"!  c #585400",
"~  c #404000",
"^  c #849C7B",
"/  c #738C6B",
"(  c #6B7B63",
")  c #637352",
"_  c #5A6B52",
"`  c #525A4A",
"'  c #4A5242",
"]  c #425239",
"[  c #394A39",
"{  c #313931",
"}  c #313929",
"|  c #293129",
" . c #293121",
".. c #212921",
"X. c #182118",
"o. c #181818",
"O. c #00FC00",
"+. c #00EC00",
"@. c #00E000",
"#. c #00D400",
"$. c #04C800",
"%. c #04BC00",
"&. c #04B000",
"*. c #04A400",
"=. c #049800",
"-. c #048800",
";. c #047C00",
":. c #047000",
">. c #046400",
",. c #045800",
"<. c #044C00",
"1. c #044000",
"2. c #C8BFB2",
"3. c #A89A85",
"4. c #9A8C77",
"5. c #7CFCF8",
"6. c #5CFCFC",
"7. c #40FCFC",
"8. c #20FCFC",
"9. c #00FCFC",
"0. c #00E4E4",
"q. c #00CCCC",
"w. c #00B4B4",
"e. c #009C9C",
"r. c #008484",
"t. c #007070",
"y. c #005858",
"u. c #004040",
"i. c #94846B",
"p. c #8C7B67",
"a. c #847B63",
"s. c #81735D",
"d. c #7B6B5A",
"f. c #007CCC",
"g. c #006CB4",
"h. c #005C9C",
"j. c #736B5A",
"k. c #736B52",
"l. c #9C9CFC",
"z. c #7C80FC",
"x. c #5C60FC",
"c. c #4040FC",
"v. c #2024FC",
"b. c #0004FC",
"n. c #0000FC",
"m. c #0000EC",
"M. c #0000E0",
"N. c #0000D4",
"B. c #0000C8",
"V. c #0000BC",
"C. c #0000B0",
"Z. c #0000A4",
"A. c #000098",
"S. c #000088",
"D. c #00007C",
"F. c #000070",
"G. c #000064",
"H. c #000058",
"J. c #00004C",
"K. c #000040",
"L. c #282828",
"P. c #FCE034",
"I. c #FCD424",
"U. c #FCCC18",
"Y. c #FCC008",
"T. c #FCB400",
"R. c #B420FC",
"E. c #A800FC",
"W. c #9800E4",
"Q. c #8000CC",
"!. c #7400B4",
"~. c #60009C",
"^. c #500084",
"/. c #440070",
"(. c #340058",
"). c #280040",
"_. c #FCD8FC",
"`. c #FCB8FC",
"'. c #FC9CFC",
"]. c #FC7CFC",
"[. c #FC5CFC",
"{. c #FC40FC",
"}. c #FC20FC",
"|. c #FC00FC",
" X c #E000E4",
".X c #C800CC",
"XX c #B400B4",
"oX c #9C009C",
"OX c #840084",
"+X c #6C0070",
"@X c #580058",
"#X c #400040",
"$X c #FCE8DC",
"%X c #FCE0D0",
"&X c #FCD8C4",
"*X c #FCD4BC",
"=X c #FCCCB0",
"-X c #FCC4A4",
";X c #FCBC9C",
":X c #FCB890",
">X c #FCB080",
",X c #FCA470",
"<X c #FC9C60",
"1X c #F0945C",
"2X c #E88C58",
"3X c #DC8854",
"4X c #D08050",
"5X c #C87C4C",
"6X c #BC7848",
"7X c #B47044",
"8X c #A86840",
"9X c #A0643C",
"0X c #9C6038",
"qX c #905C34",
"wX c #885830",
"eX c #80502C",
"rX c #744C28",
"tX c #6C4824",
"yX c #5C4020",
"uX c #543C1C",
"iX c #483818",
"pX c #403018",
"aX c #382C14",
"sX c #28200C",
"dX c #600064",
"fX c #006464",
"gX c #006060",
"hX c #00001C",
"jX c #00002C",
"kX c #302410",
"lX c #480048",
"zX c #500050",
"xX c #000034",
"cX c gray11",
"vX c #4C4C4C",
"bX c gray36",
"nX c gray25",
"mX c gray19",
"MX c #343434",
"NX c #2E2B22",
"BX c #B8E8E8",
"VX c #9CDCDC",
"CX c #74C8C8",
"ZX c #48C0C0",
"AX c #20B4B4",
"SX c #20B0B0",
"DX c #00A4A4",
"FX c #009898",
"GX c #008C8C",
"HX c #008484",
"JX c #007C7C",
"KX c #007878",
"LX c #007474",
"PX c #007070",
"IX c #006C6C",
"UX c #980088",
/* pixels */
"                                                                                                                                ",
"w w w w w w w w w w w w MXw MXw w w w w w w w MXw w w w w w w w w w MXw w w w w w w w w w w w w w MXw MXw w w w w w w w MXw w w ",
"w w w w MXw w w w w w w w MXw MXw w w w w w w w MXw w w w w w w w w w MXw w w w w MXw w w w w w w w MXw MXw w w w w w w w MXw w ",
"w w w MXw MXw MXw w w MXw w MXw w w w w MXw w w w MXw w w w w MXw w w w MXw w w MXw MXw MXw w w MXw w MXw w w w w MXw w w w MXw ",
"w w w w w w MXw MXw MXw w w w w w w w w MXMXw w MXw w w w w w MXMXw w MXw w w w w w w MXw MXw MXw w w w w w w w w MXMXw w MXw w ",
"cXcXcXcXcXcXcXcXcXcXcXcXcXcXcXcXcXcXcXcXcXcXcXcXcXcXcXcXcXcXcXcXcXcXcXcXcXcXcXcXcXcXcXcXcXcXcXcXcXcXcXcXcXcXcXcXcXcXcXcXcXcXcXcX",
"J.J.J.H.H.H.H.J.J.J.J.J.J.J.J.H.H.H.J.H.J.J.H.J.J.J.J.J.J.H.H.H.H.H.H.J.J.J.J.J.J.J.H.H.H.H.H.H.H.H.H.H.H.H.H.H.H.H.H.H.H.H.H.J.",
"D.F.F.F.D.D.S.S.D.D.F.D.D.F.F.F.D.D.D.S.D.F.F.F.F.F.F.F.F.F.F.F.F.F.F.D.S.S.D.D.F.F.F.G.G.F.F.F.F.F.F.F.D.D.D.D.S.S.S.D.D.D.D.D.",
"F.F.F.D.D.D.S.S.D.F.F.F.D.D.F.F.D.D.D.D.D.F.F.F.F.F.F.R E G.F.F.F.F.F.F.D.Y R F.F.F.F.F.F.F.F.F.F.F.F.F.F.D.D.S.S.S.S.D.F.F.D.F.",
"F.F.D.D.D.D.S.S.D.F.F.F.F.D.F.F.F.F.F.D.D.F.F.F.Y Y I.R ! K.G.F.F.F.Y T Y T W sXF.D.F.F.F.F.F.F.F.F.F.F.D.S.S.S.S.S.S.D.F.G.F.F.",
"F.D.D.S.D.D.S.S.D.D.F.F.F.F.F.F.F.F.F.D.D.F.F.Y Y Y Y W ~ hXF.F.F.Y Y Y Y E Q   K.F.F.F.F.F.F.F.F.F.D.D.S.S.S.S.S.D.D.D.F.G.G.F.",
"D.D.D.D.S.S.D.D.D.F.F.F.F.F.F.F.F.F.F.F.F.F.I.Y Y R E ~ ~ jXF.D.T Y T R W E ~   jXF.D.F.F.F.F.D.D.D.D.S.S.S.D.S.S.S.D.D.F.G.G.G.",
"D.F.D.D.S.S.D.D.F.F.F.F.F.F.D.Y D.D.F.F.D.F.Y Y T W W ~ hXK.F.T Q W Q ! Q W ~ sXjXF.D.F.F.F.D.D.S.S.D.D.S.S.S.S.S.S.D.D.D.F.F.F.",
"F.F.F.D.D.D.D.F.F.F.F.F.F.F.F.T R F.F.D.F.F.Y Y W E W Q hXF.~ Q W W E E W Q sX~ hXG.D.D.D.D.D.D.S.S.S.S.S.S.S.S.S.S.D.D.D.D.D.F.",
"F.F.F.D.D.F.F.F.F.F.F.F.F.D.Y Y T R F.F.F.Y Y R W E Q Q ! ~ W E E Q W Q Q ! Q ! ! W F.D.~ D.D.S.S.A.S.S.S.S.S.S.S.S.D.D.D.D.D.F.",
"F.F.F.F.F.F.F.F.F.F.D.D.D.D.T Y Y R R R Y W ~ Q Q ! ! Q Q W Q ~ sX~ ! Q Q Q Q Q Q W Q D.Q ! D.S.S.A.A.S.D.D.S.S.S.S.S.D.D.D.D.F.",
"F.F.F.F.F.D.F.D.D.D.D.D.S.D.Y Y R T Q W R Q kX~ kX~ ~ ~ ! ~ ~ ! ! ~ sX~ ~ ~ ! ~ Q Q Q Q Q ! ~ D.S.S.S.S.D.F.D.S.S.S.S.D.D.F.F.F.",
"D.F.F.F.F.F.F.D.D.S.S.S.S.S.Y Y W E Q ~ ! ! ! ! ! Q Q W W Q ~ ~ ~ ~ ~ ~ sXsX~ ~ ! ! ! ! W E Q ! Q D.D.D.D.D.D.D.S.D.D.F.F.F.F.F.",
"F.F.F.F.F.D.D.D.D.S.S.Y D.D.Y Y E W ! sXsXsXsX~ ! ! ! ~ ! Q ! ! sX~ ~ sXsXsX~ ~ ! ! ! ! W W Q W Q ~ F.F.D.D.F.F.D.D.D.D.F.F.F.D.",
"D.F.F.F.F.D.D.D.S.S.S.T Y D.Y R E Q !     jXK.K.~ ~ ! ! ! ! ! ~ ~ H.jXhXhXhXhXhX! ~ ! ! ! Q ! W W ! sXG.D.F.F.F.F.F.D.D.D.F.F.D.",
"D.D.D.D.S.S.S.S.S.S.A.Y Y Y Y E E W ~   jXK.D.D.D.K.K.K.~ ! ! ! ! K.F.G.G.G.G.G.G.jXhXQ ! Q ! ! Q Q ~ sXG.F.F.G.F.F.D.D.D.D.F.F.",
"D.D.D.S.S.S.S.S.S.S.S.Y I.T E E Q ! ! jXK.D.S.          F.K.                        G.G.Q W W ! Q Q ~ sXK.F.D.F.F.F.F.F.D.D.F.D.",
"S.S.S.S.S.S.S.S.S.S.S.Y R W W Q ! Q ~ ~ sXD.S.  e e o.  K.F.  e e e e w w w w e o.  jXF.F.Q W Q ~ Q ! sXhXF.D.F.F.F.F.F.D.S.D.D.",
"S.S.S.S.S.S.A.A.A.A.A.S.R R W W ~ Q ! ~ sXJ.D.  q mXo.  jXF.  w w e e e e e e cXo.  hXR E W ~ ! ! ! ~ ~ jX~   G.F.F.F.F.D.D.D.S.",
"S.S.S.S.S.A.A.A.A.A.A.S.T R Q W ! ! ! sXsXK.D.  w w o.  jXF.  mXw e o.o.            hXR W E ! ~ ~ ! Q ~ ! sX  jXG.F.F.F.D.D.S.S.",
"S.S.S.S.S.S.A.A.A.A.Y D.D.R E W ~ ! ~     K.D.  mXw o.  jXG.o.mXw o.                hXF.Q W Q ! ~ ! ~ sX~ sX  jXG.D.D.D.D.S.S.S.",
"S.S.S.S.S.S.S.S.A.A.Y T T T W W ! ~ sX  jXK.D.  w w o.  hXG.  mXw o.  hXhXhXhXhXhXhXjXF.W Q Q ! ~ ~ ~ o.sX    jXF.D.D.D.S.S.S.S.",
"S.S.S.S.D.D.D.S.S.Y T Y R W Q ! ~ ~ sX  K.D.S.  q mXcX  hXG.o.mXw o.  hXG.G.G.G.G.G.G.D.F.W W Q ~ sX~ sX      jXD.S.S.S.S.S.S.S.",
"S.S.S.D.D.D.D.S.D.T T T R W ! ~ ~ ! sXhXK.D.D.  q mXe         mXw o.                G.F.D.F.R E Q ~ sX      jXK.D.A.S.S.S.S.S.D.",
"D.D.S.D.D.D.D.F.F.T R T W W ! ~ ! ! NX  F.D.D.  q mXw e w w w mXe e cXcXe w w e o.  jXG.F.Y T W ! Q sX      K.D.A.A.A.S.S.S.S.S.",
"D.D.D.D.D.D.F.F.F.G.T R E Q ! ! ! ~ sX  K.F.D.  w w e e w w w w e e e cXcXcXw e     hXG.F.R W ~ Q Q ! ~     K.S.A.A.A.A.S.S.S.S.",
"D.D.F.F.D.F.F.F.F.F.Y R Q W ! ! ! ~ ~   K.D.S.  cXo.o.o.o.cXe e e o.o.o.o.cXcXcX    jXG.F.R E W ~ ! ! ~   jXJ.S.A.A.S.S.S.S.S.S.",
"D.F.G.G.F.F.F.F.F.D.T R ! ! Q ! sX~ sX  K.D.S.                cXe o.        o.cX    jXF.F.R R W ! ! ! sXsXK.D.A.A.S.S.S.S.S.S.D.",
"D.F.F.G.G.F.F.F.D.D.R T R ! ! Q ~ sXsX  K.D.S.D.K.jXjXjXK.jX  cXcX    hXjX  cXcX    K.F.D.R R W ! ! ~ ~ ~ sX  D.S.S.D.S.D.D.D.F.",
"F.F.F.F.G.F.D.D.D.D.Y R R ! ! ! ~ sXsX  K.D.S.S.F.F.F.F.F.F.  e cX    jXF.  cXe     K.D.S.E E Q ! ~ sXsX~ sX  K.F.D.D.D.D.D.F.F.",
"F.F.F.F.F.F.F.D.D.D.F.E E W ! sXo.sXsXsXK.D.A.                e e     jXD.  w e     K.D.Y R W ! Q ~   sXsXsX  jXG.D.D.F.F.F.F.F.",
"F.F.F.F.F.F.F.F.D.Y Y R Q Q ! ~     sXjXK.D.S.o.w q q mXmXw e e cX    K.D.  e e     K.D.T E W ! ! ~ sX! sX    jXG.F.F.F.F.F.F.F.",
"F.F.D.F.F.F.G.F.F.Y R W Q Q ! ! sXsXjXK.E ! D.  mXmXw w w w e cXo.    K.D.  e cX    K.F.R W W ~ ! ~ ! sX      hXG.F.F.F.G.F.F.F.",
"D.D.F.F.F.F.G.G.F.R E E Q Q ~ Q ~ sXK.D.Q ! K.  e cXo.o.o.o.o.o.      K.D.  o.      K.F.G.E Q ~ ~ ~ sX      hXjXF.F.F.F.F.F.F.F.",
"D.D.F.F.F.F.F.G.G.W Q W ! ! W ~ W ~ Q R W ! hX                        K.S.          K.D.D.E Q sX          jXjXF.D.D.D.D.F.D.F.F.",
"0 0 0 0 0 0 w F.G.E Q ! Q Q ! Q Q ~ ! W Q Q ! H.jXhXhXhXjXjXjXjXjXjXK.K.S.D.K.K.K.K.K.S.R ~ ! sX        jXK.F.D.D.0 0 0 0 0 0 0 ",
"w w MXw w MXcXF.G.H.sX! ! Q Q ! sX~ ! sXQ W Q hXE Q ~ W F.F.E W W W F.R E ! ~ D.D.D.T E Q W ~ sX      jXK.D.S.S.D.0 w w w w w w ",
"w MXw w w w cXF.F.G.G.K.Q ~ ~ sX  sX~ ! sX! Q W W Q ! jXJ.E E R W W R W E Q ~ J.D.S.R R ! Q ~ sX  jXK.J.D.S.S.S.S.0 MXw MXw w w ",
"w w MXw w w cXF.F.F.D.G.F.E ! sX  jXjXQ ! Q ~ ~ Q Q ! hXR E E E W W W W Q ! ~ K.D.E Q E ~ sX~ ~ jXJ.D.S.A.A.S.S.A.0 w MXw w w w ",
"w w w MXw w cXD.F.F.F.D.D.R sX    K.F.F.Q W W Q ! ~ hXjXE E Q Q Q Q Q ! W ! ! K.D.~ W W sX~ sXsX    S.S.A.A.D.S.A.0 w w w w w w ",
"w w w MXw MXcXD.D.D.F.D.E ~     jXK.F.R E W ~ Q ! Q Q H.E W W Q W Q Q ! Q ! ~ R ~ ! W Q ! ! ~       K.D.A.A.D.D.S.0 w w w w MXw ",
"  o.w w MXw cXD.D.D.F.F.!     jXK.D.T W R W sX~ sXQ Q Q R ~ ! Q Q ! sX~ ~ ~ ! ! ! Q ! ! sXsX      jXK.D.A.A.F.F.D.0 w MXw MX    ",
"  0 w MXw MXcXD.D.D.D.D.G.K.jXK.D.S.T W R ! ! Q ~ ! Q Q W ~ ! Q ! ~ sX~ ! ! Q ! o.sX~ ~ sX      hXK.F.S.S.S.F.F.F.0 MXw w w     ",
"o.0 w w MXw cXS.S.D.D.D.D.F.F.F.D.D.R T E sX~ Q ! ! sX! Q ~ sX! ! ! sX~ ~ ~ ! ~ sXsX~ sX      hXjXF.D.S.S.S.F.G.F.0 w w w w   o.",
"o.0 w w w w cXS.S.S.S.S.S.S.S.D.D.F.Q E ! sXsX! ~ sXsX~ Q ! ~ sXsX! ! ~ ! ~ ! ! sX~ ~ sX  jXjXK.G.D.D.D.D.D.D.F.F.0 w w w MX  o.",
"o.0 w w w w cXS.S.S.S.S.S.S.D.D.D.F.~ W ! ~ ! ! Q Q ~ sX~ ~ ~ sXsXsXsX~ ~ ! ~ ~ sX~ sX    K.F.F.D.D.D.F.F.F.D.F.F.0 w w MXMX  o.",
"o.0 w w w w cXA.S.S.A.S.S.S.D.D.D.F.! ~ sXsX! ! Q ! sXsX~ sXsXsX      sX~ ~ sXsXsXsXsX    jXF.D.S.D.D.F.F.F.D.F.F.0 w w w w   o.",
"o.0 w w w w cXA.A.A.A.A.A.S.S.D.D.F.G.sX~ ~ ~ ! Q ~ sXsXsXhX        hX    sX    jX        K.D.S.S.S.D.F.F.D.D.F.F.0 w w w w   o.",
"o.0 MXMXw w cXA.A.A.A.A.A.A.S.D.D.D.D.F.K.K.sX~ ~ sXsXsX  jXH.jXhXjXK.G.        K.F.      K.D.S.S.D.D.F.D.D.F.D.F.0 w w w w   o.",
"o.0 MXw w w cXS.A.A.S.A.S.S.S.D.D.S.S.S.D.D.~ sX            G.G.F.F.F.D.F.K.jXK.K.D.D.K.K.K.D.D.D.D.D.D.D.D.D.D.D.0 w w w w   o.",
"o.0 w w w w cXS.S.S.S.S.S.S.D.D.D.D.S.S.S.A.D.    jXK.jX  K.F.G.F.D.D.F.D.D.D.D.S.S.S.D.D.D.S.D.F.F.F.D.D.D.D.D.S.0 w w w w   o.",
"o.0 w w w MXcXS.D.S.S.S.D.D.F.D.D.D.D.D.D.S.D.F.F.F.G.G.H.F.F.G.F.F.F.F.F.D.D.F.F.F.F.F.D.D.D.D.D.D.D.D.D.S.S.S.S.0 w w MXw   o.",
"o.0 MXw MXw cXnX0 0 0 0 0 0 0 0 0 0 0 0 0 0 0 0 0 0 0 0 0 0 0 0 0 0 0 0 0 0 0 0 0 0 0 0 0 0 0 0 0 0 0 0 0 0 0 0 0 0 w MXw MX  o.",
"o.0 w MXw w w w w MXw MXw MXw w w w w w w w w MXMXw w MXw w w w w w MXMXw w MXw w w w w w w MXw MXw MXw w w w w w w MXw w w   o.",
"o.0 w w w w MXw MXw MXw w w MXw w MXw w w w w MXw w w w MXw w w w w MXw w w w MXw w w MXw MXw MXw w w MXw w MXw w w w w w w   o.",
"o.0 w w w w w MXw w w w w w w w MXw MXw w w w w w w w MXw w w w w w w w w w MXw w w w w MXw w w w w w w w MXw MXw w w w w MX  o.",
"o.0 w w w w w w w MXw w w w w MXw w MXw w w MXw MXw MXw w w MXw w w w MXw w w w w MXw w w w MXw w w w w MXw w MXw w w w w w   o.",
"o.cX                                                                                                                          o.",
"o.                                                                                                                              "
};
