/* XPM */
static char * 1_xpm[] = {
"64 64 219 2",
"  	c None",
". 	c #2C2C2C",
"+ 	c #2D2D2D",
"@ 	c #242424",
"# 	c #2F2F2F",
"$ 	c #2E2E2E",
"% 	c #262626",
"& 	c #252525",
"* 	c #282828",
"= 	c #595959",
"- 	c #5A5A5A",
"; 	c #4B4B4B",
"> 	c #868686",
", 	c #E5E5E5",
"' 	c #DCDCDC",
") 	c #D6D6D6",
"! 	c #D7D7D7",
"~ 	c #DFDFDF",
"{ 	c #D2D2D2",
"] 	c #D3D3D3",
"^ 	c #DBDBDB",
"/ 	c #DDDDDD",
"( 	c #CCCCCC",
"_ 	c #BBBBBB",
": 	c #8D8D8D",
"< 	c #1C1C1C",
"[ 	c #3D3D3D",
"} 	c #3B3B3B",
"| 	c #818181",
"1 	c #B9B9B9",
"2 	c #C1C1C1",
"3 	c #C2C2C2",
"4 	c #C7C7C7",
"5 	c #B8B8B8",
"6 	c #989898",
"7 	c #555555",
"8 	c #1F1F1F",
"9 	c #434343",
"0 	c #494949",
"a 	c #4A4A4A",
"b 	c #4D4D4D",
"c 	c #545454",
"d 	c #575757",
"e 	c #424242",
"f 	c #C6C6C6",
"g 	c #AAAAAA",
"h 	c #B6B6B6",
"i 	c #A7A7A7",
"j 	c #A8A8A8",
"k 	c #A4A4A4",
"l 	c #9F9F9F",
"m 	c #A2A2A2",
"n 	c #9A9A9A",
"o 	c #9D9D9D",
"p 	c #919191",
"q 	c #9C9C9C",
"r 	c #8A8A8A",
"s 	c #939393",
"t 	c #1A1A1A",
"u 	c #808080",
"v 	c #CACACA",
"w 	c #949494",
"x 	c #8B8B8B",
"y 	c #959595",
"z 	c #909090",
"A 	c #848484",
"B 	c #5F5F5F",
"C 	c #343434",
"D 	c #202020",
"E 	c #3E3E3E",
"F 	c #6F6F6F",
"G 	c #858585",
"H 	c #878787",
"I 	c #777777",
"J 	c #6A6A6A",
"K 	c #565656",
"L 	c #474747",
"M 	c #444444",
"N 	c #454545",
"O 	c #585858",
"P 	c #D9D9D9",
"Q 	c #C5C5C5",
"R 	c #B1B1B1",
"S 	c #A1A1A1",
"T 	c #8E8E8E",
"U 	c #A0A0A0",
"V 	c #7F7F7F",
"W 	c #7C7C7C",
"X 	c #1B1B1B",
"Y 	c #373737",
"Z 	c #AFAFAF",
"` 	c #BFBFBF",
" .	c #787878",
"..	c #606060",
"+.	c #828282",
"@.	c #E8E8E8",
"#.	c #E3E3E3",
"$.	c #E4E4E4",
"%.	c #C4C4C4",
"&.	c #A9A9A9",
"*.	c #ACACAC",
"=.	c #9B9B9B",
"-.	c #C0C0C0",
";.	c #A6A6A6",
">.	c #969696",
",.	c #727272",
"'.	c #BDBDBD",
").	c #A5A5A5",
"!.	c #9E9E9E",
"~.	c #888888",
"{.	c #929292",
"].	c #999999",
"^.	c #5C5C5C",
"/.	c #1E1E1E",
"(.	c #BCBCBC",
"_.	c #8F8F8F",
":.	c #CBCBCB",
"<.	c #D4D4D4",
"[.	c #D5D5D5",
"}.	c #D0D0D0",
"|.	c #CFCFCF",
"1.	c #CECECE",
"2.	c #AEAEAE",
"3.	c #656565",
"4.	c #383838",
"5.	c #505050",
"6.	c #DADADA",
"7.	c #7E7E7E",
"8.	c #A3A3A3",
"9.	c #8C8C8C",
"0.	c #333333",
"a.	c #ADADAD",
"b.	c #646464",
"c.	c #323232",
"d.	c #363636",
"e.	c #6D6D6D",
"f.	c #464646",
"g.	c #353535",
"h.	c #979797",
"i.	c #6C6C6C",
"j.	c #4F4F4F",
"k.	c #BABABA",
"l.	c #B0B0B0",
"m.	c #4E4E4E",
"n.	c #7A7A7A",
"o.	c #3A3A3A",
"p.	c #414141",
"q.	c #5D5D5D",
"r.	c #484848",
"s.	c #292929",
"t.	c #404040",
"u.	c #898989",
"v.	c #272727",
"w.	c #3F3F3F",
"x.	c #212121",
"y.	c #5B5B5B",
"z.	c #C8C8C8",
"A.	c #797979",
"B.	c #6E6E6E",
"C.	c #6B6B6B",
"D.	c #515151",
"E.	c #222222",
"F.	c #535353",
"G.	c #838383",
"H.	c #737373",
"I.	c #757575",
"J.	c #393939",
"K.	c #616161",
"L.	c #7D7D7D",
"M.	c #525252",
"N.	c #626262",
"O.	c #303030",
"P.	c #636363",
"Q.	c #D1D1D1",
"R.	c #F5F5F5",
"S.	c #EBEBEB",
"T.	c #E1E1E1",
"U.	c #BEBEBE",
"V.	c #666666",
"W.	c #C9C9C9",
"X.	c #ABABAB",
"Y.	c #F4F4F4",
"Z.	c #B3B3B3",
"`.	c #B2B2B2",
" +	c #313131",
".+	c #E2E2E2",
"++	c #3C3C3C",
"@+	c #DEDEDE",
"#+	c #747474",
"$+	c #4C4C4C",
"%+	c #B4B4B4",
"&+	c #717171",
"*+	c #D8D8D8",
"=+	c #767676",
"-+	c #B5B5B5",
";+	c #676767",
">+	c #686868",
",+	c #2A2A2A",
"'+	c #232323",
")+	c #696969",
"!+	c #141414",
"~+	c #171717",
"{+	c #191919",
"]+	c #ECECEC",
"^+	c #EEEEEE",
"/+	c #E0E0E0",
"(+	c #B7B7B7",
"_+	c #E7E7E7",
":+	c #7B7B7B",
"<+	c #CDCDCD",
"[+	c #2B2B2B",
"}+	c #121212",
"|+	c #151515",
"1+	c #707070",
"2+	c #C3C3C3",
"3+	c #181818",
"4+	c #5E5E5E",
"5+	c #EFEFEF",
"6+	c #E6E6E6",
". . . . . . . . . . + . @ @ @ @ @ @ @ @ @ @ @ @ @ @ . # $ $ + % @ @ @ @ @ @ & & * + $ # + + + + + + + + + + . . . . . . . . . . ",
"= = = = = = = = = - ; > , , ' ) ! ~ { { ] ^ / ( _ ' : < [ } | 1 ( 2 3 3 2 4 5 1 6 7 $ 8 9 ; 0 0 0 0 0 0 a a - - - - - - - - - - ",
"b b b b b c c d d d e ^ f g h i j k l l m n o p q r s t } u v w x 6 : p y w w z A B C D E F G G G G G H I J K L M M N N L L L L ",
"o o o o n s : B M O e P Q R S k _ T p r p x U o U V W X Y Z ` l n y z w y y y 6  ...C D e +.@.#.$.$.$.' { %.1 _ Z &.*.&.=.q q q ",
"4 f f f -.;.>.,.} 7 e P '.;.).*.6 o !.~.q x {.s ].u ^./.C S (.x z w ].6 y : : _.,.d C D e G $.^ :.( :.( ] <.<.[.) }.|.1.|.|.|.|.",
"> s T >.w 2.G 3.4.5.e 6._ g ).].;.{.z w H U w n T 7.O /.C I 8.9.o =.y w w 6 !.>.,.O 0.D e G [.a.S =.!.w 8.!.m w q p _.=.z n 6 >.",
": U H {.: S V b.c.N 9 P 1 &.n =.8._.6 r {.y {.x >.W O /.d.- u _.9.q s 6 y p 6 s e.f.g.8 e G ) i l q q h.s h.h.o >.6 S >.m T ).a.",
"p : _.T s y i.j.% d.M P k.w l.8.).9.A ~.p !.>.y > _.O /.Y m.- V y >.=.h.z z 6 n.L o.$ # p.G [.1 6 n w s S o q h.8.w ].h.y n _.h.",
"p x {.{.H p q.r.% . N { -.n 6 U =.y h.n z >.6 8.z G O 8 s.f.t.r.0 b b b b m.; Y } d.@ c.9 W ! ;.).6 S q o U w 6 ].z z h.A {.s u.",
"~.s q =.9. .5.[ v.+ f.Q k.=.=.y q n ].9.{.m >.6 >.u d % % g.0 c.w.E E E E o.g.c.* x.x.C 0 y.z.j w _.q q o S w T p {.~.{.G 9.r x ",
"A.B.C.e.D.N o.@ s.+ r.*.v 8.h.o 6 w s w n r _.6 U {.d % E.Y 9 C % s.x.E.E.E.x.s.s.s.. } F.- (.;.y U p y h.x G | | n.G.n.V  .H.I.",
"j.b N e t.. D x.. . M : ] *.n h.y o ).=.].k n m m G K + E.4.} J.f.o.9 a K K.C.G.L.q.0.C M.M.n T I  .n.,.C.N.M.j.F.c F.O 7 m.0 m.",
"% v.D D @ * O.O.c.} F.P.:.U >.h.].h.=.k ].l ;.q =.u d + x.C 0.- Q.R.S.T.f U.-.g : I.0 & m.a K V.....M.D.M e J.Y C C C + $ $ $ $ ",
"# # # # $ $ $ + c.o.M.a W.2.T 2.T !.s S s q p ].S A d + E.# + X.Y.! ( 5 Z.`.>.q z i.e % o.o.w.E E E } 4.J.c.0.+ v.D D D D D D D ",
"o.} } } } } } } } J.M.N l.U.&.p n =.o S w n !.].n u K  +E.O.. (..+%.Z `.!.m ).o u  .} v.++ +0.0.0.0.0.C 0.C C } o.} } } } } } } ",
"D.0 M N e t.p.Y 4.o.m.r.z -.p l h.;.w : A T p h.9.> K g.E.c.. Z @+8.o S *.;.6 w > #+} v.o.; $+b D.m.L f.N e e e L L L L L L L L ",
"g g i k S : u | e.#  +c b.-.h.).>.s s > H u.~.{.A H K [ E.s.+ ].@+2.>.h.U {.q >.W A.} v.4.A z.%+3.= 0 M.A.a.X.X.X.X.X.X.X.X.X.X.",
"<.<.<.[.}.{ %+T &+g.O.0 5.Z y w Z G H +.~.H ~.u | +.j.[ E.* $ p 1 ;.!.6 p : T H I  .} v.0 f Z 1 7.0 ; ..6.*+<.[.[.<.<.<.<.<.<.<.",
"R R 2.g U l s =+F g.s.0 m.s T 6 z n.W u u A.H.#+&+D.7 [ E.* 0.[ ; _.]._. .A.| A.7.C.t.v.m.P X.a.&+N ; F ~ -+R &.a.R *.a.l.R R R ",
"h.n o =.=.U o I ;+g.* e = y.u.>+K.y.O y.O m.j.5.5.K ; c.E.* 0.* @ j.j.F.d K.K O D.e 4.,+^.@.i {.#+[ ; B.) j m o j ].).l 6 h.=.].",
"h.S l y ).k 6  ...d.v.9 O N Y J.o.o.o.N M M M [  ++ v.x.'+*  +,+O.% & & & @ & & % v.v. +B T.=.).H. +$+F W.i 8.l y h.o =.m >.q S ",
"U U ].U l 9.*.#+..d.v.9 O ; ,++ # # D x.x.x.x.x.x.x.x.x.* . + $ + + $ $ + . . . $ #  +p.H.] h.).#+ +$+)+k.p m ].6 m z n p m ).w ",
"h.8.S ].j S U ,.F.d.v.C K F.N c.!+~+{+< 8 x.x.* t.e w.w.[ [ p.t.e L.].: +.| G.B.b # } L 8.3 n 6 C. +$+J (.l {.!.].s z w X.>.l k ",
"k l n g {.h.o ,.m.Y v.o.y.z.~ ]+^+/+W.8.H.N } N F l '.( ! 1.1.*+/+! Z.a.%+(+(+6 = E.} K *+Z 6 8.b.c.; N.g U q s >.].o {.U k n o ",
"p 8.w =.m w s C.a Y v.c.P 2 Z.&.S o *.6 9.5.M 0 a._+<.5 U X.!.g h.o ).l i k i B.b 8 o.I ! q !.].V.'+$+d G ].X.i : !.z l h.p i 9.",
",.W :+n.r H W O [ 4.v. +<+` k.Z.8.&.w ).y N b L `.Q 1 !.l ;.q k !.].8.n m S n i.e D J.:+1.l !.*.b.@ ; L - e.,.,.H.,.H.,.H.,.:+I ",
"$+j.c q...^.r.} J.g.%  +1.*.Z !.o s =.2.z g.0 L %+_ ;.o w 6 y s h.n r z T U k P.M D J.I :.n !.S 3.'+- a  +c.p.e e e e e f.m.5.$+",
"0 f.M g.d.Y # + v.% 0.# |.;.m s ].z U g S 0.r.L %+(.p {.w 8.6 ].x {.m >.).y T 3.o.D J.I :.6 !.6 3.'+= d ; + D D D D D @ v.$ ++M ",
"/./.8 /./.< [+0.g.r.0 N |.n =.].{.w n k x g.++f.X.4 ].z n s >.: q x ].6 8.z h.3.} D J.I |.n s 8.3.'+= d d m.Y C C g.$ [+* D D D ",
"r.- 7 K.=+| A.A.A.L.$+}+] r 8.T S S 8.&.H ++ +M &.f j ].6 y T z ~.{.!.>.y G Z.P.0.8 J.I f o q ;.3.'+= c b ; F.K c D.j.L w.} } o.",
")+_.(.<+:.v 3 3 f *.M |+{ 9.w y o {.h.-+u E . N u.<+w {.].!.9.s ~.!.>.{.x h.{.b.# D J. .3 {.=.8.3.'+K ..Z.3 a.s ,.K.5.r.f.a ; = ",
"1+;.r _.w T i g o !.f.!+' y S y =.>.k `.H $+c.M +.4 S s p n w z ].r l w n T 9.3.# v.4. .4 q n {.V.'+a v ] U.'.` |.{ ! ! Z ;+N D.",
"F U.s 6 =.: 6 n =.q L !+' A U H !.q n X.H j.0.d.- z.m ).!.H =.y ~.q x {.s ].u.V.# v.g.A.4 w ;.z V.@ 9 $.k.1 (+k ;.q U _.r i.p.M.",
"B.(.w h.].H l q T ).f.!+^ p z 6 =.U j S | F.0.v.K (+(+!.l w {.u.r p x U o U r B $ % } n.(+g n > 3.v.9 6.h 5 g 8.m S >.W &+N.p.L ",
"B.Q =.].p s _.S 6 q f.|+{ T =.=.=.n 2.i A.F.c.. = 6 2 U >.6 g x n h.=.r G j T y.v.% } :+i y _.W E [+M 2+j g 8.l =.: | W H.N.e 9 ",
"B.U.o ~.~.x z n : : f.|+] : ;.o l q =.S :+D.c.* r.H.4 g ).: :+m {._.y l n h.u ++s.% } I.&.H =+D.@ N f.S k 8.m =.p | A  .C.N.e 9 ",
"B.Q o =.s z n A z L.r.~+-.h.{.w q q h.o L.D.c.s.N y.l.l.o ~.S > a.n >.1+..M t.C & $ ++0 V.- e v.++$+a 3.> >.!.: H >  .I B.- e o.",
"B.U.;.T s p _.u.{. .r.3+U.X.i !.).n o h.~.F.c.s.E F.{.(+k w T 3.5.f.w.++w.r.M  +E.+ r.g.$ [+0.e ; a ; 4.K y.i.)+J N.B K.^.; c.} ",
"B.2+m ].y y _.j ~.r L t R j 8.j ;.q s n T d  +v.} r. +i.H.- a e ++* s.% E.E.E.E.E.d.; F.a ; = O O O K 9 ,+@ . [+[+[+[+[+. @ J.o.",
"B.` k T 8.].o q h.=+r.X y a.l o h.S S k G.O  +*  +0 0.'+x.+ [+8 D s.,+,+,+,+,+s.* o.r.5.= 0 0 0 0 0 0 a ; r.J.o.o.o.o.o.o.o.} E ",
"B.2 y X.>.&.].x >.> r.v.I f U *.q {.s 6 > O  +* g.N 0 f.C C C C d.r.L L L L L 0 j.D.5.K M.5.)+V.V.V.V.V.V.V.;+;+;+;+>+>+J 5.J.M.",
"B.(.>.>.!.=.y 8.T =+0 v.B ^ S j U 6 q l T K C @ # 4.a 4+3.V.V.V.V.3.3.3.3.3.3.3.3.3.;+=.3 Q.<+6.@+@+@+@+@+@+@+@+@+@+! 2 *.1+4.M.",
"F U.h.U h.S h.y r V.} # t.~ o y p !.p ).+.d C x.. Y M -.5+, , , 6+@+~ ~ ~ ~ ~ ~ ~ ~ ~ @+~ Q.{ Q.Q.Q.Q.Q.Q.{ }.Q.{ :.( 5 : >+* $+",
"B.U.k q ].n z | T 7  +c.p.~ 6 6 ].].].o W d C E.x.g.e *+/ v :.:.:.:.:.:.:.:.( :.( Q (.1 R Z.l.X.%+(+` Z.h i %+l.%+l.R =.V 4+0.9 ",
"B.2.z m y A z H W D./.} e [.=.].o 6 S =.z d C E.E.g.e 1.|.*.Z.%+Z (+k.2.(+h l.-+j *.).j -+*.m =.o i U &.z S n 8.l X.].{. ...c.Y ",
"c o =.: x ~.| V I.9 '+w.e }.h.y r w 6 z | K C E.E.0.9 U.( X.i l ).Z.5 2.2.`.m q R 3 U g U a.p q 8.!.=.=.U U >.h.T ).n z  .B Y g.",
"b S h.V A V V )+j.&  +E M -.l 9.l 6 h.8.+.K C E.E.O.N (+%.-.].&.(+6 k y p g =.l =.].U &.i !.].>.q T i p m ].s n q y G 9.A.B ++C ",
"0 e.=+B O c $+w.s.# O.E L h.S i p w y r i.O 0.E.E.. 0.U ` -+X.l l q X.*.].x w T i h.h.n U =.6 =.U !.o l w h.].y >.p > > A.B g.g.",
"a [ c. +# # O.O.$ O.Y 9 $+4+^.^.4+4+4+B F.a g.E.'+s.+ K.q i 8.S U 6 h._.>.i s !.o o w w h.m s ).6 z T n.].z p 6 T s G 9. .B g.g.",
"O F.b f.} # $ O.$ $ J.M o.0.C C C C C C C g.0.E.'+s.$ o.b.9.m n n n 6 j : : y _.: _.y o !.].x o y x G | T {.~._.G H r u A.B  +g.",
"; ++++a = O b ++g.C } w.C . x.x.x.x.x.x.x.x.x.E.E.x.. c 0 F.3.b.b.b.b.N.,.9.6 q {.n A _.=.9._.x > +.~.~.> +.~.G x | H u.I ^.* J.",
"p.P.h v { z.i +.3.r.r.[ C $ # # # # # # # # # # # $ J.= a [ c.c.0.0.c.E O 3.,.7.: n.:+:+n.:+:+:+u :+V :+ . .V V V A G ,.;+M.x.++",
"g.g { (+2.X.3 ( { 2.+.K.f.E [+. # o.o.o.o.o.o.o.o.4.a O 0 ; 9 d.0.g.g.O.} m.7 4+b.3.3.b.3.3.3.b.b.3.3.3.3.3.b.3.3.3.4+..7 E + } ",
"[ ` -+m i m m S Z v 1.<+U 7.A.A.A. . . . . . .e.)+J i.;+^.O N r.$+e E } O.# ++++++} 9 9 9 9 e e 9 9 9 9 9 9 9 9 9 w.Y 0.C . } r.",
"[ ` *._.w S !.].=.o i v Q.:.4 z.f f f 4 4 4 Q 3 ` 2.a.X.*.*.a.=...d.b p.J.4.g.g.g.+ + + + + $ $ + + + + + + + + + + $ + g.o.r.a ",
"[ R ).o q U ]._.w S T !.R 2.S s i &.&.k w i o U j j (.<.Q.{ :._ o C c.- ; E o.O.0.d.J.} } o.o.o.} } o.o.o.o.o.o.o.o.o.o.e ; 0 c ",
"++`.g U {.6 y o S S s 6 n !.n k 6 ).n l.a.=.>.s y 6 {.n z >.S I.>.c.. - r.m *+P [.j H.p.M M.D.F.L e e e e e e e e e e M m.O O K ",
"f.&.j l ].X.>.S h.S !.T U l &.X.U 6 `.q m {.).U {.*.p S ).q w u.#+C % $+L 8.j *.` <+/+Q.x = O f.L.{ , ^ 6.6.^ ' ' ' [.3 j.a 0 d ",
"r.#+T l ;.k X.!.=.*.m >.n h.h.`.h m l X.U >.].6 o s S l q s o | F 0.D M f.U h l.-+l.X.X.g C.M.V ! l.X.g *.X.&.).l ).;.;.m y.a d ",
"j.[ = M.= O 7 - = O K F.- F.F.= M.F.b O K.K N.b [ ; a 5.N $+f.L p.# x.[ f.q 8.i i i j U {.I.9 Z Z 8.).m i &.&.m m i m q >.i.4.O ",
"a }  ++ + + + + + + + + + + + + + + ,+v.8 D D D D D D D D D D D D x.x.[ $+O B.,.,.I. .I.I.d f.k n {.{.p >.p p {.{.{.>.s z )+O.O ",
"O ; 4.o.J.# O.# C d.d.d.c.O.O.O.$ $ $ # # # # # # # # # # # # # # # # E 4.o.[ p.p.N 0 N g.$ Y i.C.i.i.i.i.i.i.i.i.i.i.i.)+K g.O ",
"O = - d a 0 0 r.b b b m.o.} } } } } } } } } } } } } } } } } } } } } } o.} } } } } } } } } } J.d 0  +c.c.c.c.c.c.c.c.c.c.c.Y r.= ",
"J.J.J.J.o.o.o.o.o.o.o.J.} } } } } } } } } } } } } } } } } } } } } } } } } } } } } } } } } } } J.J.} } } } } } } } } } } } o.o.J."};
