/* XPM */
static char *noname[] = {
/* width height ncolors chars_per_pixel */
"128 128 35 1",
/* colors */
"  c #878700",
". c gray67",
"X c #9B9B9B",
"o c #5F5F00",
"O c gray56",
"+ c gray50",
"@ c #373700",
"# c gray45",
"$ c #676767",
"% c #5B5B5B",
"& c gray34",
"* c #4B4B4B",
"= c #434343",
"- c gray23",
"; c #373737",
": c gray20",
"> c #2F2F2F",
", c #232323",
"< c #EFEF00",
"1 c #C7C700",
"2 c #9F9F00",
"3 c #777700",
"4 c #E3E300",
"5 c #4F4F00",
"6 c #BBBB00",
"7 c #939300",
"8 c yellow",
"9 c #6B6B00",
"0 c #D7D700",
"q c #DFDFDF",
"w c #434300",
"e c #AFAF00",
"r c #C3C3C3",
"t c #B7B7B7",
"y c None",
/* pixels */
"@@@@@@@@@@@@@@@@@@@@@@@@@@@@@>@@@o@@@@@@>>>>>@@@>>>>>>>>>>>>>>>>>>>>>>>>>>>>>>>>>>>>>>>>@@@@w@@@@@@ww@w@@ww@@@@@@@@@@w@@@@@@@@@@",
"@@w@@55@@w@@w@@@@5@@@@@@@@w5w@w555oo5o55wwww55ooo5@>>>>>>>>>>>>>>>>>>>>>>>@@wwww@>>>>>>>@@@wwww@ww@@@@@@w@@w@w@@ww@www@@@@@@@@@@",
"5ww55w5wwwwwwwwww5www5w377222e2222222222####26161626 o55---->#OX2222222227777   33%>>>,,-=5555w555o5wwwwwwwww%www%%ww55wwww555%5",
"55w5w55w555wwwww55w5553210444<<<<<<4<411XOXX004444402 o,---*OXXO666666666666666622#%>>,,-**5555ooooo5wwwwww*%%%%55555555555o5o5&",
"5o555oo55wwwwwwww5%w552t.X1101000440401OOOOO76111110++55-->O.XOO+2e2+++72222772eO#$%w>,,-=%# 7 772277   ##$$%****o*5*5oo55oooo55",
"*55ooooo**555%5555555*20.X661616110606O+OOOO# eeeee1++ww--#X.XO+++22++O+77277772##$ow>,,-=$#22eeeeeee27 ####$$%****o5o99o5oooooo",
"7o9399333377##%%**%%** 0.Xeeeeee22ee1e+#OO7+#$72222e#9w,--+X.OOOO+2O++O+3 27   7##ow->,,-*32110001111166XXXXOO22222277  ###3# 3 ",
" 7   X77XOOOO+#%-*%%** 0.X2e22e2  2eee++77 O+#37777e$95,--+X.OOOO+++2O2+3 2  3 7##$%->,,5*9210440016166et..XXX661166e22 XXXeee22",
"66eeeeeeXXO2OO#$-*%%**30.O222227337 22#+7 +++#3  772%35,--+O.O+2++O772OOO3  333 #$9ow>,,5o32141e6eee22..tt11000044111116ee7.7e22",
"X62eeeee2X22++#$--*%**30.O22227 33  27++7 ++O+3o3 77%95,:-+OXO+2O+O+7+2++9 3393 #93ow>,,5o32641ee72 22XXX66111100016e6166eXX7XX2",
"+++22eeeee27+##%--*%**30XX72227 9# #27+# +22O+9#9   935,:-#+OO2eOOOO+++OO+39Oo33#o95w>,,5* 26412e7  OOOO61OO22e61e2eeee22e+OOOOX",
"+#++72eeee27 ##%--=%**30XO7222 39+#+7 +O7#72#Oo#93  33w,:-$#+O2eOOO7OO+O+O9oO+33#$o5w>,,o* 2e4e2  OOO6Oe61+O272e6e277722 2OO+OOX",
"O#OO 7e22227 3#%--=***30.O7272  #O +7 #+O#72#+#+#3  39w,:-%##O7e++72O+2O+3O++O39#$o*->,,932 e1e O3OOe61661O+7 2e6e77  72O O+eeO.",
"#++O3 22 77739$%,--***90.O7 72 3###+7 ++7O 2+O+##93 3o5w:-*%$#72++7e+OOOO 3+OO3o#o*-@@,,332 21e7OO+O7616e1OO7 726277  72O+++eeO.",
"O#O## 723   39%*,>:-**90.O # 2 3+##+7 #++# 7++##+#3 3oww:-*%93 7OO2eO OO 77 OOo5%*--@>>w  23 e27OOO+2ee2e6OO7372e77 +O72+O+O  OX",
"+O#+## 733  39%=,>:-**90.O#+ 2 3#O+O  ++#+  O++###3 3ow5:-**93  # 72O3++73  O#o$*--@@,>o 2 9 e2 O++O227226OO 372e7  +O72O+O+  +X",
"#+#+##  93339%*=,>>>**91.O+O 2 3OOO+ 3##++#7O+ #+#3 9oww5w**o93333339o$$999$$%5--@@@>,o322o9 22 OOO2227O2eOO + 727  O#72+#+++O+O",
"OO+++# 39939$%*=,>>>**91.O+O 2 3+#7+ 3#+O+#7O+7 +#9 oow@wo5*55ooooooo5-5-5------@@@>,w372 oo327 OOO227+O2eO+O+ 727 3O+ 7#++O++#O",
"+++#+# 3%$99%**-,>>>**91eO7O32 3#+3O3#+#+++#O+72+#9 %%>@w5o5*555555555wwwwwww@@@@@,,w37173o972 3O+227 OO2eOO++3 77 3#O37O#+++#O+",
"+#O+O+33$#$$%*->,>>>**9eeO O32 3OO7+3#+O+O+# O 7++9 %%>,wwoo5*@@@@@@@@@@@@@@@@@>,,,w371e oo372 3+72233O+2eOOOO3377 9+#3 ###+#O#O",
"#+####9$%%**=->,,>>>**92eOOO32 3OOO+3OO+O+##+O+ ++93%%>,w@5oo5-,,,,,,,,,,,,,,,,,,,o3e1e7o9337 33222 93+O22++++3#7 39#+3#+#+###+$",
"#$$$$$$$%*==->,,,>@>**97eeOO32 9+O+O3O+O+O O + 7O#93%%>,@,w5o95->>>>,,,,,,,,,,>>o3 e1e7o9 39 3o32273+9O+22+#####  3oo#####$#$#$#",
"%%%%%****=:>,,,,,>@>=*o 2e7O3  9++++#O+O+  #OO3  Oo9%%-,@,@w5o339w5,w5o9395ww97e1011e7o9 2399oO377 3####33$$%%%%339%%%$%$%*%**%*",
"*===-----:>,,,,,>@@>=*o3ee O33 9O+OO7OO+O # O+3 7 #9%%-,@,@@w597  99##266eOOOX4888017 9 2 399o+9   3##$$33$%%***39%**%*%********",
">>>>,,,,,,,,>>>>:@--*%o322#+#$39+OOO22XOO#O#OO3327#9%%-,@,@:wwo3ee1001e101XXXXX1040111e2 9o5%$#o$$o9%%%%oo**----55---->>>>>>>>>>",
",,,,,,,,,>>>>>>:::@@*%o92 #O#$39O+7+27O++OO+OO #72#o%%-,@,::@w$9e100001001XXXXX+111ee7 3oo55*%%5%%%o%***oo----->>>>>>>>>>>>>>>>>",
">>>>@@>>>>>@@@@>@@--*%*o #+O $9$O+227 +X9+O#++ +  #o%%-,,,>>@@#360106e610eXOOOOOe67$ 35w@ww5===wwww5=-----;;;;>>,,,,,,,,,,,,,,,,",
">@>>@>>>>>@@>>@>@@@@*%*o #+O 39$++27  +O#O+#O+O  3#$%%-,,,>>@@O.60e1e2ee1eXOOOO+26#$ 35w@@wwwwwwww@@-;;;;;>>>>>@>>,@,@@,,,@@,,,,",
"---@--@-@@--@w5w----*%*o3#+X33##O+7  3+O#O33OO+ 33#$%%-,,,>>@:O.60e62Oee1eX2XOO+2e##3 o5-@@@@@@@@@>>@>>>>>>>>>---wwwww-w--ww----",
"-----@@-@--@w5w-ww--*%*o##+X ###+77  3+3O+39+OO93 ##%%*,,,>@@:O.10262Xe26eOe+OOO7e#$3 o5--;-----------------------5ww-wwwwww----",
"%*==-5-55-5w5o5w@w--*%**##O2+##O+773 3#3##9$+++933##%%*,,,@:w:OX6626+O2O6eeeO+O+72##o33955**********============**5*o***5*555***",
"%%%%%%9o95w59o5w----=***$+27+#OOO773 9#3+#$#+O+#33##%%*,,,@@5:OX6666OO2+eeee+O+O 2#$oo 3oo9999oo555****************59o55**9339**",
"OOOOO+2+777   33$%-::-*%*#7  O7 O#7333 3#3#+#3+#99##%%*>,,@ww:+Oe666+O+Oee2eOOO+37##*w3  72222279o55**%%%#OOOOOOOOO27O77772777OX",
"XXXXXXXeeeee22  #$>>>:*%*9 3# 7 +7 93993#3#3+$OO99##%%*>,,@5w:#Oe6e6OOO+ee22O+O+3 ##*>o372ee22ee79w%55*%#OXXXXXXXXXe2XeXXe22XXXt",
"tttttt400111e733#$-:>:-%*o33#  7## 99%o9 9#$####9$##*%*>,,,ww:#Oe626OOOO2273O+#+#3##*>wo3 2e2722735****#X.666666tt111111666611tq",
"XXXX11111116e 3o#$-:>:-%%o9$#O37## 99#99 9+3+##+$##$*%*>,,@@@:#+e6 2OOO+27 3+#+##3##*>,wo32e277273o555*#.66111e1XX101000001111Xr",
"2OXXeOeee6662 39#$-:,:-%%5o##O## # o#$o939######$#$%*%*>,,,@::-%72+XO+++7 33#######$*>,>-o227 77 9o**o*Oe11111272ee661e2e666e7X7",
"XOO2OOeee22e2739#$-:,:-%%*o#O#+++#3o$#oo3o#$#$$$$%**%%*>,,,>@@:-9 *++++#3 39######$%*-,>-522  77 99*o5*Oe11eeeO 22ee61e7ee6e2777",
"+2OO++ee2e2e27 3#$-:,@-*%%*$O#####3o$$oooo%%*******%%*->,@,@@@,,59%****%o3%9%%%%%%**--,>-o22    3%oo5o5O61e272O37e2e66272eee2777",
"O2e+OOee222e22 3$%-:,>-*%o*%##$%%*oo**o5o5**%%%%%%%%*->>,,@@@@@@w5-%%%%%o9$o%%%%**--->,-5927    +%59o*5O6e72OOOO e7226272eee77 7",
"2Oee+Oee2e2e27 3$%-:,@-*%o*-------55ww5w5www*****--->>,,,@@>:@@@w@@@>>>>>5w>>>>>>>>>>>,-o327  33+%wo9oo3eeO7OXOO e 7267772e27 3 ",
"2+eeOOeee22227 3$%-:,@@woo*w------5wwwwwwwww-->>,,,,,,,,,,@@@@>@@@@@@@@,,ow,,,,,,,,,,,>5o 27  39+%w5o99 e7OOO+OO 7332e7 7722  OX",
"OO2eOOee22 e22 3$%-:,@@*o9w*>>>>>>w>,w,,,,,,,,,,@,,,@,,@@ww>@@>w@>@>>@@>595w>>>>>>>>>>59o 27  3o+%>w599 27O+OOOO  +O2e7  72237 O",
"O+2eO+ee22222233$%-:,@@*o9*ww>>>>>5>,w,,,,,,,,,,,,@w@w@@w5@:>>ww>ww>>>>5o o5>>>>>>>>5o9owO27  9o+%>w5o9327+O+O+O 3OO2e   722373X",
"2+22OOe2e2772733%%-:,>@-%9%ow*--ww5,@5@,@,,,,,,@@-@5wo5wo5--==w=oow*oo93 7 39o$%*oooo9w*%O27  39#%wwww5927OO++OO3+22e2 o  2737 7",
"2O27+O2#22  2793%*-:,>:@o39o**--w595o9o5,,@,,,@@=@w9339o9o****o*99 2222e227277 #33999w*%+O27  33#%ww5w*977OOOO++O+22223o  2737  ",
"2O27O2#+22 37 #9%*-:,>--o93      393  39o*==ww-**%3222ee6666XX11ee22eeeeeeee2222 995w-*$OO27    9%>-ww5# 2OO+OO++O22273oOO7 373X",
"2O7 O2OO27 3 3#9%=@:,>--$ 211666ee7711   owww555$32611111111..11ee22222222222722 95,-w*#OO27    39>-w5o# 7OO+O+O++227 3o+O7 3 O.",
"+O #+OOO2  33##$%w@:,>--9261ee2ee272ee 73o5w=5o*326111OO6666eeee2  777777777777 3o5w-w%OOO27  33 o,>w*o332OOOOOO7222779oO+ 3o + ",
"+2#++2O+7 33#+39ow@:,>--3e612e72e27722739o555o5*326161OOeeeeeee27               3o5@w-%OOO27  39 o,>**o33 O+OOOO7722  9o++33o3 O",
"##+++2++ 3##+39o5w@:,>-- 62e 7       7 339www5559261e6OO22 7 27            3  33oo5w--$OOO27  9o3o5>**o393####  7 7733oo##39+933",
"$$$$$$$$33#33oo*w@@:,>-- e22           3o9@w5w559261e6O+27  3    3         33333o5w,@w$+OO27  953o9>**o9o9*$$$33 3  3ooo$$9$$o3$",
"*%%%%%%$$$oo9o5ww@-:,>-- 777           3o9@w5w*59261e2e12773+3  393   3    3##33o5www-$+OO27  9w3o95%%oo>---**55o55oo5****o%%5%*",
"****%*%%o%o5=5w@w@:>,>-- 7    33 3     3oo@w55559261e22e27 3O33 993   3    3##39o5w@wwo+OO27  9w3o99%%oo->>>:-wwwwwwww--==5**5**",
"******---@ww@w@@@,,,>:-- 77   33 9    33o5@w5www9261e2722273+33 9#   333   3+#39o5@,w5o+O+27  o5oo593o%%*->,,,,,,,,,,,,>>>;;-=**",
"===---@@@@w@@@@@,>>>:---37   3o939    939o@w55ww9261e2 77273##3 9#   393   3++39ow@,ww$+OO27  o5oo,9 39%%*->,,,,,@@,,,,,,,,>;---",
",,,,,,,,,,,,>>>>>:-==*-*37  339o33    9395@@w5ww9261223 7273++3 3+   3#3   3+#39ow@@@-32OO27  9o#%,5  39o%*->>>>>@@@@@>,,,,,,,,,",
",,,,,,,,,,,,>>---=*%**-*37 339#o3     93o5@@@w=w9266223 72 3O+3 3O7  3#3   3O#39ow,,--32OO27  95#%,>   339oo*----w-www>>>>,,,,,,",
"*=****%%%o$939$$oo$$%=--97 9#9##3     33o5w@@www9 6622#372 3++3  27  3##3  3##39ow@@-5 2O+27  95#%,>3 227  9oooo5555555oww------",
"**$$$$## 77 7 ++  +#**,-57 3##++       395ww@ww*9 6e22#372 3++3  2   3+#3  3##3oow@,-9 2OO27  95#%,>93 2227 33%%oo339o9o5w------",
"$$++XX2222222222227#%-,@57 9#+O+33     39o5w@ww*9 227 ++7233++3  7  39+#3  3+#9o5w,,o332OO27  9o#%,>o%3 eee222e272 72 ********%&",
"$#+2X2eeeeeeeeeeee27%-,@57 3+O++3# 3  39995w@ww*9 227 O+7793++3     39#+3  3##9o5w,599327+2   9o#5,>5*332eeeeeeeee2ee2 %******%&",
"$#2 eeee222222e22  3%-,@o 39OO+O#O39  999o5w;ww*#9  73OO 7#9+O33 3 399#O3  3+#9o5w5o5-327O2   9o#5,>5*+. e72eeeeeeeeeeee2 #%***&",
"$#22e2e2777777777  3%-,@9 9o+O+O#O39  99o55w-ww*$9  33+#3 O##O33 3 3o9O+3  3##9oww5w-5 2772   9o#5,>5*Xt 7372eeeeeeeeee2e2#%*-*&",
"$#2e2ee777 333777  9%-,,3#o#O+##OO 3  39o5ww->:-*9 3#3OX+3++OO3#33 3$oO+3  3##9%>:,>-5 27O2   9o#5,>**.7X7XX7ee22222222 7 #%*-*&",
"$#2e2e277 3993 77 39%-,,7+#OO+O+3O     3ooww->:-*933O#O+O3+# +##3 33##+#   3# 9%>:,>-o 2777   9o#5,>5o7 X XX72e 77777  3  #%*-*&",
"$#2e2e27 39### 77 3o%-,,7O+++++O#+     3o95w->,:*$#9XOOO  O+  ++33 3#O+O   3 29*>>,>w93277 3  9o#5,>5o77XXXX772   7 793# 3$%*-**",
"$#2e2e2739##+O 27 9o%-,,7O+OO+9O3O  3  39o5w;>,:*$O9XOOO 7#O  #+3333#+O+   3  #*5>,w9 377733  9o#o,-*o7XXOXO272 3    o##3$#%*--*",
"$#2e2e27 3#O++2e2 9%%-,,7O#+O+#O3+  3 399oww;>,:*$o#.OOO 77  3+O#3 3+O7+72 33 #oo>wo 9$77+3O3 395o,-5o37OXXO722 3O33 9####$%*--*",
"$#7e2e2739#+772e2 o%%-,,7O+OOOO+ 3  3 3995ww;>>:*$9O.OXO3 7733+ +# 3O+7O72 33 $oo>o39w$7X+3+3 395o,-5*3XO OO772 3O393o###$#%*--*",
"$#7e222733+76e222 9o%-,,7OO+OOO+93  3 39o5ww;>,:w59+.XOO37 3#977OO33 +77223393%oo5oow>o OO3+339o59-*5*37OO O  7 O+393o##9o$%*w-*",
"$#7e2e27 3#7ee7 7 o%%-,, O3 OO+##9 33 9oo55w;>,:5oo#XXOX3 33##37#+33 #7e2 3399*o5wo5w>59OO##333o59-5593 3  O 773++333o##o5#%*--*",
"$# 722227   72 3  o%%-,, O #O+3+##393 9$oo5ww@,@w5%#OXOO93#9O+3 +#3#  227 39o9:5@@w5w>59##$$93 3o9**5939+3 O3273O#3939#9$#oww---",
"$#  222222 3 739  o%%-,,3O#+O3 OOO393 o$99www@,:@55$OXXX93+#OO9###3#  22 339o9:-,,@55>-55%**93 3o95**93593 +3   +#393o#o9$55*-w-",
"$#33 77322 3 7 97 9%%-,,3OOOO 7O O9#3 o99$5ww@,:@=*$+OXX#9O+++  339933  9o9oww-:,,,wo5->>,,,9   oo95w9o55ooo999oo#9o95ooo5ww@-w-",
"$#3#   37733 7 37 9o%-,,9XOXO7#+####3 99$#5ww@,:@5*%#+OXO9++33 3399993o9ooooww:,,,,-5ooo5---9 7 95o9o35wo9555o5555555555www@@>ww",
"$#3+## # 73#   72 9o%-,,OXOOO##O#O+#3 99##%ww@,w-w5*-%#OO#3 9993o93o595w93o5ww,,,,>-o55o9993 7 3 95o99o93owwwwwwwwwwwwww@@@,>---",
"$3+OOOO+  3# 7    9o%-,,OXOX#OOO7O +3 3o$#w%w@,>@w5=,>-%%%oo55ooo939w5ww93o5ww,,,,:-55%55o3 7 3o9 95 3933>>@@@@@>>5@@@@@@>>>----",
"$3+OOO O 73O 733  oo%-,,#OXO#2OO O333 3o$$5%5w@>@w5*:,,,,>ww-:,@w533@,@@939o5ww,,,:w5ooo93 7 39*o3 3   3o**-@@@@@@oww-ww-----ww-",
"937O7O3+  32  393 9o%-,,#OXO22+O#+O3  39$$5%5w@>@:ww=-:,,,,,,,,,,@33::::o339o55w::5woo593 7399**o9 e7  95***-w-ww5o5w-ww--wwww-*",
"$37X7+223 #+  9o93o%%-,:%OXX2 +O#O +  39%$%%o5@>@-www==-:>>>>>>>>-  ====wo 7 39ooo93   777 o%%%%%%37e27  33399ooo59o%%%%%%%-ww*&",
"937OOO 23 #O  9o93o$%-,:%OOO7 + O2+O  339$5%o5@>>w55ww**----------7 9**o9 3 7        77227       777e6622222##3#3  3 333##$*--*&",
"99777O2+#3#+  9$939o%-,:*#OO7 #O72OO  39%#%woow@@@55ww%%%%%%%%%%%327359373o3 722ee2772e2OOXX+ 3+O+ 726116666666ee222777  O#%--*&",
"9377  O++3+X  9$339o%-,:*#OO   O 7+   3o$$%%5o5@>@ww-%%##########7e27  73#oo 722ee22eee2222 7  222e666111111111116666e272 #$--*&",
"99 7 O+ O#+O3 9# 3oo*->:**O+3 3+  +3  39o%5%o9o5@>:-59#OXXXOXXXX6611e6e2OXXO2266111111166eeeeeee661111111111111111111616  $$>>**",
"99  O+OO 77O3 9# 3oo*,>:**OO33#O37OO  39o$5%5995@>:-o7XXttXX.1116610110eX...2e66111111116eeeeeee6666666666666666666666622 $$>>**",
"$337OO+2+7 O939#39%%*,>:**+O#3#O+3O+3 3o$o5%5o3ow@>w e104411166011044444OX..O7eee66666666e2222eeeeeeeeeeeeeeeeeeee22222 ##$5->-*",
"$3 7OO72O7O+9o9#9o%%-,>-**+++#+++9+O3 39o55%55 3o5>oee1044010610640404006OXXXO7eeeeee66ee27   322eeeeee22eee22ee222277  ##$%->-*",
"99  2+77+ #+9%9#$%%*,,--**#O3OO+#wO+3 39#o55w59  39 e261001e6e2e616e2e162 OOXO+222222222  33333 7722eee22eee22ee22  OO++##$55>--",
"$933 O+ O+7#9%3###%*,,--**#+#+O+%w+#3 3o#555w5o  772226610e2e27e21e7 7e672OXOXO722722227 3993393  77eee272ee22ee22  O+O+##$5->>-",
"*93 OO77++#+9$3#9#o-,,-=**#OO++O#%##3 3ooo55-593 3 3 72726OO22 2727 3 2e2 OXOOO722 72277 3X93OO3   22ee277eeOOee773 OO++##oow>>-",
"*9 7OO72+ #+o$3#9o5>,>-=**#++33++##9  3o$o5%5599 9 99o77O2XOe27 277 3 222 O+ +OO27 7727739O93+O+ 3772ee7 7e2O+27 73 O#++#9oow>>-",
"*$7  O 2  ####3$o5>,>:-=**#+O3++O+33  395o%%5o9o33 9ow 7OOOO2e737273332277+777+X273 727 39OO39 O3+ 72e273722++27373 #++#33o5w>>-",
"**O 9+ 7 3###$3o5>,>>:-=**#O+O++O+3#333o5o%%5ooo3  oww37OXOO2e7377 39322777+O OO273 72  99OO377+3O3 72277 22+O27373 +#++33o5w>>-",
"**#### 739$%oo95>,>>>:-=**#OO+77#+9#9o9o5$%%5ow5o3 95%372XOO7e7322 393227  722O+7 +O 2 3O93O37 OOO3O727 o322612737+ #+#+ 9o5w,>-",
"**%$$$ 739**=o9,>>>>>:-=**#OO+ 3++#3o5w55o%%55@w5o 3o537722O727 22 339223 7722+  3OO 2 3O9OO32 7O73+727 3o72ee2737+ +#3###o5w,>-",
"**==--323o:::o9>>>>>:-==**%#$$$oo$%$o$o55%%*5w,@w59 39 73727727222  997233 72233O+OO 2 9++3O7e e+7+O 2 3++7 772737# #+#  #$ow,>-",
"**=-::323o>>>93>>>>::-==***%%5%%5o%%5%5555*-w>,@@w59  7 #3777e  22 793 2933#22 3OO+O32 9OO3+7e 277O#32 3O+7 3327 7+++#+33#$ow,>-",
"%%%%** 2 o>>w3 >>>>>:-==--------www-www------>,@,@ww5o95##3 7e 9  3 993 9o##    +##X3239OO++ 2 7+7++32 9+#73#+ 7 7+##9+###oow,>-",
"%%**** e7355o  5>>>>--==-->>>>>>ww>>@@@@>>>>>>,@,@@wwwo95%$3 2 9339399o9o9#+3  3+3#+3239O OO 7 3O++#9239O+ 3O# 7  #3#3#33#9ow,>-",
"***--92e7 33 e995:>>--==->>,,,,,,@,,,,,,,,,,,,,@,@,@>>wo9o%$3 9#939o##o9#9#+O O+79+O9 393 +O3 33#7##9 39+# ##+373 +3# # 3o$ow,>-",
"**--9 2e2727eeo995------->>>,,,,,@,,,,,,,,,@@@,@@@,@>>w5o5oo93%%9ooo5%55$##9++9O73++9 393 #+3 33+7+#9 99#+3#+#3 3 ##+   3#oow,--",
"*--o3O616e6e6e#9 9*------>>@>>>>>w@>>>>>>>@@@@>@@>@@--ww5o55oo-----@-www$%$99##o+9o#939o33#9#9#93#33939o######3 33+#3  339o55,--",
"*-$+26111ee662OOee7%%%*-->>>>@@>>w>>>>@@@>@ww@>@@@@@--5wwww-55>>>>>>@@>-%*%9#99#99o#939o9o###9oo939393o5#o#o##3  3#3  3ooo55,,--",
"--#Oe14406e1044101e2#%%**--->@>@w5w--@w----ww--@w@-@**55*wwww-->>>>@@@>>-**%%%$$ooo#o99ooo#9oo9oo5ooo9o5#oo#oo3339o339o5o55->>--",
"--$+614401e104410162OO##%**->@ww5o5-w5ow@w-----@5--@**o5******---www-w-@>-**%%%9%%%%oo5o5oooo5555555oo5o%%555oooo9999o555*-@@>--",
"*-$#614406OO016616eeeeeeee7777   339993ooooooo%o9o%%$$o5%%5%5o*oo5wwww-@>@>-********99555w5w5ww5w555o55o**o*555o55ooo55ww@>@---*",
"*-$#61441eOO11e616eeee110016666110016ee27e27  +9 3####9o$$$%55ooo5o5w-@@@@>>>>>>>>>5 95w@ww5wwww----o55o-ww-w5wwwwwwwwww@@@>--**",
"*-$+61441e+X11ee6e22O7ee101666ee666e6e6e222227    7OO+2 ##+  37#$--**%-@--->>@@>>>59 9@@@@@@@@@@>>>>o559>@@@@@wwwww@@@@@@>--w***",
"*-#O61046e+O11226e 2OOe26166e272e6e76e6e22222222   7OOXXOOXO2eXO#$>>-***---@-----5o o9@>>@@@@>>>@@@>9o59>@@@@@@@@@>@@@@>-@@@w*w*",
"*-+O61046eOO61226e 2++7O6166e7+Oe6e26e67 7ee22e2   7OX1.Xe1XX.OO7#->>-oo*www-@w-oo7359---@-@@@------39o3------@@@@@ww@@@-@@w*5w&",
"*-OOe114eeOOe1ee62 2O+7O616e27O+ee6e6e2   ee2262  3 77XXOO1OOOO++3o->-ooow*o**-3 279-9-----@-------o7397o---@@-@@-@@@ww-ww*@*5w&",
"*-+Oe+60e2O+e6#26272+OOO61e2e6e2266662  ##2e22e2  ##3 777+O++O#7O$5w,-%o5*o397eeee##$3o===*ww***o3  27 7399oo55***55ww5o5wwww%5&",
"*-+Xe+60e7O+2e+2e772O O+61e72e22726662 3+O21e222  +O#3+O  O+OO##+$ww,-o3o537eeeeee+XO 3o**5%%5%9  2eee277  33oo5*55555o3ow5w%w%&",
"**OXOO+6e7O++ O#e7 2+7 +61e73727++e6e2 3#+71e222  OO+#O+OO+7+O+#+%w>,>5o5o7e7 7 27OOttXO#$%55%92e11111166eee22 3# 377773o5o55*5&",
"**+OXOO+2 OO+OO+2737+77Oe127  e7+X26 2 3+O e22 2  OO+O OOOO7++O#+%->,>***o77 7 7  OXXO7OX#$55%3e166666eee666e27 O  e7 X23o55o5ww",
"**#++OOO7 OOOOOO2 93O 7+7e3o###OOX e9 +3+O97  3  3++OO+OO7O+O7+##%->,,-*5o  7   337O7O3XXO$$%* e22772222227777273 OeOOOO2 %55*w&",
"**%###+O##OO99+O 3o9O +O3 %o#+OO+O  oo+ OOo3  3 33O++OO++O++OO+##%->,,-**53  3  33333OOO7O#$%%7e27  722777    72 3O7O7OOO+#%55%&",
"*%-%#$$$#9#9o9##39#o#$$$o3%$$$##$$9o9o9 39o99 3o-%%$$%$$%%$%%%%%%-->,,>***9  3733##37O7OO+#$** e7 OO727 O   O3 7 3OO  O7 +#5-5%&",
"**---*===w=w5o=5o555====5o========oo9o99ooo9o99o------------------>,,,>***93 333#OO3O777++#$** e 3OO72 3OO 3OO 7 9OO3 O 3+95>-%&",
"**--->>>>>>@ww@@ww@@@@@@ww@@@@@www55w59owww5w555ww@@,,,,,,,,,,,,,,,,@,@***o5o9oo#9### 7 ##$%**3733+O7273OO OO+37 9O+ O O9+9%>-%&",
"**=-:>>>>>>@@@@@@@@@@@@@@@@@@@>>@@ww@w5w@@w@wwww@@,,,,,,,,,,,,,,,,,@,,>***-5o5oo$$o#3 39$$%***9 3+++72 9++3+3+3 3o7++  7  95>-%&",
"%%**-----::::@@@@@@:::::::@@@@@:>>>>@@w@>>>>wwww>>>>>>>@@>@>>>>>@@>@@>>*----wwww%5%5ooo55->>--939###339o## 93#939o3##  3 9o5>-%&",
"%%**------>>>>>>:----@@@@@@@@@@>>>>>ww@w>>>>5ww5>>>>>>>>@>@>>>>>>@>@@@>*-ww-wwww>>>>>>>>>>>-w-w9%%%%399o%%%wo%93oo%%5wo9o95w>*%&",
"%%%%%%%**======ww***w@@@@-ww@-------5ow5----o55o-----------@--------@ww---w---ww-----------ww-w@@@@@o5o5@@@@w>5o55>@@@www@@>-*%&",
"%%%%%%%%******www**w*w@*-www@--www--5o-5----o5-o--------@-----w------www-w--wwww-ww-w-------w55w@w@@ww5w@@@-@@@@@@--@-@@@@@***%&",
"--------------w--w-www---w------ww---5------5--5-----------@-----w----w---w-w--wwww--------w--w-w--wwwwww--w@w@@@@@@wwww-w------",
"--------------------ww-www----w-------------------------------------------w--w-w--------------ww--ww--w---wwwwww--wwww-www------"
};
