/* XPM */
static char * h_xpm[] = {
"64 64 46 1",
" 	c None",
".	c #980088",
"+	c #FCE0D0",
"@	c #F0945C",
"#	c #E4D800",
"$	c #FC7800",
"%	c #000000",
"&	c #B45400",
"*	c #9C4C00",
"=	c #543C1C",
"-	c #BC0000",
";	c #C80000",
">	c #D40000",
",	c #1C1C1C",
"'	c #7C0000",
")	c #E00000",
"!	c #EC0000",
"~	c #B00000",
"{	c #A40000",
"]	c #880000",
"^	c #700000",
"/	c #4C0000",
"(	c #400000",
"_	c #B4B4B4",
":	c #7C7C7C",
"<	c #640000",
"[	c #580000",
"}	c #980000",
"|	c #DCDCDC",
"1	c #C0C0C0",
"2	c #ECECEC",
"3	c #D0D0D0",
"4	c #707070",
"5	c #646464",
"6	c #8C8C8C",
"7	c #303030",
"8	c #383838",
"9	c #484848",
"0	c #404040",
"a	c #989898",
"b	c #A8A8A8",
"c	c #545454",
"d	c #282828",
"e	c #181818",
"f	c #4C4C4C",
"g	c #202020",
"................................................................",
"......+.................................................+.......",
"...@#++$%%###########################################%%++##@....",
"...&&&#*=%%%****************************************%%=*@&&&....",
"......$..-;>%%,,,,,,,,,,,,,,,,,,,,,,,,,,,,,,,,,,,,%%''..&.......",
".........)!!)~{]^/((((((/^]_%_%%%:%:</(((([^}-;~~]^//<..........",
".........)!!)>;-}]^<<^^]}{-|%|%%%1%_}]^^']}~%2%%%1%]^<..........",
".........)!!)>;-}]^<^'']}~;|%|%%%1%1{]'']}~%)%2%|%{%^[..........",
".........)!!)>>-{]'^']]}{-;|%|%%%3%1~}]]]{~3%!4%5-%6<[..........",
".........)!!)>>-{}]']]}{~-;|%|%%%3%1~{}}}{~%|55%57_%<[..........",
".........)!!)>>;~}]]]}}{~-;|%|%%%3%1~{}}{{~%%%%%%%%%^[..........",
".........)!!)>>;-{}}}}}{~-;|%|%%%3%1~{}}}{{%389%0,_%^<..........",
".........)!!)>>;-~{}}}}{~~-|%|%%%3%1~{}}}}{1%!8%8-%6^[..........",
".........)!!)>>;-~{}}}}{{~-|%|%%%3%1~{}}}}{%>%2%|%{%^[..........",
".........)!!)>>;-~{}}}}}{{~3%3%%%3%1~{}}}{{~%2%%%1%}'/..........",
".........>!!)>>;-~{}}}}}}{~3%3%%%3%1~{}}{{~->!!));~}'/..........",
".........>!))>>;-~{}}}}}}{~3%3%%%3%1~{}}{~~-)!!));-{'/..........",
".........>!))>>;-~{}}}}}}{~3%3%%%3%1~{}}{~~-)!!));-{'/..........",
".........>)))>>;-~{}}}}}{{~3%3|||3%1~{}}{{~-)!!));~}'/..........",
".........;)))>>;-~{}}}}{{~1||%%%%%31_{}}}{~-)!!));~}'[..........",
".........->>)>>;-~{}}}}{_1%%%%%%%%%%%aa]]}{-)!!));~}'[..........",
".........}>;)>>;-~{}}}aa%%%%|||||33%%%%6:]}~>!!));~}'[..........",
".........]-;>>>;-~{}}a%%%%3|%%%%%%%1_%%%%6}~>!!));~}'[..........",
".........]~;>>>;-~{}a%%%_1%%|||||33%%a6%%%b~>!!));~}'[..........",
".........}~;)>>;-{}a%%%a%%3||||6|331_%%6%%%1>!!));-{'<..........",
".........}~>)>>;~}]6%%a%%13|||5%c331_a%%6%%1)!!));-{]^..........",
".........~->)>>-{}6%%6%%_13||5%%%:31_aa%%b%%|!!));-{]'..........",
".........-;!)>>-{]:%%6%a_13|5%%%d331_aaa%_%%|!!));-~}'..........",
".........;!!)>;-}6%%:%6a_135%%%d|3e8_aaaa%1%%2!));-~}]..........",
".........322||||b6%%:%6a_19%%%7||9%%daaaa%1%%22||31_a6..........",
".........%%%%%%%%6%4%6aa_1e%%%4|f%%%%,aaa_%3%2%%%%%%%%..........",
".........122||||_%%:%6aac13c%%%g%%%%%%eaa_%3%%2||31_aa..........",
".........%%%%%%%_%%6%aa,%e3|c%%%%%ce%%%ea_%3%%2%%%%%%%..........",
".........%%%%%%%1%%a%a9%%%e||d%%%,31%%%%f_%3%%2%%%%%%%..........",
".........%%%%%%%1%%a%aa,%%%74%%%%%01_%%ea_%3%%2%%%%%%%..........",
".........|22||||1%%6%aaad%%%%%%g%%%7_a9aa_%3%%2||1_a44..........",
".........%%%%%%%%b%6%6aa_8%%%%c|4%%%%aaaa_%3%2%%%%%%%%..........",
".........|22||||_a%%:%6a_19%%c||d%%%daaaa%1%%22||1_655..........",
".........)!!)>>-{a%%4%6a_1357||d%%%8_aaaa%1%%2!))-{]'<..........",
".........)!!)>>-{]4%%:%:_13|||7%%%91_aaa%a%%|!!));~}'^..........",
".........)!!)>>-{]4%%:%%_13||6%%%f31_aa%%_%%|!!));~{]'..........",
".........)!!)>>-{]'4%%6%%13|||5%c331_6%%a%%3)!!));-~}'..........",
".........)!!)>>;~}]:%%%a%%3||||6|331_%%a%%%3)!!));-~}]..........",
".........)!!)>>;~{]]6%%%_1%%|||||33%%aa%%%1;)!!));-~}'..........",
".........)!!)>>;-~}}}a%%%%3|%%%%%%%1_%%%%_-;)!!));-~}^..........",
".........>!!)>>;-~{}}}aa%%%%|||||33%%%%aa~-;)!!));-{]^..........",
".........>!!)>>;-~{}}}}{_1%%%%%%%%%%%66}{~-;)!!));-{]^..........",
".........>!!)>>;-~{}}}}{~-3||%%%%%1_a]]]{~-;)!!));-}]<..........",
".........>!!)>>;-~{}}}}{~-;|%||||1%b]'']}~-;)!!));-}'<..........",
".........>!!)>>;-~{}}}}{~-;|%|%%%1%b]'']}~-;)!!));-{]<..........",
".........>!!)>>;-~{}}}}{~-;|%|%%%1%a'^^]}~-;)!!));-{]<..........",
".........>!!)>>;-~{}}}}{~-;|%|%%%1%a'^^]}~-;)!!));-{]<..........",
".........))!)>>;-~{}}}}{~-;|%|%%%1%a^<<'}~-;)!!));-{]^..........",
".........)>))>>;-~{}}}}{~-;|%|%%%1%a^[<'}~-;)!!))-~}]^..........",
".........;>>>>>;-~{}}}}{~-;|%|%%%1%a^[<^}~-;)!!))-{}'^..........",
".........-;->>>;-~{}}}}{~-;|%|%%%1%a'<<']{-;)!!))~}]'^..........",
".........~--;>>;-~{}}}}{~-;|%|%%%1%b'<<']{-;)!!)>~}]'^..........",
".........}~~-;>;-{}}}}}}{-;|%|%%%1%a^[<^]{-;)!!)>~]'^^..........",
".........'}{~~>-~}}]}}]}}~-|%|%%%1%a^[[^'}~-)!!)>{]^<^..........",
".........^}}{~;-{}]]]]]]}{-|%|%%%1%a^[/<'}{-)!!)>{]^<^..........",
".........'}}{~{~}]'''''']}~|%|%%%1%a'</[^]}~)!!)>{]^<^..........",
".........<]^^^]]^</<<<</<^]1%3%%%a%6[((((<^]-;>-~'<[((..........",
"................................................................",
"................................................................"};
