/* XPM */
static char *j[] = {
/* columns rows colors chars-per-pixel */
"64 64 256 2 ",
"   c black",
".  c #0000A8",
"X  c #00A800",
"o  c #00A8A8",
"O  c #A80000",
"+  c #A800A8",
"@  c #A85400",
"#  c #4C4436",
"$  c gray33",
"%  c #5454FC",
"&  c #524A42",
"*  c #5E5246",
"=  c #736352",
"-  c #685D4C",
";  c #FCFC54",
":  c gray99",
">  c #ECECEC",
",  c gainsboro",
"<  c #D0D0D0",
"1  c #C0C0C0",
"2  c #B4B4B4",
"3  c gray66",
"4  c #989898",
"5  c gray55",
"6  c #7C7C7C",
"7  c gray44",
"8  c #646464",
"9  c gray33",
"0  c #484848",
"q  c gray22",
"w  c #2C2C2C",
"e  c #202020",
"r  c #FC0000",
"t  c #EC0000",
"y  c #E00000",
"u  c #D40000",
"i  c #C80000",
"p  c #BC0000",
"a  c #B00000",
"s  c #A40000",
"d  c #980000",
"f  c #880000",
"g  c #7C0000",
"h  c #700000",
"j  c #640000",
"k  c #580000",
"l  c #4C0000",
"z  c #400000",
"x  c #FCD8D8",
"c  c #FCB8B8",
"v  c #FC9C9C",
"b  c #FC7C7C",
"n  c #FC5C5C",
"m  c #FC4040",
"M  c #FC2020",
"N  c #FC0000",
"B  c #FCA85C",
"V  c #FC9840",
"C  c #FC8820",
"Z  c #FC7800",
"A  c #E46C00",
"S  c #CC6000",
"D  c #B45400",
"F  c #9C4C00",
"G  c #FCFCD8",
"H  c #FCFCB8",
"J  c #FCFC9C",
"K  c #FCFC7C",
"L  c #FCF85C",
"P  c #FCF440",
"I  c #FCF420",
"U  c #FCF400",
"Y  c #E4D800",
"T  c #CCC400",
"R  c #B4AC00",
"E  c #9C9C00",
"W  c #848400",
"Q  c #706C00",
"!  c #585400",
"~  c #404000",
"^  c #849C7B",
"/  c #738C6B",
"(  c #6B7B63",
")  c #637352",
"_  c #5A6B52",
"`  c #525A4A",
"'  c #4A5242",
"]  c #425239",
"[  c #394A39",
"{  c #313931",
"}  c #313929",
"|  c #293129",
" . c #293121",
".. c #212921",
"X. c #182118",
"o. c #181818",
"O. c #00FC00",
"+. c #00EC00",
"@. c #00E000",
"#. c #00D400",
"$. c #04C800",
"%. c #04BC00",
"&. c #04B000",
"*. c #04A400",
"=. c #049800",
"-. c #048800",
";. c #047C00",
":. c #047000",
">. c #046400",
",. c #045800",
"<. c #044C00",
"1. c #044000",
"2. c #C8BFB2",
"3. c #A89A85",
"4. c #9A8C77",
"5. c #7CFCF8",
"6. c #5CFCFC",
"7. c #40FCFC",
"8. c #20FCFC",
"9. c #00FCFC",
"0. c #00E4E4",
"q. c #00CCCC",
"w. c #00B4B4",
"e. c #009C9C",
"r. c #008484",
"t. c #007070",
"y. c #005858",
"u. c #004040",
"i. c #94846B",
"p. c #8C7B67",
"a. c #847B63",
"s. c #81735D",
"d. c #7B6B5A",
"f. c #007CCC",
"g. c #006CB4",
"h. c #005C9C",
"j. c #736B5A",
"k. c #736B52",
"l. c #9C9CFC",
"z. c #7C80FC",
"x. c #5C60FC",
"c. c #4040FC",
"v. c #2024FC",
"b. c #0004FC",
"n. c #0000FC",
"m. c #0000EC",
"M. c #0000E0",
"N. c #0000D4",
"B. c #0000C8",
"V. c #0000BC",
"C. c #0000B0",
"Z. c #0000A4",
"A. c #000098",
"S. c #000088",
"D. c #00007C",
"F. c #000070",
"G. c #000064",
"H. c #000058",
"J. c #00004C",
"K. c #000040",
"L. c #282828",
"P. c #FCE034",
"I. c #FCD424",
"U. c #FCCC18",
"Y. c #FCC008",
"T. c #FCB400",
"R. c #B420FC",
"E. c #A800FC",
"W. c #9800E4",
"Q. c #8000CC",
"!. c #7400B4",
"~. c #60009C",
"^. c #500084",
"/. c #440070",
"(. c #340058",
"). c #280040",
"_. c #FCD8FC",
"`. c #FCB8FC",
"'. c #FC9CFC",
"]. c #FC7CFC",
"[. c #FC5CFC",
"{. c #FC40FC",
"}. c #FC20FC",
"|. c #FC00FC",
" X c #E000E4",
".X c #C800CC",
"XX c #B400B4",
"oX c #9C009C",
"OX c #840084",
"+X c #6C0070",
"@X c #580058",
"#X c #400040",
"$X c #FCE8DC",
"%X c #FCE0D0",
"&X c #FCD8C4",
"*X c #FCD4BC",
"=X c #FCCCB0",
"-X c #FCC4A4",
";X c #FCBC9C",
":X c #FCB890",
">X c #FCB080",
",X c #FCA470",
"<X c #FC9C60",
"1X c #F0945C",
"2X c #E88C58",
"3X c #DC8854",
"4X c #D08050",
"5X c #C87C4C",
"6X c #BC7848",
"7X c #B47044",
"8X c #A86840",
"9X c #A0643C",
"0X c #9C6038",
"qX c #905C34",
"wX c #885830",
"eX c #80502C",
"rX c #744C28",
"tX c #6C4824",
"yX c #5C4020",
"uX c #543C1C",
"iX c #483818",
"pX c #403018",
"aX c #382C14",
"sX c #28200C",
"dX c #600064",
"fX c #006464",
"gX c #006060",
"hX c #00001C",
"jX c #00002C",
"kX c #302410",
"lX c #480048",
"zX c #500050",
"xX c #000034",
"cX c gray11",
"vX c #4C4C4C",
"bX c gray36",
"nX c gray25",
"mX c gray19",
"MX c #343434",
"NX c #2E2B22",
"BX c #B8E8E8",
"VX c #9CDCDC",
"CX c #74C8C8",
"ZX c #48C0C0",
"AX c #20B4B4",
"SX c #20B0B0",
"DX c #00A4A4",
"FX c #009898",
"GX c #008C8C",
"HX c #008484",
"JX c #007C7C",
"KX c #007878",
"LX c #007474",
"PX c #007070",
"IX c #006C6C",
"UX c #980088",
/* pixels */
"L.L.L.L.L.L.L.L.L.L.L.L.L.L.L.L.L.L.L.L.L.L.L.L.L.L.L.L.L.L.L.L.L.L.L.L.L.L.L.L.L.L.L.L.L.L.L.L.L.L.L.L.L.L.L.L.L.L.L.L.L.L.L.L.",
"2 2 2 2 2 2 2 2 2 2 2 2 2 8 cXL.L.2 2 2 2 2 2 2 2 2 2 2 2 2 2 2 2 2 2 2 2 2 2 2 2 2 2 2 2 8 cXL.L.2 2 2 2 2 2 2 2 2 2 2 2 2 2 2 ",
"7 5 7 6 8 6 7 6 5 7 6 8 $ 0   L.L.2 6 7 $ $ 8 7 6 7 6 6 6 7 7 7 6 6 5 6 7 6 6 8 8 6 3 6 6 0   L.L.2 5 7 5 6 6 6 6 6 5 6 4 6 8 7 ",
"7 6 5 5 6 6 5 5 7 8 6 7 8 0   L.L.2 8 7 7 6 $ 6 6 7 5 6 6 7 6 6 6 5 5 6 6 6 7 6 5 3 5 6 6 0   L.L.2 6 7 4 6 6 6 4 6 7 6 8 5 8 5 ",
"6 5 7 8 6 6 6 7 7 6 7 7 5 0   L.L.2 7 6 6 5 6 6 7 8 6 3 5 5 6 6 6 6 6 6 6 7 6 8 6 6 6 6 6 0   L.L.2 6 6 4 4 5 6 4 6 5 6 8 7 5 7 ",
"6 8 8 6 6 8 6 6 6 7 7 6 6 0   L.L.2 5 5 6 5 6 6 6 5 6 7 6 5 4 6 6 4 6 6 6 5 8 8 5 5 5 6 6 0   L.L.2 4 6 5 7 6 6 6 7 6 8 6 7 3 5 ",
"6 6 7 6 6 6 5 7 7 6 6 6 6 0   L.L.2 6 5 6 6 7 8 7 6 4 5 5 6 7 6 7 7 8 7 5 6 6 8 5 6 6 6 4 0   L.L.2 6 6 7 7 8 6 6 6 6 5 6 8 7 8 ",
"6 6 7 5 5 6 7 7 nXbX$ $ $ mX  L.L.6 6 $ $ $ $ 0 bXbXbX8 bX$ 0 nXnX$ $ bX0 8 nX$ bXnXnX8 $ mX  L.L.6 $ $ 7 7 5 5 6 6 8 8 5 8 5 7 ",
"0 0 0 0 0 0 nXq w L.e e e e   L.L.mXe e e e e e e e e e e e e e e e e e e e e e e e e e e e   L.L.mX..L.w MXnX0 0 vX0 0 0 0 0 0 ",
"                                                                                                                                ",
"e e e e e e o.o.  o.o.o.o.o.o.o.o.o.o.o.o.o.o.o.o.o.o.o.o.o.o.o.o.o.o.o.o.o.o.o.o.o.o.o.o.o.o.o.o.o.o.o.o.o.o.  e e e e e e e e ",
"L.2 2 2 2 2 6 $   o.o.o.o.o.o.! W W Q o.Q W W o.o.o.! E E W o.o.o.~ ! o.o.o.W W W W ! o.! ! ! ! o.o.o.o.Q ! o.  , , 2 2 2 8 cXL.",
"L.2 7 6 6 7 vXq   o.! ! ! o.Q W W W Q o.! W W W o.! E E E W ! o.E E E E o.o.W W W W ! o.! ! ! ! ! o.o.R R R o.  < 2 4 3 6 0   L.",
"L.2 8 7 6 6 vXMX  o.! ! ! o.Q W W W Q o.! W W W o.~ W E E E ~ ~ E E R E Q o.! W W W ! o.! ! ! ! ! o.~ R R R o.  < 2 4 5 8 0   L.",
"L.2 7 6 6 7 vXnX  o.! ! ~ o.Q W W W Q o.! W W W ~ o.W E E W o.! E R E E E ~ o.W W W ! o.! ! ! ! ! ~ ! R R R o.  , 3 4 6 6 0   L.",
"L.2 7 7 8 6 $ q   o.! ! o.o.o.o.o.o.o.o.o.o.o.o.o.o.o.o.o.o.o.o.o.o.o.o.o.o.o.o.o.o.o.o.o.o.o.o.o.o.! R R R o.  < 5 8 7 7 0   L.",
"L.2 7 8 5 7 $ q   o.o.o.o.o.o.o.k z   j j k j   o.~ ~ o.z j j k z     z l           z j j h j   o.o.~ R R W o.  < 1 4 6 6 0   L.",
"L.2 7 6 5 6 bXnX  o.o.o.Q W W o.k   z k j j j k o.R R o.z k g h k z       z       z     z z     o.o.o.o.~ o.o.  < 3 8 8 7 0   L.",
"L.2 5 5 6 6 $ mX  o.o.! W W W o.j   z j j j j k o.E R o.z   g h h     h k k l   l k k z       k o.! ! o.o.o.o.  2 5 5 6 5 0   L.",
"L.8 0 0 0 0 mXe   o.o.Q W W W o.      k j j j l o.E R o.l z k h l z l h k k l   l j k j l   l j o.! ! ! o.~ o.  8 8 0 0 0 0   L.",
"L.cX              o.o.o.W W W o.    z   z j j z o.R R o.g z   h     h j k j l   l k j k l   l k o.! ! ! o.~ o.                L.",
"L.e e e e e o.o.  o.o.o.~ W W o.z l k z         o.E Q o.l           z j k z     z l j k l   l j o.! ~ o.o.o.o.  L.L.e e e e e L.",
"2 2 2 2 2 2 6 $   o.W ~ o.o.o.o.l k j k l     z o.o.o.o.  z       z         z       z z       k o.o.o.o.o.o.o.  : > 2 2 2 2 2 2 ",
"8 8 8 6 6 8 0 mX  o.W W o.o.o.o.l j j j j l   k o.o.Q o.k k l   l k k z   z l k z     z z z     o.o.~ ! ! ! o.  2 4 3 5 6 6 7 8 ",
"7 7 6 8 7 5 0 q   o.W W ~ o.W o.l j j k j z z j o.! E o.k k l   l j k j o.o.o.o.o.o.o.o.o.o.o.o.o.~ ! ! ! ! o.  3 1 4 6 6 4 7 6 ",
"6 7 6 6 6 4 $ q   o.W W o.o.W o.  k k j k l   k o.~ E o.k j l   l k j k o.R W o.! Q ! o.! Q ! ! o.~ ! ! ! ! o.  < 1 7 6 7 7 7 6 ",
"5 4 7 6 5 5 $ MX  o.W W o.o.W o.    z         z o.Q W o.k z     z l j k o.R W o.Q Q ! o.! Q Q ! o.~ ! ! ! ! o.  3 4 5 5 5 7 7 5 ",
"6 5 7 6 5 6 $ q   o.W W o.~ W o.l       z z     o.o.o.o.    z       z z o.o.o.o.o.o.o.o.o.o.o.o.o.o.! ! ~ o.o.  2 3 7 6 7 6 6 4 ",
"6 4 7 7 7 6 0 MX  o.~ o.o.o.~ o.    z z z z       h       z l k z     z z z     z   z z       z o.o.o.o.o.o.o.  3 1 7 7 6 5 6 5 ",
"6 6 8 7 7 7 $ MX  o.o.o.o.! ~ o.  z h h h h z   h h j   l k k k z   j h j k z   z l h h j   k j o.! o.o.o.! o.  2 3 7 5 5 5 5 5 ",
"0 0 0 0 0 0 mXe   o.~ o.R R R o.z   h h h l   l h j k   l k k k z z l h h h k   k g h g j z l h o.Q ! o.~ ! o.  8 8 0 0 0 0 0 0 ",
"                  o.~ ~ R R R o.z   h h h     h h h k   l k k k l   k h h h k z j h g h j   k h o.Q ! o.~ ! o.                  ",
"e e e e e e o.o.  o.~ o.R R R o.    z j       z   l       z   z     k j j j z   j g h g j   k j o.Q ! o.~ ! o.  L.L.e e e e e e ",
"L.2 2 2 2 2 6 $   o.o.o.~ R R o.      z z l z z z z     z z             z           z l         o.! o.o.o.o.o.  : > 2 2 2 8 cXL.",
"L.2 7 6 6 8 nXmX  o.o.o.o.o.! o.k z     h g h h h z   j k k j l   z k k k l   z z z         z   o.o.o.o.~ o.o.  3 5 6 6 6 0   L.",
"L.2 7 6 7 6 $ MX  o.~ W W o.o.o.j k   l g g g g h z   j j j j l z k j h j k   l j j j l   l l l o.o.! W W W o.  2 1 3 5 6 0   L.",
"L.2 7 4 5 8 nXMX  o.W W W ! o.o.o.o.o.o.o.o.o.o.o.o.o.o.j j j l   k j h o.o.o.o.k j l   l j j j o.! W W W W o.  2 3 8 5 4 0   L.",
"L.2 6 5 6 6 nXq   o.W W W ! ~ E Y.Y.E o.! Q ! o.! W W o.k j j l   k h j o.W o.o.j k l   l j j j o.! W W W W o.  2 3 6 4 6 0   L.",
"L.2 6 6 6 6 nX0   o.W W W ! ~ R Y.Y.R o.! ! Q o.! W W o.z z       z j j o.W o.o.k j l   l j j j o.! W W W W o.  , 3 6 6 6 0   L.",
"L.2 6 6 5 7 $ nX  o.! ! ! ! o.o.o.o.o.o.o.o.o.o.o.o.o.o.      z z       o.! o.o.k z z     z z z o.o.! W W Q o.  2 4 6 7 7 0   L.",
"L.2 6 5 7 7 8 0   o.o.o.o.o.o.o.j   j z   z z       z     k j k k z     o.o.~ o.z   z z       z o.o.o.o.o.o.o.  3 5 6 6 4 0   L.",
"L.8 0 0 0 0 mXe   o.o.! W Q ! o.z z h j h       z k k l   k j j j l   k o.o.o.o.z l h h j   k j o.R Q o.o.o.o.  8 8 0 0 0 0   L.",
"L.cX              o.o.Q W W W o.z   h h h j   l k k k l   k j j j k   k o.! ~ o.k g h g j z l h o.E E W o.! o.                L.",
"L.e e e e e o.o.  o.o.W W W W o.  z h h h j   l j k j l   k j j j k   k o.W W o.j h g h j   k h o.R E W o.! o.  L.L.e e e e e L.",
"2 2 2 2 2 2 6 $   o.o.Q W W W o.  z h h h z     j k z       l j j z     o.W W o.j g h g j   k j o.E E W o.! o.  : > 2 2 2 2 2 2 ",
"6 5 4 4 5 7 bXq   o.o.Q W W W o.    z z z     z       z z   z   z     z o.W W o.    z l         o.E W o.o.o.o.  2 3 7 6 6 6 5 5 ",
"7 7 5 7 7 8 0 MX  o.o.o.o.~ o.o.z z         h       z l j j z     z j j o.W W o.z z         z   o.~ o.o.o.o.o.  < 1 7 7 7 6 7 7 ",
"6 6 6 8 5 $ 0 mX  o.~ o.o.o.o.o.h h h z   h h j   l k k j j j j   k h h o.o.o.o.j j j l   l l l o.o.o.Q W Q o.  < 1 5 7 7 6 6 7 ",
"5 7 7 6 6 8 $ L.  o.W W W o.o.o.o.o.o.o.o.o.o.o.o.o.o.o.o.o.o.o.o.o.o.o.o.o.o.o.o.o.o.o.o.o.o.o.o.o.! W W W o.  , 3 6 7 6 6 5 6 ",
"5 6 3 4 7 7 $ nX  o.W W W o.o.W W W o.o.W Q W Q W o.o.o.W R W o.! W W W W o.o.W W W Q o.o.W W W ! o.! W W W o.  < 3 6 6 6 5 7 6 ",
"6 5 4 $ 7 5 8 nX  o.W W Q o.~ W W W o.o.W Q W Q ! o.o.R E R W o.! W W W W ~ o.W W W W o.o.W W W ! o.! W W ! o.  < 3 6 6 6 7 7 6 ",
"5 6 7 8 7 5 vX0   o.W ! o.o.o.W W W ~ o.Q Q W Q o.o.W R E R W o.Q W W W W o.o.o.W W Q o.! W W W ! o.! ~ o.o.o.  2 3 6 5 6 6 5 6 ",
"0 0 0 0 0 0 q MX  o.o.o.o.o.o.o.W W ~ o.o.o.o.o.o.o.E R E R W o.! W W Q ~ o.o.o.o.~ o.o.o.W W W o.o.o.o.o.! o.  7 8 0 0 0 0 0 0 ",
"                  o.o.o.o.o.o.o.o.o.o.o.o.o.o.o.o.o.o.o.o.o.o.o.o.o.o.o.o.o.o.o.o.o.o.o.o.o.o.o.o.o.o.o.o.o.o.                  ",
"e e e e e e cXcX                                                                                                L...e e e e e e ",
"L.2 2 2 2 2 2 1 1 < , > : : : : : : : : : : : : : : : : : 4 cXL.L.: : : : : : : : : : : : : : : : : : : : : : : > , 2 2 2 8 cXL.",
"L.2 8 7 6 5 6 6 5 7 5 2 6 3 3 3 1 3 < 3 3 4 7 4 4 1 4 3 4 8   L.L.> 3 4 3 < 1 3 4 1 4 < 3 4 4 < 4 4 1 3 3 4 4 2 1 3 6 6 6 0   L.",
"L.2 6 6 8 6 $ 6 6 6 7 7 6 6 6 5 6 6 6 6 6 7 7 8 8 8 8 7 7 0   L.L.2 6 5 6 6 7 6 6 6 5 5 6 7 6 5 6 5 6 6 5 6 5 4 6 5 6 6 6 0   L.",
"L.2 6 8 7 6 $ 8 6 6 $ 6 6 5 5 6 8 6 7 6 7 $ 0 8 8 7 8 6 7 0   L.L.2 7 6 6 6 6 7 6 6 6 7 6 6 5 5 5 6 7 6 6 7 6 5 6 6 6 5 5 0   L.",
"L.2 7 7 6 6 6 4 4 8 7 5 6 5 5 6 5 7 7 7 7 8 8 7 8 7 $ 8 6 0   L.L.2 6 6 6 7 8 7 6 7 7 6 6 6 6 6 5 6 6 6 7 5 6 4 6 5 7 7 6 0   L.",
"L.2 6 8 6 7 6 6 7 8 6 6 6 5 5 7 6 $ 8 8 7 7 8 7 6 6 6 7 6 0   L.L.2 6 6 7 7 7 7 7 7 7 7 6 6 8 6 6 6 7 7 6 7 5 5 7 6 6 6 6 0   L.",
"L.2 7 6 2 5 6 6 6 7 4 7 8 5 8 q $ 8 7 7 5 6 6 7 6 6 7 7 6 0   L.L.2 6 5 $ 8 7 8 7 6 7 6 6 6 7 7 7 7 7 6 5 5 6 6 5 6 8 7 6 0   L.",
"L.8 0 0 0 0 0 0 0 0 0 0 0 0 0 0 0 0 0 0 0 0 0 0 0 0 0 0 0 0   L.L.8 0 0 0 0 0 0 0 0 0 0 0 0 0 0 0 0 0 0 0 0 0 0 0 0 0 0 0 0   L.",
"L.cX                                                          L.L.cX                                                          L."
};
