/* XPM */
static char *l[] = {
/* columns rows colors chars-per-pixel */
"64 64 256 2 ",
"   c black",
".  c #0000A8",
"X  c #00A800",
"o  c #00A8A8",
"O  c #A80000",
"+  c #A800A8",
"@  c #A85400",
"#  c #4C4436",
"$  c gray33",
"%  c #5454FC",
"&  c #524A42",
"*  c #5E5246",
"=  c #736352",
"-  c #685D4C",
";  c #FCFC54",
":  c gray99",
">  c #ECECEC",
",  c gainsboro",
"<  c #D0D0D0",
"1  c #C0C0C0",
"2  c #B4B4B4",
"3  c gray66",
"4  c #989898",
"5  c gray55",
"6  c #7C7C7C",
"7  c gray44",
"8  c #646464",
"9  c gray33",
"0  c #484848",
"q  c gray22",
"w  c #2C2C2C",
"e  c #202020",
"r  c #FC0000",
"t  c #EC0000",
"y  c #E00000",
"u  c #D40000",
"i  c #C80000",
"p  c #BC0000",
"a  c #B00000",
"s  c #A40000",
"d  c #980000",
"f  c #880000",
"g  c #7C0000",
"h  c #700000",
"j  c #640000",
"k  c #580000",
"l  c #4C0000",
"z  c #400000",
"x  c #FCD8D8",
"c  c #FCB8B8",
"v  c #FC9C9C",
"b  c #FC7C7C",
"n  c #FC5C5C",
"m  c #FC4040",
"M  c #FC2020",
"N  c #FC0000",
"B  c #FCA85C",
"V  c #FC9840",
"C  c #FC8820",
"Z  c #FC7800",
"A  c #E46C00",
"S  c #CC6000",
"D  c #B45400",
"F  c #9C4C00",
"G  c #FCFCD8",
"H  c #FCFCB8",
"J  c #FCFC9C",
"K  c #FCFC7C",
"L  c #FCF85C",
"P  c #FCF440",
"I  c #FCF420",
"U  c #FCF400",
"Y  c #E4D800",
"T  c #CCC400",
"R  c #B4AC00",
"E  c #9C9C00",
"W  c #848400",
"Q  c #706C00",
"!  c #585400",
"~  c #404000",
"^  c #849C7B",
"/  c #738C6B",
"(  c #6B7B63",
")  c #637352",
"_  c #5A6B52",
"`  c #525A4A",
"'  c #4A5242",
"]  c #425239",
"[  c #394A39",
"{  c #313931",
"}  c #313929",
"|  c #293129",
" . c #293121",
".. c #212921",
"X. c #182118",
"o. c #181818",
"O. c #00FC00",
"+. c #00EC00",
"@. c #00E000",
"#. c #00D400",
"$. c #04C800",
"%. c #04BC00",
"&. c #04B000",
"*. c #04A400",
"=. c #049800",
"-. c #048800",
";. c #047C00",
":. c #047000",
">. c #046400",
",. c #045800",
"<. c #044C00",
"1. c #044000",
"2. c #C8BFB2",
"3. c #A89A85",
"4. c #9A8C77",
"5. c #7CFCF8",
"6. c #5CFCFC",
"7. c #40FCFC",
"8. c #20FCFC",
"9. c #00FCFC",
"0. c #00E4E4",
"q. c #00CCCC",
"w. c #00B4B4",
"e. c #009C9C",
"r. c #008484",
"t. c #007070",
"y. c #005858",
"u. c #004040",
"i. c #94846B",
"p. c #8C7B67",
"a. c #847B63",
"s. c #81735D",
"d. c #7B6B5A",
"f. c #007CCC",
"g. c #006CB4",
"h. c #005C9C",
"j. c #736B5A",
"k. c #736B52",
"l. c #9C9CFC",
"z. c #7C80FC",
"x. c #5C60FC",
"c. c #4040FC",
"v. c #2024FC",
"b. c #0004FC",
"n. c #0000FC",
"m. c #0000EC",
"M. c #0000E0",
"N. c #0000D4",
"B. c #0000C8",
"V. c #0000BC",
"C. c #0000B0",
"Z. c #0000A4",
"A. c #000098",
"S. c #000088",
"D. c #00007C",
"F. c #000070",
"G. c #000064",
"H. c #000058",
"J. c #00004C",
"K. c #000040",
"L. c #282828",
"P. c #FCE034",
"I. c #FCD424",
"U. c #FCCC18",
"Y. c #FCC008",
"T. c #FCB400",
"R. c #B420FC",
"E. c #A800FC",
"W. c #9800E4",
"Q. c #8000CC",
"!. c #7400B4",
"~. c #60009C",
"^. c #500084",
"/. c #440070",
"(. c #340058",
"). c #280040",
"_. c #FCD8FC",
"`. c #FCB8FC",
"'. c #FC9CFC",
"]. c #FC7CFC",
"[. c #FC5CFC",
"{. c #FC40FC",
"}. c #FC20FC",
"|. c #FC00FC",
" X c #E000E4",
".X c #C800CC",
"XX c #B400B4",
"oX c #9C009C",
"OX c #840084",
"+X c #6C0070",
"@X c #580058",
"#X c #400040",
"$X c #FCE8DC",
"%X c #FCE0D0",
"&X c #FCD8C4",
"*X c #FCD4BC",
"=X c #FCCCB0",
"-X c #FCC4A4",
";X c #FCBC9C",
":X c #FCB890",
">X c #FCB080",
",X c #FCA470",
"<X c #FC9C60",
"1X c #F0945C",
"2X c #E88C58",
"3X c #DC8854",
"4X c #D08050",
"5X c #C87C4C",
"6X c #BC7848",
"7X c #B47044",
"8X c #A86840",
"9X c #A0643C",
"0X c #9C6038",
"qX c #905C34",
"wX c #885830",
"eX c #80502C",
"rX c #744C28",
"tX c #6C4824",
"yX c #5C4020",
"uX c #543C1C",
"iX c #483818",
"pX c #403018",
"aX c #382C14",
"sX c #28200C",
"dX c #600064",
"fX c #006464",
"gX c #006060",
"hX c #00001C",
"jX c #00002C",
"kX c #302410",
"lX c #480048",
"zX c #500050",
"xX c #000034",
"cX c gray11",
"vX c #4C4C4C",
"bX c gray36",
"nX c gray25",
"mX c gray19",
"MX c #343434",
"NX c #2E2B22",
"BX c #B8E8E8",
"VX c #9CDCDC",
"CX c #74C8C8",
"ZX c #48C0C0",
"AX c #20B4B4",
"SX c #20B0B0",
"DX c #00A4A4",
"FX c #009898",
"GX c #008C8C",
"HX c #008484",
"JX c #007C7C",
"KX c #007878",
"LX c #007474",
"PX c #007070",
"IX c #006C6C",
"UX c #980088",
/* pixels */
"eXeXrXtXtXuXyXyXtXyXeXtXtXeXwXyXeXtXyXyXyXyXrXyXuXyXtXyXyXyXyXuXyXuXuXtXyXeXyXtXyXyXtXrXyXyXyXiXyXuXyXuXyXuXyXtXeXyXrXtXyXyXeXuX",
"iXiXpXpXkXsXkXkXkXkXpXsXsXpXuXpXiXpXkXkXsXkXpXkXsXsXkXkXkXkXpXkXiXkXsXsXsXsXkXkXkXsXkXpXsXkXpXkXiXkXpXsXkXsXkXkXpXsXkXkXkXpXpXkX",
"sXsXsXsXsXsXsXsXsXsXsXsXsXsXsXsXsXsXsXsXsXsXsXsXsXsXsXsXsXsXsXsXsXsXsXsXsXsXsXsXsXsXsXsXsXsXsXsXsXsXsXsXsXsXsXsXsXsXsXsXsXsXsXsX",
"kXpXkXpX    3XY &X    Y Y Y Y Y Y Y Y Y Y Y Y Y Y Y Y Y Y Y Y Y Y Y Y Y Y Y Y Y Y Y Y Y Y Y Y Y Y Y Y Y Y     &XY 3XsX  kXkXiXiX",
"uXtXuXtXkX  D D Y iX      F F F F F F F F F F F F F F F F F F F F F F F F F F F F F F F F F F F F F F       iX3XD D sX  wXyXrXrX",
"uXtXuXtXkX  rXiXA sXg h h     cXcXcXcXcXcXcXcXcXcXcXcXcXcXcXcXcXcXcXcXcXcXcXcXcXcXcXcXcXcXcXcXcXcX    g h h pXD kXpXkX  wXyXrXtX",
"uXtXuXtXkX  wXuXrXuXg h h h j j bXk k k k j j j h h h g g g g h h h h j j j k k k k j j j h h 8 g g g g h h iXrXtXyXkX  wXtXrXtX",
"uXtXuXtXkX  wXuXrXuXg h h h j 0 4 7   k k j j j h h h g g g g h h h h j j j k k k k j j j cX6 3 8 g g g h h uXrXrXyXkX  wXrXrXyX",
"uXtXuXtXkX  wXuXrXuXg h h h j   4 5 7   k j j j h h h g g g g h h h h j j j k k k k j j   5 3 3 L.g g g h h uXrXrXtXkX  wXrXrXyX",
"uXtXuXtXkX  wXuXrXuXg h h h 0   L.5 5 5 cXj j j h h h g g g g h h h h j j j k k k k j e 4 3 3 MXe 8 g g h h uXrXrXrXkX  wXrXrXyX",
"uXtXuXtXkX  wXuXrXuXg h h h 7 4 0 e 5 5 5 L.j j h h h g g g g h h h h j j j k k k k L.4 4 3 MXbX2 5 g g h h uXrXrXrXkX  wXrXrXyX",
"uXtXuXtXkX  wXuXrXuXg h h cXL.4 4 6 nX7 5 4 0 j h h h g g g g h h h h j j j k k k nX4 4 7 bX4 3 2 0 L.g h h uXrXrXrXkX  wXrXtXuX",
"uXtXuXtXkX  wXuXrXuXg h h 6 7 0 5 5 5 7 vX4 4 7 cXh h g g g g h h h h j j j k   7 5 4 bX6 3 3 4 8 5 5 g h h uXrXrXrXkX  wXrXtXuX",
"uXtXuXtXkX  wXuXrXuXg h h bX4 4 5 7 7 5 5 5 4 4 3 MXh g g g g h h h h j j j e 5 5 5 5 4 4 6 6 4 2 2 8 g h h uXrXrXrXkX  wXrXtXuX",
"uXtXuXtXkX  wXuXrXuXg h 8 MX0 4 4 5 5 7 nX4 4 4 3 3 6 g g g g h h h h j j 7 5 5 5 5 4 0 7 3 3 3 2 8 0 7 h h uXyXrXrXkX  wXrXyXuX",
"uXtXuXtXkX  wXuXrXuXg h 3 3 4 7 7 bX7 5 5 4 4 4 3 3 3 7 g g g MXbXbXe j bX4 5 5 5 5 4 4 4 5 7 6 5 2 2 2 h h pXuXyXrXkX  wXrXyXuX",
"uXtXuXtXkX  wXuXrXuXg h e 6 4 4 4 5 6 vXnX4 4 4 3 3 3 5 g g 7 3 3 3 6 j 7 4 5 5 5 5 4 0 bX4 3 3 2 2 5 mXh h pXuXyXtXkX  wXrXyXuX",
"yXtXuXtXkX  wXuXrXuXg h 8 vXL.0 7 6 5 5 5 4 4 4 3 3 3 0 g mX2 3 3 8 h j L.4 5 5 5 5 4 4 4 3 4 6 8 0 bX7 h h pXuXuXyXkX  wXrXyXuX",
"yXtXuXtXkX  wXuXrXuXg h 3 3 4 4 5 7 vXnX7 4 4 4 3 3 5 g g bX2 3 3 vXh j j 6 5 5 5 5 4 7 0 8 6 4 2 2 2 2 h h kXuXuXyXkX  wXtXuXuX",
"yXtXuXtXkX  wXuXrXuXg h e 6 5 5 5 6 7 7 nX4 4 4 3 3 bXg g 8 2 3 3 vXh j j 0 5 5 5 5 4 0 7 6 4 4 3 3 5 mXh h kXuXuXuXkX  wXtXuXuX",
"yXtXuXtXkX  wXuXrXuXg h 8 bXbX7 5 5 5 5 5 4 4 4 3 3 3 mXmX2 2 3 3 3 e j cX4 5 5 5 5 4 4 4 3 3 4 5 7 8 7 h h kXuXuXuXkX  wXyXuXuX",
"yXtXuXtXkX  wXuXrXuXg h 6 3 4 4 4 6 7 vX7 4 4 4 3 3 3 2 2 2 4 L.4 3 3 4 4 4 5 5 5 5 4 7 bX6 4 3 2 2 2 5 h h kXuXuXuXkX  wXyXuXuX",
"yXyXuXtXkX  wXuXrXuXg h h MXbX0 0 nXbX6 5 4 4 4 3 3 3 2 2 3 e 8 5 5 3 4 4 4 5 5 5 5 4 4 5 7 bXbX8 7 0 g h h kXuXuXuXkX  wXyXuXuX",
"tXyXuXtXkX  wXuXrXuXg h h e 7 4 4 5 5 7 cX7 4 4 3 3 3 2 4 4 e vXcXcX5 4 4 4 5 5 5 5 7 e 7 3 3 3 2 5 mXg h h kXuXuXuXkX  wXuXuXuX",
"tXyXuXtXkX  wXuXrXuXg h h h 0 6 6 vXe nX6 4 4 4 3 3 3 2 e 7 bXcXvX8 e 4 4 4 5 5 5 5 4 5 0 MX8 5 4 8 g g h h kXuXuXuXkX  wXuXuXuX",
"rXuXuXtXkX  wXuXrXuXg h h h j j   vX5 5 5 bX4 5 5 6 vX2 4 e e vXe 5 5 4 4 nX7 7 6 5 bX4 4 3 8 cXg g g g h h kXuXuXuXkX  wXuXuXyX",
"rXuXuXtXkX  wXuXrXuXg h h h j j 7 5 7 nX7 4 5     MX6 2 2 4 4 8 cX5 3 4 4 7 e     6 4 7 0 5 3 6 g g g g h h kXyXyXuXkX  wXuXuXyX",
"rXuXuXtXkX  wXuXrXuXg h h h j j j k cX6 5 6 cX  mX3 3 2 2 2 4 cX5 3 3 4 4 4 5 cX    6 4 5 mXh h g g g g h h pXyXyXyXkX  wXuXuXyX",
"rXuXuXtXkX  wXuXrXuXg h h h j j j   7 6 vXbX    5 3 3 2 2 5 2 3 3 3 4 4 4 4 5 7     bXbX5 6 cXh g g g g h h pXtXtXyXkX  wXuXuXtX",
"rXuXuXtXkX  wXuXrXuXg h h h j j j k k k e 4 L.  3 3 3 2 2 0 2 3 3 8 cX4 4 4 5 5   e 4 L.j h h h g g g g h h pXrXrXyXkX  wXuXuXtX",
"tXuXyXtXkX  wXuXrXuXg h h h j j j k nX5 MX7 bX  5 3 3 2 4 0 2 3 3 5   6 4 4 5 7   vX7 nX4 bXh h g g g g h h iXrXrXyXkX  wXuXyXrX",
"tXuXyXtXkX  wXuXrXuXg h h h j j j   5 5 5 bX6   cXbX3 2 nX7 2 3 3 3 cXL.4 4 nX    7 bX4 4 3 e h g g g g h h iXrXrXtXkX  wXuXyXrX",
"yXuXyXtXkX  wXuXrXyXg h h h j j j k k MXe 6 4 4 4 3 3 0 g 4 2 3 3 3 MXj L.4 5 6 5 5 6 L.nXh h h g g g g h h uXrXrXtXkX  wXyXyXrX",
"yXuXyXtXkX  wXuXrXyXg h h h j j j k   6 5 7 7 4 MXMXh g g 3 2 3 3 3 bXj j j e e 5 7 7 4 5 e h h g g g g h h uXrXrXrXkX  wXyXrXrX",
"yXuXyXtXkX  wXuXrXyXg h h h j j j k   6 7 j L.4 bXh h g g 7 2 3 3 5 MXj j j k nX5 e j 7 5 cXh h g g g g h h uXrXrXrXkX  wXyXrXrX",
"uXuXtXtXkX  wXuXrXyXg h h h j j j k k k k j j 0 h h h g g g nX8 mXh h j j j k k nXk j j j h h h g g g g h h uXrXrXrXkX  wXrXrXrX",
"uXuXtXtXkX  wXuXrXyXg h h h j j j k k k k j j j h h h g g g g h h h h j j j k k k k j j j h h h g g g g h h uXrXrXrXkX  wXrXrXtX",
"uXuXrXtXkX  wXuX&XyXg h h     cXcXcXcXcXcXcXcXcXcXcXcXcXcXcXcXcXcXcXcXcXcXcXcXcXcXcXcXcXcXcXcXcXcX    g h h uX&XyXrXkX  wXrXrXtX",
"uXuXrXtXkX  3XY &X3X      Y Y Y Y Y Y Y Y Y Y Y Y Y Y Y Y Y Y Y Y Y Y Y Y Y Y Y Y Y Y Y Y Y Y Y Y Y Y       Y &XY 3XkX  wXrXrXyX",
"uXuXrXyXkX  D D Y     F F F F F F F F F F F F F F F F F F F F F F F F F F F F F F F F F F F F F F F F F F     3XD D sX  wXrXrXyX",
"yXyXyXyXuXyXuXuXtXyXeXyXtXyXyXtXrXyXyXyXiXyXuXyXuXyXuXyXtXeXyXrXtXyXyXeXuXeXeXrXtXtXuXyXyXtXyXeXtXtXeXwXyXeXtXyXyXyXyXrXyXuXyXtX",
"kXkXkXpXkXiXkXsXsXsXsXkXkXkXsXkXpXsXkXpXkXiXkXpXsXkXsXkXkXpXsXkXkXkXpXpXkXiXiXpXpXkXsXkXkXkXkXpXsXsXpXuXpXiXpXkXkXsXkXpXkXsXsXkX",
"sXsXsXsXsXsXsXsXsXsXsXsXsXsXsXsXsXsXsXsXsXsXsXsXsXsXsXsXsXsXsXsXsXsXsXsXsXsXsXsXsXsXsXsXsXsXsXsXsXsXsXsXsXsXsXsXsXsXsXsXsXsXsXsX",
"e e e e e e e e e e e e e e e e e e e e e e e e e e e e e e e e e e e e e e e e e e e e e e e e e e e e e e e e e e e e e e e e ",
"= = = = = = = = = = & # # # cXL.L.# # # & = = = = = = = = = = = = = = = = = = = = = & # # # cXL.L.# # # & = = = = = = = = = = = ",
"* & # & * * # # # # # & # NX  L.L.MX* * & & * = * = * # # * * & & & = = * = d.= * & * * * NX  L.L.MX= * = = d.= = i.d.d.= d.i.= ",
"& & # # # & # # # = & # & NX  L.L.MX* = * * * * * & * & # & * * * * * = = = * & # # # & & NX  L.L.MX* * = d.i.d.d.d.* d.= = = d.",
"= & & # * # * * & * = * # NX  L.L.MX= * = * = = d.* & & # # # * = & = * = = = = * # & # & NX  L.L.MX* = * i.i.i.= d.d.= = * = = ",
"= & = * # & * & * & = * & NX  L.L.MX= * = * d.= = = & & # # MX= = = * * * = = * d.= & MX& NX  L.L.MX= = = i.i.i.i.= = = = * = * ",
"* * * # # & & * * & * * = NX  L.L.MX= d.= * = * * * * * # & # # & & * & * * = * * * * & # NX  L.L.MXd.d.d.= i.i.i.= * = = * * = ",
"* = * & # # & & = * * = i.NX  L.L.MXd.= * * & * = * * # # # NXMXMX* & * & = d.d.* = * * # NX  L.L.MX= = d.= = d.d.i.d.* * * = * ",
"& & = = = d.* * d.d.= = = NX  L.L.MX* = = * * * & * * & # & & # # # MX* * * = d.d.= = = = NX  L.L.MX= & * = * d.i.d.d.= * = * = ",
"          o.o.o.o.o.X.NXNXNX  L.L.NXNXNXX.o.o.o.o.                        o.o.o.o.o.X.NXNXNX  L.L.NXNXNXX.o.o.o.o.              ",
"                              L.L.cX                                                          L.L.cX                            ",
"e e e e e e e e e e e e e e e L.L.e e e e e e e e e e e e e e e e e e e e e e e e e e e e e e L.L.e e e e e e e e e e e e e e e ",
"L.# # # & = = = = = = = = = = = = = = = = = = = = = & # # # cXL.L.# # # & = = = = = = = = = = = = = = = = = = = = = & # # # cXL.",
"L.MX* * = * = = d.= = = d.= * * = = = * # # & # * * * = = NX  L.L.MX= * = & * * * d.d.d.= d.= * * = = * * * & # * = = * d.NX  L.",
"L.MX* * * = & d.d.i.i.d.* & * * * = * = * # & * * = * d.= NX  L.L.MX# * & & & * * * d.= d.= = = * = & * * * & & & & * = d.NX  L.",
"L.MX& # & = * d.d.d.d.d.* = & # & * & * = & # = = = * d.= NX  L.L.MX# * * & * & * & = * = = * * * & # & & & * & = * * = * NX  L.",
"L.MX# MX& # d.= d.d.i.d.* & # & # * * * * = & * = = d.d.* NX  L.L.MX* * & & # # # # * * = = * & & MX* # * = * * = = * = = NX  L.",
"L.MX& # & * * = = d.d.i.= * & MX# & & = * = * * = = = = * NX  L.L.MX# & * & # # # # # # = * = * & # & & # = = = d.d.* & # NX  L.",
"L.MX& # # & * * = = * = * * * & # & & = * = = * * = * = = NX  L.L.MX& # # # & MX# & # # * & = = * * # * & * d.= = * = = # NX  L.",
"L.NXNXNXX.o.o.o.o.                        o.o.o.o.o.X.NXNXNX  L.L.NXNXNXX.o.o.o.o.                        o.o.o.o.o.X.NXNXNX  L.",
"L.cX                                                          L.L.cX                                                          L."
};
