/* XPM */
static char * 0_xpm[] = {
"64 64 201 2",
"  	c None",
". 	c #000006",
"+ 	c #000014",
"@ 	c #000036",
"# 	c #000052",
"$ 	c #000064",
"% 	c #000069",
"& 	c #00005F",
"* 	c #000065",
"= 	c #000070",
"- 	c #00004E",
"; 	c #00007C",
"> 	c #000076",
", 	c #000072",
"' 	c #00006F",
") 	c #00005D",
"! 	c #000059",
"~ 	c #000061",
"{ 	c #000042",
"] 	c #000060",
"^ 	c #000053",
"/ 	c #00005B",
"( 	c #000050",
"_ 	c #000028",
": 	c #00003A",
"< 	c #00003B",
"[ 	c #00002C",
"} 	c #00001E",
"| 	c #000004",
"1 	c #00002A",
"2 	c #000041",
"3 	c #00003F",
"4 	c #00004D",
"5 	c #000040",
"6 	c #000043",
"7 	c #000045",
"8 	c #000022",
"9 	c #00000E",
"0 	c #00000B",
"a 	c #000038",
"b 	c #00004A",
"c 	c #000051",
"d 	c #000046",
"e 	c #000019",
"f 	c #00000A",
"g 	c #000068",
"h 	c #000049",
"i 	c #000000",
"j 	c #000030",
"k 	c #000062",
"l 	c #00006D",
"m 	c #00006B",
"n 	c #00005A",
"o 	c #00005C",
"p 	c #00007A",
"q 	c #00007E",
"r 	c #00003C",
"s 	c #000047",
"t 	c #00002F",
"u 	c #000018",
"v 	c #00002B",
"w 	c #00002E",
"x 	c #00004B",
"y 	c #0000B3",
"z 	c #0000BA",
"A 	c #0000A2",
"B 	c #00008F",
"C 	c #000080",
"D 	c #000091",
"E 	c #000063",
"F 	c #000055",
"G 	c #00001B",
"H 	c #000054",
"I 	c #000073",
"J 	c #00007B",
"K 	c #000079",
"L 	c #000074",
"M 	c #000089",
"N 	c #00009A",
"O 	c #0000B0",
"P 	c #00007F",
"Q 	c #000086",
"R 	c #00004F",
"S 	c #000071",
"T 	c #00006C",
"U 	c #00005E",
"V 	c #00006A",
"W 	c #000057",
"X 	c #00003E",
"Y 	c #000048",
"Z 	c #000035",
"` 	c #0000C3",
" .	c #0000BD",
"..	c #000075",
"+.	c #000039",
"@.	c #000015",
"#.	c #000092",
"$.	c #000083",
"%.	c #000085",
"&.	c #00008D",
"*.	c #0000A3",
"=.	c #00008E",
"-.	c #000026",
";.	c #000095",
">.	c #000078",
",.	c #000044",
"'.	c #000066",
").	c #000056",
"!.	c #000016",
"~.	c #000081",
"{.	c #000093",
"].	c #000090",
"^.	c #000087",
"/.	c #00008B",
"(.	c #00009D",
"_.	c #000096",
":.	c #0000A0",
"<.	c #000084",
"[.	c #00007D",
"}.	c #000077",
"|.	c #00004C",
"1.	c #00001C",
"2.	c #000067",
"3.	c #000017",
"4.	c #000088",
"5.	c #000021",
"6.	c #00006E",
"7.	c #000058",
"8.	c #000032",
"9.	c #000023",
"0.	c #000082",
"a.	c #0000AF",
"b.	c #0000C0",
"c.	c #00001A",
"d.	c #00008C",
"e.	c #0000A6",
"f.	c #000024",
"g.	c #000098",
"h.	c #000037",
"i.	c #000027",
"j.	c #00002D",
"k.	c #00003D",
"l.	c #000033",
"m.	c #000031",
"n.	c #00009F",
"o.	c #000001",
"p.	c #000003",
"q.	c #000097",
"r.	c #000034",
"s.	c #0000A9",
"t.	c #00001D",
"u.	c #00008A",
"v.	c #000013",
"w.	c #000025",
"x.	c #0000CB",
"y.	c #000020",
"z.	c #0000B8",
"A.	c #000099",
"B.	c #00001F",
"C.	c #000012",
"D.	c #000029",
"E.	c #000005",
"F.	c #000011",
"G.	c #000002",
"H.	c #000010",
"I.	c #00000D",
"J.	c #00009C",
"K.	c #0000B5",
"L.	c #0000A8",
"M.	c #0000B1",
"N.	c #00000C",
"O.	c #0000C7",
"P.	c #0000DB",
"Q.	c #0000AE",
"R.	c #00009B",
"S.	c #000094",
"T.	c #0000D2",
"U.	c #0000DA",
"V.	c #0000AB",
"W.	c #0000BE",
"X.	c #0000A5",
"Y.	c #0000A1",
"Z.	c #0000A4",
"`.	c #0000AC",
" +	c #0000D4",
".+	c #0000C1",
"++	c #000007",
"@+	c #000009",
"#+	c #0000AA",
"$+	c #0000B2",
"%+	c #0000BC",
"&+	c #0000B7",
"*+	c #0000B4",
"=+	c #00009E",
"-+	c #00000F",
";+	c #0000CA",
">+	c #0000AD",
",+	c #0000C6",
"'+	c #000008",
")+	c #0000A7",
"!+	c #0000B9",
". + @ # $ % & * = - ; > , ' & ) ! * ~ { ] ^ / ( _ : < [ } | 1 2 3 4 5 5 { 5 6 7 2 7 8 9 0 a 6 b # c c c # ^ { d e f ! g ! h h f ",
"i j k ] l m m n o ^ g & p # q ! - ( b r - # ) s { t u v w i x y z A B C q D E - F b G i i H , I = J K p L J M g _ i N O P Q R i ",
"i x S S T I % U 6 3 k V p & M W x 6 @ < X Y - 4 @ a v < Z i ^ `  ...U T % = C / W +.@.i i # #.q D L $.%.&.A *.=.-.i M ;.>.E b i ",
"i 2 S J ) k ~ ^ H ,.C '.'.& '.~ W d Z : b s 4 h 4 )._ !.t i h ~.{.].g U ^ b +.d Z 6 @.i i ^ q ^./.I (._.K :.J P _ i p = <.g _ i ",
"i h p ~.> [.% }.# / C ) U & n o H h d r '.) |.^ Y x 7 ,.1.i { $ ].; 2.F h R +.,.5 v 3.i i # B ^.4.{.%.D q = K 2.5.i H ! g 6 j i ",
"i ( % 6./ H T # ! J $ 7.W - - ( b 1 3 j $ }.# 4 / W U Z j i d '.$ k m 7.Y 8.F Y j 9.u i i # ].%.D 0.a.b./.>.g 2._ i V R ( @ j i ",
"i c * E ! ) '.g # J n / ,.X ).|.- c.1 U 6., # S ~ x 6 - [ i 5 }.k L ! h x Y X ! 8.r !.i i ^ $.D d.=./.e.C >...# 8 i b d ^ f.-.i ",
"i c 2.k ~ T $ ..6.) ^ - d Y : < 7 8.X L H E = g.p b h.i.j.i b U c U U s c k.j d w f.3.i i ^ $./.;.Q (.].<.L K * _ i j l.8.t u i ",
"i +.R |.& n 6.V ~.'.b 7.@ d < m.Z : Y $.~.c L P ] b d +.Z i Y U n ).8.] ,.X : 3 2 c.5.i i ^ q n.>.g.A d.P >.S 6.j i o.i i i p.i ",
"i v ,.2.^ %.q.~.6.g ! 3 { n h 6 m.m.o S }.] 4 c W H ] f.@ i - }.o ,.s b h Y r.f.9.-.3.i i ^ C =.P D M }...W n W 1 i f.s.n.Q t.i ",
"i j.7 h = 0.u.~.p l U d { ^ s < 5 w W >.' I W o o 7.v.|.v i 4 , T 3 { X < t k.j c.w.3.i i ^ ~.q > ..I V /.g.P E 1 i A x.J > 6 i ",
"i 9.- ~ 7.>...E & ' R 6 h 9.6 8.@ -.# / = $ 2 k * 8.1 a w i r.k k.,.3 r.6 1 w y.2 9.u i i ^ ; K [.o ; l Q &.=./ c.i {.z.'.) v i ",
"i @.+.,.% k U k * g S h.< < l.} Z [ ).2.) > ( o 2 -.x 8.} i r.h.- @ { t i.1.[ < @ w.u i i ^ K , l I J , 2.S '.8.@.i A.p 2.3 f.i ",
"i . -.: # & ,.^ l / s ,.h.B.j.1._ 1 j E = h b * r.d j f.C.i w |.m.j D.+ w 1.t t j.-.!.i i ^ C ..T ! l ( ( ~ 5 c.!.i }.! x m.+.i ",
"i i E.!.j.v [ v 1 v j.y.@.F.f.@.t.8 y.1 1 [ [ 1 j.[ i.C.G.i 9 o.3.E.E.| H.E.| p.E.| G.i i Y D K $.'.% H U +.t { !.i @.b '.< I.i ",
"i i i i i i i i o.o.o.o.o.i i i i i i i i i i i i i i i i i i i i i i i i i i i i i i i i h &.~.C n H '.Y Y !.< @.i i i i i i i ",
"F ).).F V K [.K q.~.l > I ] 9.i i i i i i i i i i i i i i i i i i i i i i i i i i i i i i h $.=./.= / ,.x R k.-.!.G.w T = S g ) ",
"p L >.<.; B P J.K.L.* 3 |.4 [ i i | w.8.6 a 2 5 x 6 m.r.t.} !.u E.i i + : ).%.P M 2.H H.i h {.^.J ~ ).( +.R < w + p.g q a.M.^.p ",
"4.].J.:.>.P V ; ;.[.= ) k.t -.i i [ - E g * ] ' ) # ) 4 D.Z w t B.i i : W r x ,.@ W s 1.i b &.&.p 2.= k Y b < e } N.Q 4.O.P.Q.; ",
"R.Q M ^.^.$.K ! & ) ) H X a -.i i ! ~ E S 6./ T b # ) Y k.9.} 8 w i i Y o 1 u h.w 3 Z t i 2 S.4.; % 6.o R x _ 1 t.G k /.T.U.V.(.",
";.0.%.= _.P 2.m ' S S 7 ,.Y D.i E.% / ; 6., o / k.Y - c : j.f.r Z i i / ( Z _ 9.1 3.r e i 2 &...%.E % o R 3 _ : + } $ D s.M.P q ",
"W.X.0.% /.J }.S 4.E $ : Z _ w i | U S = * E H & d s 4 Y - F v t.v i i < s t 5.w w l.l.v i +.u.~.k 2.I ] F k.[ G !.t.^.q S.P A.= ",
"Y.q.}.p C _.%...$ ' ! r.< m.1 i N.) 0.$.T }.$ g $ ) |.^ b ; U 1 } i i v.f.w w j Z -.w H.i : d...E ] S ^ 5 1 t.1.!.} [.&.C %.&.= ",
"B &.}.>.M <.<.m , L o -.2 8 v i 1.o T % ! W g ( E }.# 4 n k U < t i i o.i i i i i G.i i i +.P % ,.) b h t +.e r + } <.M <.A #.u.",
"g.B L % [.&.{.; C > Y r B.B.t i G * = / ] 2.n 7.= , W = ~ b s 4 [ i = ].A Z.#.M C l ( i i b p % 7.c c ^ l.r.t R C.B.0.q A.e.u.(.",
"K [.~ n > [.P K % H s Z G 1.1 i 1.^ '.k U T V C H k L Y.> ^ @ i.j.o.4.A.` `.0.( 6 F Y E.i h ~.J $ ] - ,.h - D.l.+ B.u.{.=._.J.q ",
"L ..g.d.g % 6.$ o & 8.} i.I.j i N.R ( R / 2.^ &.~.c L K ] b d +.Z i Q Q M S...'.|.h.8.. i # D , /., # - Z i.i.v } B.~.A.V.%.S.l ",
"L %.=.u.! / : ( - x 5 w 9.r.m.i | Y x $ S #.4.S }.] 4 # W ).- w @ i Q T s k '.- - @ r . i # %.'...* ( k.,.k.1 +.v.5.> L. +.+d.~.",
"* , '.' n ~ b d ! |.{ c D.1 m.i E.h ,.7.P /.~.>.' I W o o ( 3.6 [ o.~.P $ > I ! @ / k.E.i # %.E '.^ 4 d { r -.9.B.5.= R.A _.A l ",
") c ~ |.F E ^ R : d Y H h.l.-.i i x ^ 6.E g }./ = $ 2 k * r.1 : -.i [.].K p T x : i.r E.i # M I 7./ ^ Y b 2 -.1.@.5.g #.^.4.q ~.",
") x - |.).) ] % U b R x x @ -.i i [ Y - ' / E 2.) > ( o 2 i.x h.} i [.2.m V F c j { a E.i # ^.K U ).k k.,.6 l.G !.5.m ; S.J S S ",
"x ] ] R n ( L C b ) U # H 6 j.i i !.v s U ^ 6 E = h x / h d Z B.C.G.' ^ U [.I a R j j E.i # 4...E h # 7 x - ,._ + 5.V C 4.M J $ ",
"T '.W % g 6.& * % {., 2 5 a j.i i G.f w.[ v [ 1 1 [ [ v v _ 9.C.G.G.'.o > B H 2 w -.Z E.i # %.6.R 2.] Y x ( 5 y.!.5.V ..0.$., R ",
"h o l.R n d.$ 7.> ^.S ! 3 j m.i i i o.i i i i i o.o.o.G.G.G.G.o.i G.' = T ] o 8.9.1.m.E.i # ~.% # s 7 R r.d t t.!.t.T L ~.> $ c ",
"s m d 6 m.= ~.7.7.m # c ^ t Z i i o.j.u.I % 6.$...o ( ).2 { 6 i.p.p.'.R k '.3 w.w.} w E.i # }.2.F 5 7 - r d Z [ @.u ! J p J & k ",
"7.s * c ) ^.' ' 7.h $ - h.a m.i i | k.<.R L p C [.g K R b $ ^ 8.++p.2.- W 3 { i.1.G 9.. i # }.o Y ( : +.a |.t [ @.N.4 T n '.k c ",
"Y % ] 6 H ] L # s % ] 6 8 2 [ G.i | W ~ $ n W l $ g ! c Y ^ |.B.++p.~ o Y @ t G Z e } . i # >.m / < 8 7 j m.v i.c.E.R ! 4 b b ^ ",
"F $ ( j Y o E J F $ ( j +.: w.i i | r 6.m % * '.6.4 +.8.@ R _ y.. p.o >.! # D.G [ G 8.E.i # = * s d - +._ f.m.l.@.E.|.o W b 4 - ",
"s ! +.r.Y T V * d ! +.r.2 1 G i i | F ) Y & Y 4 ] : x u r.{ 5 5.. | m $ o 3 : D._ 8.j . i # q c : 4 Z j 3.h.H j + i @ l m g s 7.",
"5 c +.6 k.R R 5 2 c +.6 v B.f i i | h.l d l 7 c Z n w.D.w.j.v.w f G.'.>.5 ~ X j.j.e w . i Y ; R < j -.} i.+.b t @.i @.c R 5 2 ( ",
". . . . . . . . . . . . . o.i i i o.9.9.f.8 w.f.w.9.i.-.-.i._ y.G.| '.7.{ |.y.+.G 9 : E.i h $ 3 H.G f 0 + y.3 8 !.i i p.i G.E.. ",
"i i i p.8 [ [ [ v v [ [ [ j.j.j.j.w j.j.t } 1.u i i i i i i i i i p.) n 7.h.j.8.!.C.t . i X 7.G 0 I.I.I.I.@+t.C.3.i i a 0.{ H.i ",
"i i n (.#+$+$+M.%+&+K.*+Q.=+J.B #.~.~.0.S >.& s j o.i i G.G.G.i i p.g H |.3 j [ !.3.-.E.i C.2 j.v f.w.w.f.j f.j -+i i W 2.Y 9.i ",
"i i #.b.;+&+>+`.&.R.q M K ..K d.' ' ~.0.V ! H l.c.. o.1 m H W l.i ++4 2 l.h.B.-.v.C.9.++i i o.E.. E.. . . . . ++i i i 0 8 8 !.i ",
"i i B O.,+`.J.B ~.~.d.}.p Q $.P ; 0., ~ ) ) / < 1.. E.x *.> * - p.i G _ _ e } F.u 1.f.i i i i 9 1.i.v v v v v v v v w.} !.p.i i ",
"i i Y.O.&+e.s.d.P P J ' D *.d.%./ ' / W & 7.k.a B.. E.Z S p T 3 | i C.t.i.l.{ h.9.m.'+i i i n.:.)+&+K.&+&+`.!+Q.)+L.g.u.0.C r i ",
"i i Y.*+>+:.#+%.; C C = =.A ].C S ] E ) & h +.8.C.. | ,.q = * r.| i i i i i i i i i i i i C.Z./.n.V.`.u.M B u.m p V 4.4.D V a i ",
"i i Y.M.Z.]._.Q %.6.Q >.> M D K &...).! / 4 r.k.v.. | r l ] |.8 E.i u.q.p u...% x R s 9.p.H.L.Y.!+` #.g.q.l E & W ! l Q V h.r i ",
"i i Y.;.:._.].[.q L L ..C ^.S ].p }.'./ ).7.h.|.F.. E.5.4 6 X y.E.i Q.d.; , & ).- a 6 1.H.-+)+R.N q.L.Q /.Q ! - 7.( b k @ h l.i ",
"i i *.;.=.g.B &.B I % 7.~ ..<.=.M P o 7.R F l.@ + . o.l.j < 8.w.G.i Q ].) m 7.- 5 d [ } -+-+s.].)+M 0.Z.,+p W U Y 6.' R d d w.i ",
"i i Z.= D q.(.A N C o c n m ; /.d.' ! - d X r s 0 . i o.p.G.p.o.i i W 4 a ( E E n m.l.@.N.-+:.Q :._.*.=.] ! V 4 R b X ^ 7.j } i ",
"i i *.<.S.;.M.;+#+u.W / h 7.I , q }.|.c 3 X 1 _ 9 . i i i i i i i i i i i F.B.8 3.i G.. i -+#+p <.N ;.B J ~ 4 ~ 7 E 6 c 2 [ } i ",
"i i *.J A.g.V.>+s.(.S ] U W c $ ! ^ s r 1 B.w.w.9 . i m $.C ^.<.0.>.>.V g & k L ( Y r D.i -+#+p ; 7.}.u.6.o b x 7 h h +.r.F.5.i ",
"i i Z.C B N X.#+>+<.K V E ,.a w k.8.i.9.1.t.C.i.9 . i P M q._...F = _.4.V 4 n |.X Z r.!.i -+s.>.^.~.M 2.* n 5 H d Y R j +.!.3.i ",
"i i L., q.B _.R.^.I K m n 5 Z 1 1 _ _ D.f.m.l.u 9 . i 0.g.#.;.I '.>.`.;., c 6 j ,.@ f.I.i -+s.;...' K |.l.n X ,.1 7 ( w _ B.t.i ",
"i i #+&.[.$.; [.m g }.$ 7.H s l.t G < 9.5.B.w.9.9 . i /.;.&.y &.'./ I }.) o c r.h f.i.N.i -+#+^.L T & T c x 3 8.a j -.1.f.v @.i ",
"i i *.^.B C <.& % ] g , 2.R ,.u k.r.k.v _ B.w.t.9 . i $.P %.n.u.l H V ! / ).h n : v @.I.i -+s.Q %.g ~.C , 3 +.7 a f.u e @.!.v.i ",
"i i J.].; g o ( ).# n T F W ,.v _ - 3 @ 1 8.} } I.. i }.I >.P = ) / Y 4 ).U t _ < 9.@.-+i -+`.q ; H P P ..s k.7 D.B.i.v !.C.t.i ",
"i i q.= $ ] c U ,.a { - ! # r.r D.6 X k.i.i.k.} N.. i }.P = m * ) b d Y F ^ [ c.l.j @.I.i -+Z.] S 2.W T ^ X -.k.i.X 8.h.B.y.G i ",
"i i 4.l ] g - |.@ + t Y r.< e c.v m.X Z i.[ _ !.N.. i m 2.V m H H # d : < ,.Z h.@ 8.B.-+i H.R.P ~ o g ! k.< : } y.8 a < f.5.1.i ",
"i i }.m H W s x 5.C.B.k.+.D.k.v r -.v v f.5.e C.I.. i T k T 7.( @ 7 ,.w d t [ t w } H.I.i + L H / # # x : h.v _ w 1.f.w.1.H.!.i ",
"i i [.! ) ^ g Z @ l.: a +.1 1 v 1 [ v v f.1.-+@+f | i * 6.).x ^ r < a m.[ w h.5.C.f I.I.i v.p F d ).h 5 +.w -.j.B.1.y.B.0 I.} i ",
"0 '+5 X X 3 X 2 2 2 2 2 2 2 2 2 2 2 2 2 { { 6 6 ,.f.f k.X 3 5 5 5 2 2 2 2 2 2 { 6 < k.-.f y.k.d s d Y r.j.w t w @ w h.j.8 9.< i ",
"-.i.9.9.9.9.9.9.9.9.9.9.9.9.9.9.9.9.9.9.9.9.9.9.9.5.} i.1 1 1 1 1 1 1 1 1 1 1 1 1 1 1 [ w [ v 1 1 1 1 v [ v v [ v [ v v v v 1 t "};
