/* XPM */
static char * 2_xpm[] = {
"64 64 128 2",
"  	c None",
". 	c #000090",
"+ 	c #00008D",
"@ 	c #00008E",
"# 	c #0000A7",
"$ 	c #0000A6",
"% 	c #0000A4",
"& 	c #0000A0",
"* 	c #0000A2",
"= 	c #0000AA",
"- 	c #0000A5",
"; 	c #0000A9",
"> 	c #0000A3",
", 	c #00009D",
"' 	c #0000A8",
") 	c #000094",
"! 	c #000088",
"~ 	c #000095",
"{ 	c #000073",
"] 	c #000079",
"^ 	c #000080",
"/ 	c #00009F",
"( 	c #000082",
"_ 	c #000091",
": 	c #00008C",
"< 	c #00008A",
"[ 	c #00008F",
"} 	c #000085",
"| 	c #00008B",
"1 	c #000086",
"2 	c #000078",
"3 	c #000057",
"4 	c #000074",
"5 	c #000089",
"6 	c #000083",
"7 	c #000092",
"8 	c #000084",
"9 	c #00007E",
"0 	c #000087",
"a 	c #000054",
"b 	c #000052",
"c 	c #00006C",
"d 	c #000096",
"e 	c #00007F",
"f 	c #00004F",
"g 	c #00007D",
"h 	c #00007C",
"i 	c #000081",
"j 	c #000077",
"k 	c #000076",
"l 	c #000075",
"m 	c #00007A",
"n 	c #000050",
"o 	c #000093",
"p 	c #000070",
"q 	c #00006E",
"r 	c #000072",
"s 	c #00007B",
"t 	c #00006B",
"u 	c #000064",
"v 	c #00006F",
"w 	c #000068",
"x 	c #00006A",
"y 	c #000071",
"z 	c #000069",
"A 	c #000066",
"B 	c #000067",
"C 	c #00006D",
"D 	c #000065",
"E 	c #000061",
"F 	c #00005C",
"G 	c #000060",
"H 	c #00005A",
"I 	c #00005F",
"J 	c #000063",
"K 	c #000062",
"L 	c #000056",
"M 	c #000053",
"N 	c #000055",
"O 	c #000051",
"P 	c #00004E",
"Q 	c #00004B",
"R 	c #00004D",
"S 	c #000059",
"T 	c #000047",
"U 	c #000049",
"V 	c #00005D",
"W 	c #000058",
"X 	c #000042",
"Y 	c #00003F",
"Z 	c #000046",
"` 	c #00003D",
" .	c #00005E",
"..	c #00004A",
"+.	c #000045",
"@.	c #00004C",
"#.	c #00005B",
"$.	c #00009B",
"%.	c #00009E",
"&.	c #0000A1",
"*.	c #00009C",
"=.	c #0000AB",
"-.	c #0000AF",
";.	c #0000B2",
">.	c #0000AD",
",.	c #0000AC",
"'.	c #0000B3",
").	c #0000B1",
"!.	c #000099",
"~.	c #000048",
"{.	c #00002D",
"].	c #00002C",
"^.	c #000043",
"/.	c #000040",
"(.	c #000033",
"_.	c #000035",
":.	c #000034",
"<.	c #00003A",
"[.	c #000044",
"}.	c #000039",
"|.	c #000098",
"1.	c #0000BE",
"2.	c #0000AE",
"3.	c #0000C5",
"4.	c #0000BB",
"5.	c #000097",
"6.	c #00009A",
"7.	c #00003E",
". + @ # $ % $ & * = - - - $ - % $ ; % = > $ > , $ & $ # - ' ) ! + + @ ; $ % $ & * = - - - $ - % $ ; % = > $ > , $ & $ # - ' ~ { ",
"] ^ * / / ~ ( ( _ : : < [ @ [ } | . 1 : _ [ 1 < | . [ | | } + + 2 ^ * / / ~ ( ( _ : : < [ @ [ } | . 1 : _ [ 1 < | . [ | | } + : ",
"3 4 , @ 5 @ | [ < @ + . 5 } : + 6 < : 7 5 8 : ! | } [ 9 . 5 0 @ a 4 , @ 5 @ | [ < @ + . 5 } : + 6 < : 7 5 8 : ! | } [ 9 . 5 0 : ",
"b c # < 1 d e 5 + < : + 1 5 _ 5 + 7 < . 5 . 1 1 + 6 < 5 7 6 < @ f c # < 1 d e 5 + < : + 1 5 _ 5 + 7 < . 5 . 1 1 + 6 < 5 7 6 < | ",
"b c ) } } ( } g ( ! h } e } ! 1 ^ [ i } 8 5 5 ! ! } : : i } h [ f c ) } } ( } g ( ! h } e } ! 1 ^ [ i } 8 5 5 ! ! } : : i } h : ",
"b c . } g ( i 9 g 6 } 0 < ( j g e 9 } | 5 i e ) ! 5 . < 0 1 g | f c . } g ( i 9 g 6 } 0 < ( j g e 9 } | 5 i e ) ! 5 . < 0 1 g 5 ",
"b c 5 ( g k g l 4 h < 0 ] ! 4 ] g e g m ( + ^ 5 ! 5 8 } 8 h g 1 n c 5 ( g k g l 4 h < 0 ] ! 4 ] g e g m ( + ^ 5 ! 5 8 } 8 h g 8 ",
"b c o : p | 4 j { ^ 2 ( j g ] q ] ] r } i s 8 g ^ g h h g l p . f c o : p | 4 j { ^ 2 ( j g ] q ] ] r } i s 8 g ^ g h h g l p + ",
"b c < j m p t } 2 u m { v i e ] l m 9 v e m r j v m v 9 m q h 0 n c < j m p t } 2 u m { v i e ] l m 9 v e m r j v m v 9 m q h } ",
"b c | w r x k x y ] z i t x m 4 4 s t A x c c y B k p l t c m l n c | w r x k x y ] z i t x m 4 4 s t A x c c y B k p l t c m { ",
"b c _ ] p l l c q A C y q s l x ] c w r h x s t q y C c t C x m n c _ ] p l l c q A C y q s l x ] c w r h x s t q y C c t C x 2 ",
"b c . D A E F x G C y x u z B C C c w c c q t C q A A l 2 u t s n c . D A E F x G C y x u z B C C c w c c q t C q A A l 2 u t ] ",
"b c _ p A H I w u H J J B E F A J G x 4 E z D E D q v r w E J v n c _ p A H I w u H J J B E F A J G x 4 E z D E D q v r w E J q ",
"b C 6 K H L M N L b M L O L L L O L L P Q b M f Q P R L N L S S O C 6 E H L M N L b M L O L L L O L N b T b M M T b U L N L V S ",
"W c y n X Y Y X Z Z Z Z Z Z Z Z Z Z Z T Z Z Z Z Z Z Z X Y Y Y ` S c y n X Y Y X Z Z Z Z Z Z Z Z Z Z Z Z Z Z Z Z T Z Z X Y Y Y Y ",
"E x v K S L L  . .M S M W S R ..Z R a a 3 F V 3 W W F 3 V b M H x r c E F b M W F V M W V a R U +.@.M M  .M  .W I S N G W V #.L ",
"[ + 7 $.%._ d &.&.*.* *.% $ = ; = &.$ =.-.;.>.,.=.# -.= ' > ' # &.& # & >.;.-.'.; - &.% - =.' ).,.= > ' $ ; & &.!.& d 7 $ & [ ) ",
"h ( m g 9 9 ( 8 ! : r 9 h 6 g 6 < < m [ . 5 1 7 i 8 ! : r 9 h 6 g 6 < < m [ . 5 1 _ h 9 9 ( 8 ! : r 9 h 6 g 6 < < m [ . 5 1 7 6 ",
"2 9 e h C 2 h 0 k 9 4 l 2 2 ] 6 ^ 1 e } m 9 5 s h 0 k 9 4 l 2 2 ] 6 ^ 1 e } m 9 5 s g C 2 h 0 k 9 4 l 2 2 ] 6 ^ 1 e } m 9 5 ] ! ",
"e 2 x r ] k m ] r 1 h { m r ] r h 9 e ^ s 2 ] g ] ] r 1 h { m r ] r h 9 e ^ s 2 ] 9 y ] k m ] r 1 h { m r ] r h 9 e ^ s 2 ] s | ",
"~.n ..S R Q a f ..R L M P N b f a R f U ..a ~.M M f ..R L M P N b f a R f U ..a ~.b W R Q a f ..R L M P N b f a R f U ..a ~.M L ",
"{.].].].].].].].].].].].].].].].].].].].].].].].].].].].].].].].].].].].].].].].].].].].].].].].].].].].].].].].].].].].].].].].",
"O #.#.#.#.#.#.#.#.#.#.#.#.#.#.#.#.#.#.#.#.#.#.#.#.#.#.#.#.#.#.#.#.#.#.#.#.#.#.#.#.#.#.#.#.#.#.#.#.#.#.#.#.#.#.#.#.#.#.#.#.#.#.#.",
"S S S S S S S S S S S S S S S S S S S S S S S S S S S S S S S S S S S S S S S S S S S S S S S S S S S S S S S S S S S S S S S S ",
"S S S S S S S S S S S S S S S S S S S S S S S S S S S S S S S S S S S S S S S S S S S S S S S S S S S S S S S S S S S S S S S S ",
"S S S S S S S S S S S S S S S S S S S S S S S S S S S S S S S S S S S S S S S S S S S S S S S S S S S S S S S S S S S S S S S S ",
"S S S S S S S S S S S S S S S S S S S S S S S S S S S S S S S S S S S S S S S S S S S S S S S S S S S S S S S S S S S S S S S S ",
"S S S S S S S S S S S S S S S S S S S S S S S S S S S S S S S S S S S S S S S S S S S S S S S S S S S S S S S S S S S S S S S S ",
"S S S S S S S S S S S S S S S S S S S S S S S S S S S S S S S S S S S S S S S S S S S S S S S S S S S S S S S S S S S S S S S S ",
"S S S S S S S S S S S S S S S S S S S S S S S S S S S S S S S S S S S S S S S S S S S S S S S S S S S S S S S S S S S S S S S S ",
"S S S S S S S S S S S S S S S S S S S S S S S S S S S S S S S S S S S S S S S S S S S S S S S S S S S S S S S S S S S S S S S S ",
"S S S S S S S S S S S S S S S S S S S S S S S S S S S S S S S S S S S S S S S S S S S S S S S S S S S S S S S S S S S S S S S S ",
"S S S S S S S S S S S S S S S S S S S S S S S S S S S S S S S S S S S S S S S S S S S S S S S S S S S S S S S S S S S S S S S S ",
"S S S S S S S S S S S S S S S S S S S S S S S S S S S S S S S S S S S S S S S S S S S S S S S S S S S S S S S S S S S S S S S S ",
"S S S S S S S S S S S S S S S S S S S S S S S S S S S S S S S S S S S S S S S S S S S S S S S S S S S S S S S S S S S S S S S S ",
"S S S S S S S S S S S S S S S S S S S S S S S S S S S S S S S S S S S S S S S S S S S S S S S S S S S S S S S S S S S S S S S S ",
"S S S S S S S S S S S S S S S S S S S S S S S S S S S S S S S S S S S S S S S S S S S S S S S S S S S S S S S S S S S S S S S S ",
"S S S S S S S S S S S S S S S S S S S S S S S S S S S S S S S S S S S S S S S S S S S S S S S S S S S S S S S S S S S S S S S S ",
"S S S S S S S S S S S S S S S S S S S S S S S S S S S S S S S S S S S S S S S S S S S S S S S S S S S S S S S S S S S S S S S S ",
"S S S S S S S S S S S S S S S S S S S S S S S S S S S S S S S S S S S S S S S S S S S S S S S S S S S S S S S S S S S S S S S S ",
"S S S S S S S S S S S S S S S S S S S S S S S S S S S S S S S S S S S S S S S S S S S S S S S S S S S S S S S S S S S S S S S S ",
"S S S S S S S S S S S S S S S S S S S S S S S S S S S S S S S S S S S S S S S S S S S S S S S S S S S S S S S S S S S S S S S S ",
"m m ] 5 ! ] 2 ! 0 0 [ [ @ @ @ @ @ [ @ + ~ ) ~ ~ + + ~ ~ ~ d 7 @ 0 0 @ @ ~ ) ) ) _ @ [ @ @ + + ~ ~ ~ d 7 @ @ 0 0 ! ! 2 ] 0 ! ] ] ",
"h ^ ^ s s ( 6 8 0 e { ] s h i 0 } 9 h . 8 } : } ^ 6 1 9 r ] s h ( ! } 9 s . 8 } : 1 ] m ^ i 6 1 9 r ] s h i ! 1 e g o 0 1 + ! } ",
"g k g l 4 h < 0 ] ! 4 ] g e g m ( + ^ 5 ! 5 8 } < 0 ] ! 4 ] g e g m ( + ^ 5 ! 5 8 1 k 4 h < 0 ] ! 4 ] g e g m ( + ^ 5 ! 5 8 } ! ",
"r | 4 j { ^ 2 ( j g ] q ] ] r } i s 8 g ^ g h g 2 ( j g ] q ] ] r } i s 8 g ^ g h g l { ^ 2 ( j g ] q ] ] r } i s 8 g ^ g h h 8 ",
"g { v ! g w 9 2 { } 6 g ] e ( r 6 g k s { 9 r ( h 2 { } 6 g ] e ( r 6 g k s { 9 r ( 0 g w 9 2 { } 6 g ] e ( r 6 g k s { 9 r ^ . ",
"+.f f P ..n ..Z Z n ^.f T /.(._.:.<.Z n n [.Q U f f Q Q P f ..+.U f P f ..Q f ..T +.U f T /.(._._.}.Z n P +.+.f f f Z Q P ..Z +.",
",.- ,.* ; - $.; > ' =.% > |.k B u l ) & > % & % & % &.& # $ - ' =.% ,.- ' - , ' * ' ' # = |.k B u l + &.> > & > / > &.&.*.# &.&.",
"[ 1 : _ [ 1 < | . [ | | } + @ p 4 |.1.2.% ;.% / & * * &./ _ . ) ~ _ ) |.~ | ) @ !.7 ~ @ 7 : @ p 4 |.3.>.; 4.' * * % % > * ,.%.- ",
"< : 7 5 8 : ! | } [ 9 . 5 0 : c 4 ; : [ | | 5.+ [ 5 o | 8 : + ( < : _ 5 8 : ! | } [ 9 . 5 0 : c 4 # , [ | | 5.+ [ 5 o | @ 8 < ! ",
"7 < . 5 . 1 1 + 6 < 5 7 6 < + #.t & : ! 7 ^ < _ : . 1 i 5 _ 5 + 7 < . 5 . 1 1 + 6 < 5 7 6 < + #.t & | ! 7 ^ < _ : . 1 i 5 7 } 6 ",
"[ i } 8 5 5 ! ! } : : i } h @ F t / : ^ [ + ( 9 5 6 @ 1 } ! 1 ^ [ i } 8 5 5 ! ! } : : i } h @ F t / : ^ [ + ( 9 5 6 @ 1 5 [ 0 : ",
"9 } | 5 i e ) ! 5 . < 0 1 g < V t 6.^ 0 s i m 1 } } 8 ! ( j g e 9 } | 5 i e ) ! 5 . < 0 1 g < V t 6.^ 0 s i m 1 } } 8 ! h i 9 9 ",
"e g m ( + ^ 5 ! 5 8 } 8 h g 8 V t : 6 h ( m g 9 9 ( 8 0 5 4 ] g e g m ( + ^ 5 ! 5 8 } 8 h g 8 V t : 6 h ( m g 9 9 ( 8 ! : r 9 h ",
"] r } i s 8 g ^ g h h g l p [ S t [ | k 9 e h C 2 h 0 k g ] q ] ] r } i s 8 g ^ g h h g l p [ S t [ | k 9 e h C 2 h 0 k 9 4 l 2 ",
"s 9 v e m r j v m v 9 m q h 1 3 t ) l ^ 2 x r ] k m ] r i e ] l m 9 v e m r j v m v 9 m q h 1 3 t ) l ^ 2 x r ] k m ] r 1 h { m ",
"s t A x c c y B k p l t c m 4 3 t @ ] q c t m ] 4 2 ^ y x m 4 4 s t A x c c y B k p l t c m 4 3 t @ ] q c t m ] 4 2 ^ p q g ] q ",
"t w r h x s t q y C c t C x m a c _ ] p j k C c A c p C s l x ] c w r h x s t q y C c t C x m a c _ ] p j k C c A c p C s l x s ",
"C w c c q t C q A A l 2 u t m M c . D A E F x G C y x u z B C C c w c c q t C q A A l 2 u t m M c . D A E F x G C y x u z B C C ",
"G x 4 E z D E D q v r w E J v 3 c _ p A H I w u H J J B E F A J G x 4 E z D E D q v r w E J v 3 c _ p A H I w u H J J B E F A u ",
"N N b T b M M T b U L N L V H O C 6 K H L M N L b M L O L L L O L N L ^.b 3 P Q P U 3 N L E S O C 6 K L f M S H N b L n H H N O ",
"X Z Z Z Z Z Z T Z Z X Y Y 7.[.L C y n 7.Y Y X Z Z Z Z Z Z Z Z Z Z Z Z T Z Z Z Z Z Z X Y Y 7./.L C y n 7./.Y X +.+.Z Z Z +.+.Z Z ",
"E S S S S S S S S S S S S S G  .z w J S S S S S S S S S S S S S S S S S S S S S S S S S S S G  .z w J S S S S S S S S S S S S S "};
