/* XPM */
static char * 3_xpm[] = {
"64 64 186 2",
"  	c None",
". 	c #684726",
"+ 	c #925F36",
"@ 	c #794F2B",
"# 	c #794E2A",
"$ 	c #7B502B",
"% 	c #6E4927",
"& 	c #6A4826",
"* 	c #694725",
"= 	c #7A4F2B",
"- 	c #6D4927",
"; 	c #7B4F2B",
"> 	c #563E1E",
", 	c #563F1F",
"' 	c #573F1F",
") 	c #583F20",
"! 	c #594020",
"~ 	c #372C16",
"{ 	c #604422",
"] 	c #2B2410",
"^ 	c #403219",
"/ 	c #5E4221",
"( 	c #4F3C1C",
"_ 	c #3F301A",
": 	c #3F311A",
"< 	c #4D3B1B",
"[ 	c #543E1D",
"} 	c #3D2F19",
"| 	c #573F1E",
"1 	c #3E301A",
"2 	c #3E3019",
"3 	c #5E4321",
"4 	c #543D1D",
"5 	c #563F1E",
"6 	c #322A14",
"7 	c #4E3C1B",
"8 	c #503D1C",
"9 	c #604321",
"0 	c #413419",
"a 	c #553D1E",
"b 	c #423519",
"c 	c #433519",
"d 	c #543D1E",
"e 	c #423419",
"f 	c #4F3C1B",
"g 	c #3C2F19",
"h 	c #553E1E",
"i 	c #533D1D",
"j 	c #4C3A1B",
"k 	c #5F4322",
"l 	c #4A3A1A",
"m 	c #493A1A",
"n 	c #634523",
"o 	c #79502B",
"p 	c #784F2B",
"q 	c #774F2A",
"r 	c #8C5A33",
"s 	c #443419",
"t 	c #644522",
"u 	c #865730",
"v 	c #5A4021",
"w 	c #4A3B1A",
"x 	c #4B3B1B",
"y 	c #6D4A28",
"z 	c #7C512C",
"A 	c #473919",
"B 	c #6B4926",
"C 	c #473A19",
"D 	c #845630",
"E 	c #7A502B",
"F 	c #463919",
"G 	c #5F4223",
"H 	c #4D3C1B",
"I 	c #604323",
"J 	c #875831",
"K 	c #523D1D",
"L 	c #543E1E",
"M 	c #7D522D",
"N 	c #4E3B1B",
"O 	c #6F4B28",
"P 	c #744D29",
"Q 	c #8A5A33",
"R 	c #865731",
"S 	c #654624",
"T 	c #774F2B",
"U 	c #674625",
"V 	c #433419",
"W 	c #624422",
"X 	c #835630",
"Y 	c #664624",
"Z 	c #503C1C",
"` 	c #6A4827",
" .	c #754E29",
"..	c #483A1A",
"+.	c #82552F",
"@.	c #764E2A",
"#.	c #6C4926",
"$.	c #724C29",
"%.	c #523C1D",
"&.	c #855730",
"*.	c #513D1D",
"=.	c #7A502C",
"-.	c #533E1E",
";.	c #7B512C",
">.	c #6E4A28",
",.	c #724C28",
"'.	c #895932",
").	c #5B4021",
"!.	c #734D29",
"~.	c #4E3B1C",
"{.	c #6B4927",
"].	c #714C27",
"^.	c #463819",
"/.	c #624424",
"(.	c #5B4121",
"_.	c #614423",
":.	c #674725",
"<.	c #523E1E",
"[.	c #583F1F",
"}.	c #82562F",
"|.	c #714C28",
"1.	c #684725",
"2.	c #694826",
"3.	c #4C3B1B",
"4.	c #5D4122",
"5.	c #6E4A27",
"6.	c #624423",
"7.	c #5A4020",
"8.	c #6B4925",
"9.	c #83562F",
"0.	c #5C4122",
"a.	c #48391A",
"b.	c #754E2A",
"c.	c #503D1D",
"d.	c #553E1F",
"e.	c #845730",
"f.	c #6E4A26",
"g.	c #614422",
"h.	c #6D4A26",
"i.	c #503C1D",
"j.	c #694825",
"k.	c #704B28",
"l.	c #6F4B26",
"m.	c #5C4121",
"n.	c #714B27",
"o.	c #47391A",
"p.	c #4E3C1C",
"q.	c #4F3B1C",
"r.	c #614522",
"s.	c #4B3A1A",
"t.	c #513D1E",
"u.	c #634524",
"v.	c #594021",
"w.	c #634424",
"x.	c #704B27",
"y.	c #6D4A27",
"z.	c #5F4323",
"A.	c #483919",
"B.	c #79502C",
"C.	c #5E4223",
"D.	c #5E4222",
"E.	c #6C4927",
"F.	c #523D1E",
"G.	c #6A4825",
"H.	c #4B3A1B",
"I.	c #614323",
"J.	c #5D4221",
"K.	c #8A5933",
"L.	c #5D4222",
"M.	c #593F20",
"N.	c #8B5A33",
"O.	c #734D28",
"P.	c #674624",
"Q.	c #5C4221",
"R.	c #513C1D",
"S.	c #5B4120",
"T.	c #5F4222",
"U.	c #573F20",
"V.	c #664725",
"W.	c #573E1E",
"X.	c #644523",
"Y.	c #674724",
"Z.	c #654623",
"`.	c #604322",
" +	c #6F4B27",
".+	c #724C27",
". . . . . . . . . . . . . . . . . . . . . . . . . . . . . . . . . . . . . . . . . . . . . . . . . . . . . . . . . . . . . . . . ",
"+ + + + + + + + + + + + + + + + + + + + + + + + + + + + + + + + + + + + + + + + + + + + + + + + + + + + + + + + + + + + + + + + ",
"@ @ @ @ @ @ # $ % & * % = = = = = @ # = # = # = = @ % & * % @ = # $ % & * % = = = = @ $ % & * - ; # = = # = @ = # @ = % & * % = ",
"> > , ' ) ) ! ~ { ] ^ / ( _ : : _ < [ } | } | 1 2 | 3 ] ^ / 4 } 5 6 { ] ^ / 7 _ : _ 8 6 { ] ^ 9 0 a b c d e f g h i j k ] ^ / d ",
"l m n o p p q < r s t u v w x x m y z A B C B m w h r s t D E F @ [ r s t u G H x H I > r s t J K z L ( M N O 7 y o P Q s t R S ",
"x l / p T T U < Q V W X Y m x x Z `  .A & A & ..l h Q V W +.@.F q i Q V W X #.h m h $.%.Q V W &.*.=.-.( ;.< >.N & T ,.'.V W &.*.",
"l l ).!.@.p / ~.Q V W +.{.Z x l K  .{...& A & ..l h Q V W X ].^.q i Q V W +.P /.(._.T i Q V W &.*.=.-.( ;.< >.~.:.T ,.'.V W &.<.",
"( l > B T q [.N Q V W }. .~.x m _.!.:...& A & ..l h Q V W X :.A q i Q V W }.p |.S @.p i Q V W &.*.=.-.( ;.< >.~.1.@.,.'.V W &.<.",
"2.m 3.4.5.6.Z ( Q V W }.@.7.l Z 8.p Y ..& A & ..l h Q V W 9.* A q i Q V W }.T T T @.o i Q V W &.*.=.-.( ;.< >.~.W T ,.'.V W &.<.",
"1.m x -.0.! m K Q V W }.T :.m , P p 7...& A & ..l h Q V W D ! a.q i Q V W 9.b.T T T o i Q V W &.*.=.-.( ;.< >.~.n T ,.'.V W &.c.",
"O K x m [.< l [.Q V W }.T  .K #.T @.-.m & A & ..l h Q V W D (.A q i Q V W X !.T T T o %.Q V W &.*.=.-.( ;.< >.~.! p ,.'.V W &.( ",
"o d.l x l x x / Q V W }.T ,.B !.@.P ( m & A & ..l h Q V W e.( ( p i Q V W X !.@.T T P i Q V W &.*.=.-.( ;.< >.N v p ,.'.V W &.a.",
"f.& ..x x l k g.Q V W +.T T h.T @.P ( m & A & ..l h Q V W &.a.i.;.%.Q V W X j.T T @.k.4 Q V W &.*.=.-.( ;.< >.( ~.@.,.'.V W &...",
"l.q v l x 3.& m.Q V W X ,.@.T @.T n.a.m & A & ..l h Q V W &.o.!  .i Q V W D Y T T T Y d Q V W &.*.=.-.( ;.< >.~.(  .,.'.V W &...",
"Y T 5.p.l [. .q.Q V W X !.@.T T T U m m & A & ..l h Q V W &.l :. .i Q V W e.' o @.p r.h Q V W &.*.=.-.( ;.< >.> ( ` ,.'.V W &.a.",
"/ p p /.s.1.:.< Q V W X j.T T T T :.m m & A & ..l h Q V W D ' k.{.d Q V W &.t.l.p l.<.h Q V W &.*.=.-.( ;.< >.a Z {.,.'.V W D ( ",
"-.!.@.@._.P n ~.Q V W D Y b.T T p u.m m & A & ..l h Q V W D v.@.:.4 Q V W &.l w.x.w.3.h Q V W &.*.=.-.( ;.< y.z.A.& ,.'.V W e.( ",
"( x.T T x.B.7.N Q V W e.' P T T @.7.l m & A & ..l h Q V W X O T W h Q V W &.a., C., m h Q V W &.*.=.-.( ;.< y D...n $.'.V W e.~.",
"m 1.,.T T  .~.( Q V W &.d.P @.T !.).l m 2.A & ..l h Q V W }.T P ! h Q V W &...l *.l l h Q V W &.*.=.-.( ;.< E.:.< F.P '.V W D v ",
"l 7.,.T T Y Z ( Q V W &.< B T @.P > l ( 5.A.& ..l h Q V W }.p G.' h Q V W &...x x x m h Q V W &.*.=.-.( ;.< - :.Z Z 8.'.V W D ! ",
"x ( :.b.@._.m ~.Q V W &.~.:.T T 8.( x ~.2...& ..l h Q V W }.b.:.( h Q V W &.H.x x x *.L Q V W &.*.=.-.( ;.~.1.Y Z m I.'.V W D m.",
"l < 7.B #.! m > Q V W &.A m.@.b.:.Z l (.* ..& ..l h Q V W 9.,.0...h Q V W X (.l x l J.i Q V W &.*.=.-.( ;.~.1. .( l L K.V W e.! ",
"*.l ' L.M.m m h Q V W &.A (.h.P (.*.l 7.j...& ..l h Q V W 9.:.i m h Q V W X B h ..h h.i Q V W &.*.=.-.( ;.~.W  .( x ( Q V W e.! ",
"L l < [.< x *.d Q V W &...( u.#.(.m l Y 1...& ..l h Q V W D 0.< l h Q V W +.@.B C.B T %.Q V W &.*.=.-.( ;.< n  .> l H.N.V W e.! ",
"(.l x l x l , d Q V W &...*.L.z.i l < :.1.A.& ..l h Q V W e.i l l h Q V W }.T b.l.b.p i Q V W &.*.=.-.( =.-./ q 7.m a.N.V W e.! ",
"Y l x x x l (.d Q V W &...l L [.m x Z :./ m & ..l h Q V W &.a.x m h Q V W }.T @.T @.o i Q V W &.*.=.-.( =.<.7.q /.Z a.N.V W &.*.",
"#...x x x m I d Q V W &...x l l x x ~.].)...2...l h Q V W &...x *.d Q V W }.T T T T q ( Q V W &.*.=.-.( =.<.v P :.Z a.N.V W &.( ",
"x.K x x x K j.d Q V W &...x x x x l v =.-.( O...l h Q V W &...l 4 h Q V W +.p @.T T  .j Q V W &.*.=.-.( =.<.v P :.' A N.V W &.a.",
":., l x x L Y d Q V W &...x x x x l 7. .( ( ,...l h Q V W &...l (.d Q V W X j.T T T {.< Q V W &.*.=.-.( p F.)  .G.(.A N.V W &...",
"/ P.m x l Q.k d Q V W &...x x x x l ! @.3.( ,...l h Q V W &...m 1.i Q V W D Y T T @.E.< Q V W &.*.=.-.( @.-.Z ` P v A N.V W &.3.",
"7.h.( x l Y -.h Q V W &.a.x x x x m 1. ...( ,...l h Q V W &...( h.i Q V W e.' o @.T :.< Q V W &.*.=.-.( @.-.Z {.@.(.~.N.V W e.( ",
"K 1.v m H.5.p.h Q V W e.( x x x x m Y @...( ,...l h Q V W &.A v @.%.Q V W D ! l.T T n ~.Q V W &.*.=.-.( @.-.Z Y T :.Z N.V W e.( ",
"*./ h.M./ Y 3.h Q V W D v m x x x ( b.B m ( ,...l h Q V W &.R.:.B.i Q V W &.< Y T o 7.N Q V W &.*.=.-.( @.-.m 1.T l.) Q V W e.( ",
"m ) ].k h.v m h Q V W X :.Z x x l h P :.m ~.,...l h Q V W D v ,.q ( N.V W &.~.6.o G.( ( Q V W &.*.=.-.( @.-.l ! p @.S.Q V W e.( ",
"x Z /.]./.( l h Q V W +. .v m x m (.o 1...(.h.m l h Q V W D S b.P 3.N.V W &.A ).].u.< ( Q V W &.*.=.-.( @.-.l ' @.T j.'.V W e.h ",
"x m ! C.! < l h Q V W }.p Y Z x Z 2.p / m 7.j.m l h Q V W X ].T k.< N.V W &...Z z.i l K Q V W &.*.=.-.( @., l L P @.,.'.V W e.h ",
"x x < [.< x l h Q V W }.T q 0.A.0.@.!.).m Y 1.m l h Q V W +.T T Y N N.V W &...l L < l h Q V W &.*.=.-.( @.7.l L !.T ,.'.V W e.! ",
"p.x x l x x m h Q V W }.T T y.! y.T P *.m 1.1.m l h Q V W }.T b.Y F N.V W &...x l x l [.Q V W &.*.=.-.( @.7.l ( P @.,.'.V W D ! ",
"Z x x x x x *.d Q V W +.p @.T !.T T x.( m 1.1.m l h Q V W }.T P 7.A N.V W &.a.x x x m 7.Q V W &.*.=.-.( @.(.l Z 8.T ,.'.V W &.F.",
"7.l x x x l i h Q V W X j.T T T T T Y < Z E.1.m l h Q V W }.p G.! A N.V W e.( x x x < ! Q V W &.*.=.-.m E.1.m m 1.T ,.'.V W &.-.",
"7.< x x x m I d Q V W e.g.b.T T T T 1.m Z k.W l l h Q V W }.!.1.Z A N.V W D ' l x x ( ! Q V W &.*.=.-.l S 1.m l T.O.,.'.V W &.~.",
"1.Z x x l 4 j.i Q V W &.*.P T T T !.! l (  ./ l l h Q V W +.P ! < ( K.V W X S < x m m.) Q V W &.*.=.-.l n - m l U.P ,.'.V W &.( ",
"#.> m x m ).1.d Q V W &.<  .@.T @.P h l ( @.7.l l h Q V W X 8.(.l ( Q V W +.k.h m , u.) Q V W &.*.=.-.l ! y.Z x ( x.!.'.V W &.a.",
"#.! *.x *./ 1.d Q V W &.A :.T T T 8.Z l > @.-.x l h Q V W 9.1.Z x ~.Q V W }.!.u.(.L.].) Q V W &.*.=.-.l 7.|.Z x Z :.f.'.V W &...",
"S :.' ..' 1.u.4 Q V W &.A G P @.!.u.< l !  .*.x l h Q V W D v m l > Q V W }.p G.0.B q ' Q V W &.*.=.-.l h @.~.x m ).B '.V W &...",
"7.].0.' L.#.! h Q V W &.a.h B !.8.M.l m 1.P ( x l h Q V W &.H.x m h Q V W +.T b.l.b.@.' Q V W &.*.=.-.l >  .v l x 3.m.K.V W &...",
"~.b.6.7.6. .[.d Q V W &...m k ].u.Z x Z Y b.( x m h Q V W &...x Z ! Q V W X ,.@.T @.P h Q V W &.*.=.-.l > @.(.m x x l N.V W &...",
"Z k.h.0.G. .~.h Q V W &.a.x 3.v 7.m x ( k.Y m l *.h Q V W &...l , ! Q V W X !.T T @.P i Q V W &.*.=.-.l K P :.Z x x a.N.V W &...",
"m & p f.b.P p.h Q V W D ( x x < < x l > P Y l l *.h Q V W &...m 7.! Q V W X !.@.T T x.Z Q V W &.*.=.-.x Z k.S i l x a.N.V W &.a.",
"m z.P T T y.( h Q V W e.K l x x x x l 0. .! l l *.h Q V W &...Z 1.U.Q V W X j.T T T U < Q V W &.*.o -.x Z Y =.7.m x a.N.V W D ( ",
"l K B T T :.( h Q V W D z.m x x x x < :.@.).l < Z h Q V W &.A 7.p ' Q V W D S T T ,.1.< Q V W &.j =.-.x Z :.o ) *.x a.N.V W e.( ",
"x Z :.b.o L.Z h Q V W X :.Z x x x x ( Y  .~.x *.Z h Q V W &.R.V.p ' Q V W e.g.,.@.!._.N Q V W &.3.=.-.x m C.o :.( x a.N.V W D [.",
"x m G  .G.I ..h Q V W +.k.K l x x l ). .B ( x Z Z h Q V W D D.P p ' Q V W e.) P T l.(.N Q V W &.j =.-.x l ! B.G.m.m a.N.V W D ! ",
"x l i :.u.W.m h Q V W +.q C.< x x m G P W < l m.( h Q V W X ].T p ' Q V W &.Z B p Y ( ( Q V W &.<  .7.l l ).l.B.(.[.A N.V W X /.",
"x x *.m.7.*.l h Q V W X j.:.i l x < :.b.X.l l (.( h Q V W +.T T p ' Q V W &.p.S @./.Z ( Q V W &.< @.7.l l ' Y T Y.(.l N.V W X :.",
"x x m m.! m l h Q V W D n  .! < l h G.P -.x l Z.~.h Q V W }.T T @.' Q V W &.A v ].7.< ( Q V W &.< @.7.l x Z /.o G.7.R.N.V W X :.",
"l x l L c.x m h Q V W D ) P B [.3.! @.k.Z x l Z.p.h Q V W }.T T P h Q V W &.A ' z.' l ( Q V W &.< @.! l x < 7.l.B.) h Q V W X G.",
"Z x x l l x *.L Q V W &.< 8.@.B ) 5.T 1.m x < Y p.h Q V W }.T @. .i Q V W &...*.> *.x ( Q V W &.F h.G m x l ! Y T :.4 Q V W +.!.",
"' l x x x l ! 4 Q V W &.A _.!.T !.T P 4.m x K $.N h Q V W }.T T Y d Q V W &...l *.l x ( Q V W &.A 1.1.m x x Z /.o Y d Q V W }.!.",
"m.m x x x m `.4 Q V W &.a.h x.p @.b.B ( x l ' O.~.h Q V W }.T ,.S d Q V W &...x x x x ( Q V W &.A * :.Z x x < v G.:.d Q V W }.!.",
"m.Z x x x Z j.i Q V W &...< w.l.@.l.6.m x l / O.H.h Q V W }.p  +! d Q V W &...x x x x ~.Q V W &.H.! h.( x x l i I 1.d Q V W }.!.",
"1.' l x x Z h.i Q V W &...l , 6.x./.Z x x < :.|...h Q V W +.!.:.K h Q V W &...x x x l > Q V W e.( U..+> l x x < ! z.d Q V W }.!.",
"B (.m x l K ,.i Q V W &...x l , C., l x x ( 5.1.m h Q V W X #.h m h Q V W &.a.x x x m h Q V W D *.Z u.(.m x x x < ! d Q V W +.!.",
"x.C.L l L z.1.4 Q V W &.3.x x l *.l x x l (.:.' m h Q V W D L l l h Q V W D i l x l L d Q V W D )...D.L.*.x x x x < h Q V W X f."};
