/* XPM */
static char * 4_xpm[] = {
"64 64 476 2",
"  	c None",
". 	c #333333",
"+ 	c #353535",
"@ 	c #343434",
"# 	c #2D2D2D",
"$ 	c #2E2E2E",
"% 	c #383838",
"& 	c #5A6060",
"* 	c #363A3A",
"= 	c #5B6161",
"- 	c #494F4F",
"; 	c #4B5050",
"> 	c #4C5050",
", 	c #4A4F4F",
"' 	c #595F5F",
") 	c #4B4E4E",
"! 	c #4C4C4C",
"~ 	c #4B4B4B",
"{ 	c #5A5A5A",
"] 	c #4A4E4E",
"^ 	c #373C3C",
"/ 	c #4B5151",
"( 	c #4B4F4F",
"_ 	c #575E5E",
": 	c #595E5E",
"< 	c #585E5E",
"[ 	c #5A5F5F",
"} 	c #4C4E4E",
"| 	c #474747",
"1 	c #484848",
"2 	c #515555",
"3 	c #525757",
"4 	c #515757",
"5 	c #535757",
"6 	c #494E4E",
"7 	c #474C4C",
"8 	c #464A4A",
"9 	c #393E3E",
"0 	c #313535",
"a 	c #3A3E3E",
"b 	c #484C4C",
"c 	c #5A5E5E",
"d 	c #4F5353",
"e 	c #4D5151",
"f 	c #383D3D",
"g 	c #620000",
"h 	c #640000",
"i 	c #650000",
"j 	c #670000",
"k 	c #710000",
"l 	c #550000",
"m 	c #6B0000",
"n 	c #630000",
"o 	c #600000",
"p 	c #5A0F0F",
"q 	c #404343",
"r 	c #4A4A4A",
"s 	c #870C0C",
"t 	c #720000",
"u 	c #660000",
"v 	c #610000",
"w 	c #6E0000",
"x 	c #5E0000",
"y 	c #570000",
"z 	c #6C0000",
"A 	c #680000",
"B 	c #3D0909",
"C 	c #434545",
"D 	c #505555",
"E 	c #690000",
"F 	c #580000",
"G 	c #510000",
"H 	c #5D0000",
"I 	c #5F0000",
"J 	c #520000",
"K 	c #590000",
"L 	c #5C0000",
"M 	c #4C0000",
"N 	c #450000",
"O 	c #4D0000",
"P 	c #420000",
"Q 	c #4E0000",
"R 	c #530000",
"S 	c #430000",
"T 	c #340000",
"U 	c #252828",
"V 	c #5C6666",
"W 	c #8A0000",
"X 	c #540000",
"Y 	c #4F0000",
"Z 	c #5B0000",
"` 	c #560000",
" .	c #480000",
"..	c #333636",
"+.	c #4F4F4F",
"@.	c #424B4B",
"#.	c #8D0000",
"$.	c #4A0000",
"%.	c #460000",
"&.	c #490000",
"*.	c #4B0000",
"=.	c #3E0000",
"-.	c #2F0000",
";.	c #262929",
">.	c #4E4E4E",
",.	c #626A6A",
"'.	c #870000",
").	c #410000",
"!.	c #500000",
"~.	c #360000",
"{.	c #343636",
"].	c #4E5656",
"^.	c #890000",
"/.	c #5A0000",
"(.	c #470000",
"_.	c #515151",
":.	c #666E6E",
"<.	c #730000",
"[.	c #525252",
"}.	c #4D5555",
"|.	c #750000",
"1.	c #3C0000",
"2.	c #300000",
"3.	c #740000",
"4.	c #350000",
"5.	c #525A5A",
"6.	c #760000",
"7.	c #272929",
"8.	c #5D6565",
"9.	c #7E0000",
"0.	c #565E5E",
"a.	c #7F0000",
"b.	c #320000",
"c.	c #272A2A",
"d.	c #404040",
"e.	c #5F6868",
"f.	c #8B0000",
"g.	c #370000",
"h.	c #440000",
"i.	c #310000",
"j.	c #2D0000",
"k.	c #210606",
"l.	c #272828",
"m.	c #3F3F3F",
"n.	c #494C4C",
"o.	c #480909",
"p.	c #330000",
"q.	c #380000",
"r.	c #2E0404",
"s.	c #343535",
"t.	c #595C5C",
"u.	c #4A0A0A",
"v.	c #3D0000",
"w.	c #230000",
"x.	c #2C0000",
"y.	c #2A0000",
"z.	c #260000",
"A.	c #2A2D2D",
"B.	c #2C2E2E",
"C.	c #2A2E2E",
"D.	c #2B2E2E",
"E.	c #2C2F2F",
"F.	c #232727",
"G.	c #3E3E3E",
"H.	c #5D5F5F",
"I.	c #636666",
"J.	c #585B5B",
"K.	c #454848",
"L.	c #2D2F2F",
"M.	c #282B2B",
"N.	c #2D3030",
"O.	c #2B2D2D",
"P.	c #292C2C",
"Q.	c #2E3030",
"R.	c #575757",
"S.	c #636363",
"T.	c #353737",
"U.	c #282A2A",
"V.	c #2A2C2C",
"W.	c #575C5C",
"X.	c #3A3F3F",
"Y.	c #464D4D",
"Z.	c #474D4D",
"`.	c #373D3D",
" +	c #3B3E3E",
".+	c #545454",
"++	c #707070",
"@+	c #666666",
"#+	c #464C4C",
"$+	c #3D4343",
"%+	c #3E4343",
"&+	c #484D4D",
"*+	c #373E3E",
"=+	c #444B4B",
"-+	c #464B4B",
";+	c #4A5050",
">+	c #6F7474",
",+	c #7A8080",
"'+	c #616666",
")+	c #454C4C",
"!+	c #3D4242",
"~+	c #5B6060",
"{+	c #6E7373",
"]+	c #727777",
"^+	c #5E6363",
"/+	c #515656",
"(+	c #4C4F4F",
"_+	c #434343",
":+	c #3C4242",
"<+	c #5B5F5F",
"[+	c #540A0A",
"}+	c #4B4D4D",
"|+	c #6B6B6B",
"1+	c #545959",
"2+	c #890E0E",
"3+	c #6A0000",
"4+	c #6D0000",
"5+	c #700000",
"6+	c #530808",
"7+	c #4D5050",
"8+	c #414141",
"9+	c #2D3131",
"0+	c #8B1010",
"a+	c #353838",
"b+	c #5D5D5D",
"c+	c #586161",
"d+	c #3A3D3D",
"e+	c #4D4D4D",
"f+	c #2D3636",
"g+	c #3F0000",
"h+	c #555555",
"i+	c #323A3A",
"j+	c #505050",
"k+	c #390000",
"l+	c #494949",
"m+	c #394141",
"n+	c #4D5656",
"o+	c #464F4F",
"p+	c #434B4B",
"q+	c #800000",
"r+	c #3B0000",
"s+	c #400000",
"t+	c #4C5555",
"u+	c #454D4D",
"v+	c #820000",
"w+	c #5E6666",
"x+	c #290000",
"y+	c #250000",
"z+	c #280000",
"A+	c #240000",
"B+	c #200505",
"C+	c #484A4A",
"D+	c #440404",
"E+	c #3A0000",
"F+	c #220606",
"G+	c #262727",
"H+	c #606363",
"I+	c #500808",
"J+	c #2F3232",
"K+	c #313434",
"L+	c #323535",
"M+	c #333535",
"N+	c #2D2E2E",
"O+	c #3A3A3A",
"P+	c #5E5E5E",
"Q+	c #3C3E3E",
"R+	c #2B2F2F",
"S+	c #2A2F2F",
"T+	c #292D2D",
"U+	c #3C3C3C",
"V+	c #5C5C5C",
"W+	c #444747",
"X+	c #444A4A",
"Y+	c #363C3C",
"Z+	c #383C3C",
"`+	c #505656",
" @	c #686E6E",
".@	c #6C7171",
"+@	c #4C5151",
"@@	c #424747",
"#@	c #434949",
"$@	c #444949",
"%@	c #383B3B",
"&@	c #696969",
"*@	c #717171",
"=@	c #575B5B",
"-@	c #565C5C",
";@	c #404545",
">@	c #4E5454",
",@	c #434848",
"'@	c #373B3B",
")@	c #323838",
"!@	c #414747",
"~@	c #737878",
"{@	c #808686",
"]@	c #686D6D",
"^@	c #4C5252",
"/@	c #414646",
"(@	c #6F0000",
"_@	c #590F0F",
":@	c #595D5D",
"<@	c #8C1111",
"[@	c #540909",
"}@	c #474A4A",
"|@	c #545E5E",
"1@	c #535D5D",
"2@	c #333B3B",
"3@	c #4F5858",
"4@	c #485050",
"5@	c #575F5F",
"6@	c #464E4E",
"7@	c #555E5E",
"8@	c #464646",
"9@	c #424242",
"0@	c #475050",
"a@	c #4A4D4D",
"b@	c #282929",
"c@	c #414444",
"d@	c #470808",
"e@	c #2B0000",
"f@	c #444646",
"g@	c #272B2B",
"h@	c #252929",
"i@	c #262A2A",
"j@	c #242929",
"k@	c #242727",
"l@	c #242626",
"m@	c #262828",
"n@	c #292929",
"o@	c #373939",
"p@	c #282C2C",
"q@	c #252A2A",
"r@	c #242828",
"s@	c #1E2121",
"t@	c #1F2222",
"u@	c #202323",
"v@	c #202222",
"w@	c #272727",
"x@	c #565D5D",
"y@	c #585D5D",
"z@	c #565B5B",
"A@	c #4D5353",
"B@	c #4F5454",
"C@	c #454A4A",
"D@	c #676767",
"E@	c #6A6A6A",
"F@	c #606565",
"G@	c #636868",
"H@	c #626868",
"I@	c #5C6161",
"J@	c #696E6E",
"K@	c #4D5252",
"L@	c #3C4141",
"M@	c #797979",
"N@	c #414848",
"O@	c #4A5151",
"P@	c #5D6363",
"Q@	c #545A5A",
"R@	c #383E3E",
"S@	c #555A5A",
"T@	c #525858",
"U@	c #656565",
"V@	c #8A0F0F",
"W@	c #580E0E",
"X@	c #4E5050",
"Y@	c #860D0D",
"Z@	c #373A3A",
"`@	c #3B4545",
" #	c #5B5B5B",
".#	c #4E5858",
"+#	c #930000",
"@#	c #780000",
"##	c #2E0000",
"$#	c #3D4545",
"%#	c #850000",
"&#	c #770000",
"*#	c #7C0000",
"=#	c #4E5555",
"-#	c #7D0000",
";#	c #240808",
">#	c #480707",
",#	c #555858",
"'#	c #470606",
")#	c #323636",
"!#	c #333737",
"~#	c #343838",
"{#	c #353636",
"]#	c #363636",
"^#	c #3E4040",
"/#	c #292B2B",
"(#	c #282828",
"_#	c #323232",
":#	c #606060",
"<#	c #393C3C",
"[#	c #303232",
"}#	c #303333",
"|#	c #212323",
"1#	c #232626",
"2#	c #535353",
"3#	c #4E5353",
"4#	c #393D3D",
"5#	c #585F5F",
"6#	c #424848",
"7#	c #585C5C",
"8#	c #525555",
"9#	c #757575",
"0#	c #494D4D",
"a#	c #3B4040",
"b#	c #787C7C",
"c#	c #767B7B",
"d#	c #797F7F",
"e#	c #393F3F",
"f#	c #525656",
"g#	c #4F5555",
"h#	c #830808",
"i#	c #3F4141",
"j#	c #850A0A",
"k#	c #810000",
"l#	c #790000",
"m#	c #3C0808",
"n#	c #4D4F4F",
"o#	c #3F4949",
"p#	c #3C4646",
"q#	c #3E4646",
"r#	c #3F4747",
"s#	c #394242",
"t#	c #2E3131",
"u#	c #353D3D",
"v#	c #3A4242",
"w#	c #8C0000",
"x#	c #434646",
"y#	c #4F0707",
"z#	c #210505",
"A#	c #2B2C2C",
"B#	c #3E4141",
"C#	c #4B0B0B",
"D#	c #2F0606",
"E#	c #2E2F2F",
"F#	c #393939",
"G#	c #3B3D3D",
"H#	c #343737",
"I#	c #5A5C5C",
"J#	c #545656",
"K#	c #2C3030",
"L#	c #323333",
"M#	c #565656",
"N#	c #585858",
"O#	c #212424",
"P#	c #2C2D2D",
"Q#	c #3B3B3B",
"R#	c #535858",
"S#	c #484E4E",
"T#	c #646A6A",
"U#	c #474B4B",
"V#	c #787D7D",
"W#	c #545858",
"X#	c #505454",
"Y#	c #515858",
"Z#	c #454545",
"`#	c #3D3D3D",
" $	c #3D4141",
".$	c #313636",
"+$	c #2E3232",
"@$	c #2C3232",
"#$	c #333838",
"$$	c #424444",
"%$	c #840A0A",
"&$	c #3C4545",
"*$	c #363939",
"=$	c #454E4E",
"-$	c #3E4747",
";$	c #470707",
">$	c #430B0B",
",$	c #2F2F2F",
"'$	c #595959",
")$	c #373737",
". + . @ @ @ @ @ . @ @ @ @ @ @ . . + . @ @ @ @ @ @ . . . . . . @ @ @ @ @ @ . @ @ @ @ @ @ @ @ @ @ @ @ + # $ # @ @ . . @ @ @ @ . % ",
"& * = - ; ; > , ' , ; > ) ! ~ { ] ^ / ; ; ; > ; ( ' _ : < < [ - ; ; ; ; } ! | 1 2 3 4 4 5 5 5 5 6 7 8 9 0 a b 3 c c d ; ; ; e f ",
"g h i h j k l h m j n o p q r [ s m t u u k l h n i g v w x y z n A g x B C r D s E k u F i G y H I J x j K L l l H I g h h g j ",
"M N O g L o P Q g R S G T U ! V W X x Y Z o P Q N O g I ` J  .H G ` H y T ..+.@.#.X x Y Z o P Q N O g I X $.L G  .L M %.Y Q &.J ",
"*.F R H X Z y $.n J =.G -.;.>.,.'.G F J X Z y $.F R L y I K ).` ` Y F !.~.{.>.].^.G F J X Z y $.F R L y x *.J /.).l G (.O *.O O ",
"Q  .` I y /.).!.n M &.&.-.;._.:.<.` I J y /.).!. .` I J /.M P Z M X R F T {.[.}.|.` I J y /.).!. .` I J F M ` O P /.%.R Q G %.R ",
"G !.%.X H g l Y 1. .O Y 2.;.[.:.3.y o G H g l Y !.%.X J F X ).n *.!.R X 4.{._.5.6.y o G H g l Y !.%.X J F (.l X ).o I *.G  .%.!.",
"J J R (.l Z L G &.F J M -.7.| 8.9.J F J X Z L G J R %.F K J 1.X g K F X 4.{._.0.a.J F J X Z L G J R %.F ` *.X J 1.l /.R y G %.O ",
"H  .l $./.F X H %.y $.b.b.c.d.e.^.Y Z R /.F X H  .l  .h X ` &.o N o Y v T {._.0.f.Y Z R /.F X H  .l  .h R H J ` &.I K l /.P P !.",
"4.~.~.g.h.S S S i.j.i.2.k.l.m.n.o.p.4.~.4.4.~.4.~.~.q.4.g.4.g.4.g.4.g.4.r.s._.t.u.4.~.~.4.4.~.4.~.~.q.4.g.4.g.4.g.4.v.w.x.y.z.x.",
"A.B.B.B.C.C.C.C.D.E.F.c.l.. G.[.H.I.J.K.L.D.;.c.c.c.M.N.O.P.c.c.P.Q.Q.L.{.+ R.S.T.E.D.B.B.A.E.B.E.N.E.O.O.B.c.M.U.V.D.B.A.A.U.P.",
"W.X.9 9 9 Y.7 7 Z.^ `.f f f 8  +.+++@+] #+#+, $+X.%+D ; ; &+9 *+=+7 -+;+; [ >+,+'+3 )+!+&+~+{+]+^+/+3 ; (+_+@ $ X.:+& [ ; ;+<+: ",
"K u h m g k h g h i L j A h o [+}+|+1+2+3+t u u t l n n u /.u 4+5+x 3+h w K n h v I t i v n v K h u g o 6+7+8+9+0+3+k i u k X i ",
"R !.).l G M Q %.Q O M J R S G p.a+b+c+f.X x Y Z o P Q N O l !.(.X /.J n !.(.Q R S G M Q %.Q O ).R R =.J b.d+e+f+#.X x Y Z o P !.",
"!.O g+R X  .*. .M X g+H J =.G -.M.h+].^.G F J X Z y $.F R !.O *.Y R l Y /.(.H J =.l  .*. .M X P /.J  .!.-.L.e+i+W G F J X Z y M ",
"(.$. .y $.&.h.x !.&.(.Z M &.&.-.P.j+].|.` I J y /.).!. .` %.Y ).O G l ` G &.M M $. .&.h.x !.$.k+R  .O &.-.;.l+m+6.` I J y /.).J ",
"O %.L Q /.N Y G M F q.O  .O Y 2.P.+.n+6.y o G H g l Y !.%.F h.F N S M *.N P l M ).Z N Y G Q (.G (. .S X 2.c.r o+6.y o G H g l O ",
"J &.!.Z R g+Y !.K K g+M F J M -.P.+.p+q+J F J X Z L G J R G h.J *.` X R !.R M %.X J g+Y !.L (.r+(.%.Y s+-.c.l+t+a.J F J X Z L !.",
").X !.Z ` G X R ` G Q M y $.b.b.M._.u+v+!.Z R /.F X H (.X %.J X L !.L /.N F Q ` Q l G X R ` Y 4.&.Y N N 2.7.e+w+W Q /.J K y X F ",
"g.4.4.4.q.i.i.x+x.y+z+A+x.i.2.B+{.>.C+D+S S h.S S S S  . .$.&.N v.=.r+q.r+w.x+E+4.q.i.b.x+x.y+y.y+j.i.-.F+G+_.H+I+ .E+s+=.r+S T ",
"J+K+..;...0 L+7.;.;.M+L+..;.c.N+O+j+P+Q+R+S+C.S+C.S+C.S+T+P.C.D.E.A.A.D.;.U.M.c.;.D.A.A.A.;.c.c.B.A.A.A.l.U+V+@+W+9+A.A.M.B.0 P.",
"h+2 X+Y+^ 7 4 Z+`+f &+&+^ f `.`.,  @.@, / +@@@f #@f $@%@r &@*@=@-@;@W.>@,@'@)@X.#@@@+@;+~+!@9 9 @@+@; ; & D ~@{@]@< ^@/@~+( ) ! ",
"1+0+3+<.j u k ` n h u i Z u h m o (@g v h h Z j j h o _@}+V+:@<@E <.u i t ` i h u Z i g E h w L j h v ` t n I v g /.i j g o [@}@",
"|@f.X x Y Z o P Q N O Y l !.).l G M Q %.Q O M J R S G p...r 1@f.X x Y Z o P Q N O l !.%.J n /.%.M A !.*.M Q %.Q O M J R S G p.K+",
"2@W G F J X Z y $.F R Z !.O g+R X  .*. .M X g+H J =.G -.;.~ 3@^.G F J X Z y $.F R !.O $.l Y /.(.H G y &. .*. .M X g+H J =.G -.U.",
"4@|.` I J y /.).!. .` l  .$. .y $.&.h.x !.&.(.Z M &.&.-.;.[.5@|.` I J y /.).!. .` %.Y $.l ` G &.M M $. .&.h.x !.&.(.Z M &.&.-.M.",
"6@6.y o G H g l Y !.%.l M %.L Q /.N Y G M F q.O  .O Y 2.;.[.3@6.y o G H g l Y !.%.F h.M M *.N P l M ).Z N Y !.M F q.O  .O Y 2.M.",
"7@a.J F J X Z L G J R N J &.!.Z R g+Y !.K K g+M F J M -.7.8@u+q+J F J X Z L G J R G h.h.X R !.R M %.X J g+Q y K K k+M F J M -.M.",
"6@f.Y Z R /.F X H  .l (.).X !.Z ` G X R ` G Q M y $.b.b.c.9@0@v+!.Z J K y R Z %.X (.R X H /.N F Q ` Q l G R /.` X p.M y $.b.b.M.",
"a@o.h.S h.S S S S h.S E+q.~.~.4.k+i.b.x+x.y+x+y+j.i.2.k.b@_+c@d@S S &.Q Q Y Q Y &.=.g+y.b.~.q.w.x+E+4.q.i.b.z+x.y+e@y+j.i.2.k.U.",
"r f@g@h@h@i@i@i@i@i@j@k@l@k@m@m@;.M.A.D.N.E.B.B.A.C.A.b@n@| >.o@p@h@j@q@r@h@r@g@p@c.M.E.s@;.E.E.N.;.t@u@t@;.7.;.;.v@;.;.h@;.w@n@",
"x@y@z@A@B@C@#@9 $@9 ] D@*@E@F@G@4 3 3 A@6 H@G@, 1+&+I@:+(  @J@K@+@/ D L@y@, ~+7+b+M@&@e N@O@P@^+- K@#@X.$@K@%+@@Q@R@S@; +@+@T@[ ",
"t n v n n Z u A g v [+C+U@6 V@A k u i k X g o i K i g 3+o (@g v h h Z j u n I W@X@S.y@Y@6.t |.h 6.l h h u /.u n m z v 4+o j I y ",
"Q Q %.Q O M J R S G p.Z@{ `@#.X x Y Z o P Q N O l !.).l G M O $.Q O M J R S G p.L+ #.#+#@#n g Z o P G h.O l !.).` L I X $.L G  .",
"$.*. .M X g+H J =.G ##..V+$#W G F J X Z y $.F R !.O g+R X  .$.K $.X g+H J =.G -.N._.}.%#z H /.X Z !.h.F R !.O g+L H y x *.J /.S ",
"M h.x !.&.(.Z M &.&.##{.[.$#6.` I J y /.).!. .`  .$. .y $.&.h.I !.&.(.Z M &.&.-.N.[.t+#.g L g ` o S N  .`  .$. .F I J F M ` O S ",
"%.Y G M F q.O  .O Y 2.{.[.$#&#y o G H g l Y !.%.M %.L Q /.N Y n $.F q.O  .O Y 2.N.[.}.@#y I j Z j l N J %.M %.Z y l J F (.l X S ",
"P Y !.K K g+M F J M -.{.[.$#9.J F J X Z L G J R J &.!.Z R g+Y Y /.K g+M F J M -.Q.+.}.*#G F G X Z L (.R R J &.!.K M F ` *.X J v.",
"J X R ` G Q M y $.b.i.{.[.$#k J Z R /.F X H  .l ).X !.Z ` G X R ` G Q M y $.b.b.;.>.=#-#h n J /.F X l  .l ).X !.X /.h R H J ` *.",
"i.i.z+e@A+z+A+x.2.-.;#s.[.q >#4.~.~.4.4.~.4.~.~.q.~.~.4.k+i.b.x+x.y+x+y+j.i.2.k.l.e+,#'#T 4.~.4.4.~.4.~.~.q.~.~.~.~.4.g.4.g.4.~.",
")#!#..a+..a+a+..)#~#{#]#_.h+^#A.c.c.M.O.O.O.N.E.E.O.M.c.c.c.M.A.P.M./#A.D.R+c.(#_#h+:#<#[#c.;.D.L.B.}#E.;.;.k@|#1#;.;.;.m@c.;.c.",
"2#6 ; `.,@R@R@b +@f R@, J@J@3#4#X.9 K@> > ; , 5#' ; +@%+9 6#7#8#{ 9#E@0#a#R@X.9 B@b#c#: $@X.%+/ S@G@d#I@B@^@%+e#f#/ g#;+S@L@,#G.",
"6 h#3+<.j j t l h h j /.n v 3+g u A g v ` t g @#g h Z u A n I [+i#@+$@j#3+k#l#j k J v v u Z u n j E j o 4+o j v y z n h F I m#n#",
"o##.X x Y Z o P Q N O l !.).l G Y R h.*.h.(.J n O O M J R S G p...[.p#-# .L O Z o P Q N O l !.).R l L I X $.L G  .H G ` o i T Q+",
"q#W G F J X Z y $.F R !.O g+R J L J g+(.M O R Q M X g+H J =.G -.E.~ q#'.o F J R R y $.F R !.O g+J Z H y x *.J /.).` ` Y H x 4.K+",
"r#6.` I J y /.).!. .`  .$. .y  .`  .$. .r+$.G G G &.(.Z M &.&.-.V.8+s#a.X I J X y ).!. .`  .$. .X ` I J F M ` O P Z M R F x 4.t#",
"u#&#y o G H g l Y !.%.M %.L Q y l X h.*.I h.x (.M F q.O  .O Y 2.M.m.v#&#y o J R y l Y !.%.M %.L Y y G J F (.l X ).n *.!.J Z 4.t#",
"@.v+J F J X Z L G J R J &.!.Z J P H X $.$.h.x  .K K g+M F J M -.c.m.v#q+J F J G y X G J R J &.!./.F M F ` *.X J 1.X g K F y 4.t#",
"u#&#G Z R /.F X H  .l ).X !.Z y N l Y R %./.v O l G Q M y $.b.b.c.m.v#w#Y Z R /.Z l H  .l ).X !.K X /.L F l y J $.K %.L o Z 4.t#",
"x#y#p.4.4.4.4.4.4.4.4.g.T 4.T q.g.~.4.4.i.i.4.A+x.y+x+y+j.i.2.z#A#8+B#C#4.~.~.4.4.~.4.~.~.q.~.~.4.~.~.~.~.~.~.~.~.~.g.4.4.4.D#E#",
"F#G#H#K+K+H#{.H#H#H#H#..d+<#G#..L.K+) I#J# +T.Q.t#t#Q.N.N.K#N.L#% M#N#<#/#;.;.;.;.;.;.;.;.;.D.Q.B.c.u@c.;.7.c.k@O#O#c.t#Q.N.P#Q#",
"+@f $+$+C@6 R#S##+)+S#S@T#T#S@, 1+Z@+.|+R.U#@@R@9 R@@@6 T@6 #+!@, V#b#W#-@; O@+@+@+@+@+@+@X#Y#! Z#`# $7 - &+f .$+$@$#$9 7 ;+' y@",
"u A u i L g l t g @#n n K h u n I _@$${ !+%$3+<.j j t l n n z i u I x l t g @#n h Z u j n o I #+~ ;@j#3+t u j <.` u h j /.i g A ",
"Z ` !.O  .$.h.(.J n O O M J R S G T M.>.&$w#X x Y Z o P Q N v Y R h.*.h.(.J n O O M J R S G p.*$~ p#w#X x Y Z o P Q N O l !.).l ",
"y I Y Z &.(.(.&.y J M ` %.K ` S !.-.c.8@q#W G F J X Z y $.F X L J h.(.(.&.y J M ` %.K ` S !.-.;.1 q#W G F J X Z y $.F R !.O g+R ",
"y K Y !.&.N M O R Q M X g+H J =.G -.;.e+m+6.y I G F Z S !.&.o `  .=.(.M O R Q M X g+H J =.G -.c.8@q#6.y I G F Z S !.&.` %.$. .` ",
"` K G !.$. .r+$.G G G &.(.Z M &.&.-.;.e+v#&#` I J y /.S !. .H l X $. .r+$.G G G &.(.Z M &.&.-.c.G.r#&#` I J y /.S !. .` &.$.o Q ",
"H ` Y Y  .O I h.x (.M F q.O  .O Y 2.;.e+m+&#y o G H g l Y !.%.P x h.*.I h.x (.M F q.O  .O Y 2.c.m.r#&#y o G H g l Y !.%.M %.G !.",
"y x !./.Z *.$.h.x  .K K g+M F J M -.;.! q#q+J F J X Z L G J y R l X $.$.h.x  .K K g+M F J M -.c.m.r#q+J F J X Z L G J R J &.n R ",
"y K F x G R %./.v O l G Q M y $.b.b.;.~ =$w#Y Z R /.F X H  .l ).` G R %./.v O l G Q M y $.b.b.c.m.-$#.Y Z R /.F X H  .l ).X h  .",
"4.4.~.4.~.~.b.i.~.A+x.y+x+y+j.i.2.k.l.! q ;$4.~.~.4.4.~.4.~.~.q.~.~.~.b.i.~.A+x.y+x+y+j.i.2.A+c.m.$$>$T ~.~.4.4.~.4.~.~.q.~.g.).",
"c.;.c.;.c.c.c.7.7.7.;.;.;.7.c.i@;.l.(#~ { ^#E.;.P.;.;.U ;.;.;.U ;.7.c.7.;.;.c.c.c.c.c.c.C.A.B.,$G.~ C {.A.m@;.;.7.t@u@|#u@t@7.V.",
"% ~ m.>.`#G.`#1 | | | 8@2#e+`#Z#| | 8@h+M#R.h+M#[.[.[.{ [.[.>. #~ 1 % 1 ! ! d.F#F#m.F#F#9@! 9@% 8+'$l+| )$N#~ ! ~ e+8+O+8+e+~ ! ",
"N#R.N#R.N#N#N#R.R.R.R.R.M#R.N#R.R.R.R.M#R.R.R.R.R.R.R.R.R.R.R.M#R.R.N#R.R.R.N#N#N#N#N#N#N#R.N#N#N#M#R.R.N#M#R.R.R.R.N#N#N#R.R.R."};
