/* XPM */
static char *noname[] = {
/* width height ncolors chars_per_pixel */
"128 128 35 1",
/* colors */
"  c #878700",
". c gray67",
"X c #9B9B9B",
"o c #5F5F00",
"O c gray56",
"+ c gray50",
"@ c #373700",
"# c gray45",
"$ c #676767",
"% c gray34",
"& c #4B4B4B",
"* c #434343",
"= c gray23",
"- c #373737",
"; c gray20",
": c #2F2F2F",
"> c #232323",
", c #C7C700",
"< c #9F9F00",
"1 c #777700",
"2 c #E3E300",
"3 c #4F4F00",
"4 c #BBBB00",
"5 c #939300",
"6 c yellow",
"7 c #6B6B00",
"8 c #D7D700",
"9 c #DFDFDF",
"0 c lightgrey",
"q c #434300",
"w c #AFAF00",
"e c #C3C3C3",
"r c #BBBBBB",
"t c #B7B7B7",
"y c None",
/* pixels */
":@@::@::@@::::::::::::::::::::::::::::::::::::::::::::::::::::::::::::::::::::::::::::::::::::::::::::::::::::::::::::::::::::::",
"@@@@::@::::@::::::::::::::::::::::::::::=%=:::::::::::::::::::::::::::::::::::::::::::::::::::::::::::::::::::::::::::::::::::::",
"%q%%%q%%%%%@@%%%%%%%&&>OwwwwwwwwwwOOOO+OO++OO+55555 7q>>====:o1  ++++555<<<<<<55 1o:::>>=*&&*********&&&*&*&&&*****&&&&&&&&&&&&&",
"q%qqq%%qq%qqq%@%%q%%&&O.,,,,,,,,,,..XXXXXX.X..wwwwww 7q>===&O.XXXXOOOOOO,,,,,,O O+#%::>>=&&&&&&&&&&&&&&&&&&&%%%%%%%%%%%%%%%%%%%%",
"%%%qq%%%%qq3qq@@%%%%&&.rt.w4wO44wwXXXX,,,,OOXXOOw444<13q==:OtXOOOOwwOOw,<<<<<<1 O+#%=:>>=*$#11111111++++####%&&&&&&&3o&&33&&&&&&",
"&&&&&&&&&&q33qq@%%qq&&.rtXwwwwwOw<XOO4,4,wOO+OOO<w44513q==#.tXOOOOw,ww,w<5 <5<1 +##%=:>>=*#+<<<<<55<OOOO++# ##%&&&3ooo&&o3&&&&&&",
"+++++++++++11+%%&&qq&&.wtXw<4OwO<5O+w,4,w<+OXOXX <ww1O3q==O.tXOOOO<w4wOO5   51O7+##%=:>>=&7<4444<555rrr...,,w<55OXOXw<5 ++++++++",
"XXXXXXXXXXXOOO+%=&%%&&.wwXwOwO<<5 XOw4,w<<OOOXOO 5ww##q>==O.tXXOXOOOw4OO 1  51OO+##3=:>>=&7<4,,,< 15rrr88,,,,,,,XXXX4,4,X<XXXXXt",
"....<<..XXXOOO+#=&%%&&.wtX<5<5+  1OO<44<OOO O+OX5Xw<%oq>==OXtXOO5OOOOOOO O 1 17O+#%%=:>>=&1<4,w< 1OOttttrr,,,,8288884444w<ttttt0",
".4<4<<<.<.XXOO##=q&q&&.wtX<5O5O 11OX5<w5XOO5XO+O+X<<1o@q;=OXXXO4wOOOOOOO O 111OO+#%3=:>>=&1<4,w 11OO..,..w,,2,,8....,,w<w<.....e",
"OO <5<<<OOXXO+#%==qq&&.w..<55 +1O7+O5<O+OO<5OOOOOO5 1o@@;=#OOXw,4wOOOwOO O17XOOO+#%%=:>>=&1<w,<1+OXOXXw28,wO<5<<O OO<ww 51OOOOOX",
"O+O  <55O<XXO+#%==q%&&.r.X<O + 1XXOXO5OXO+<<+XOOOO  %3q@;=##OXw4w<OOOOwOOO7oOO7O+#%%=:>>=&7<<w51OXOOOO,28,<X<5<5XOOO<<5  1OXOXOX",
"X+XO1 OOOOOXO+#%==*&&&.wtO<5 +5 O7OOXO+OO+5 +O5OOO+#%3@@;=%#+O<<55<wOOOOOO7OOOOO+#3&=:>>=&7 << 1OOOXw,8,,,<O 5<5O OOX5 OX7OOwwX.",
"+OOO11O11OOX+##%>==&&&.rtX<5 OO5XXOOO55O+55 OXOOOOO#%q@>;=&%#+<<  <<OOOOOO7OOOOO+&&==:>>=&7 5<11OXO<w,8,,,<O1  5O XOO OOOOOOwwX.",
"O+11OOOO+OOO##%@>:;=&&.wtXO  X5OOX<O+O5OO+5 OO+XOOO#%q>@;=&%%#15OOOOOOOOOOOOOO7#%&=3=:::=&7 5 +XXOX<<w,,Ow5O1 1 X 1OOXO55OOX  OX",
"OO+OOOO1OXOO##o*>:;=&&.rtOO1X. OXO<O<OOOXO  XOOO5OX#3q>>;=&&%%#1+OOOOOOO OOOO+3#&33=:>::=&7  1OXOOO<OO,wXw5O1 1 O 1OOOO5OOOO  OX",
"+O+O+1+OO1OO#%&q>:::&&.rtXXOOOOOOO<w<X+XOOOXO5OX5OO7%q>>>;&&=&&&%############%=3====:>::=&#+1+XOXXOOOOwOX< 11OO1O1 O5+OO5+OOOOOO",
"OOOOOXOXOOO+#o&q>:::&&XttXOOOOXOOXww<OXOOOO5XOXOOOO73q>>>;;&&=%===================::>>:=*&#O+OXOO5XOXOOXO OOOOOOXOOO OO +OOOO1+O",
"OOO+OOOOOOO#%q@q>:::&&XttOXOOOOOXO<ww<O+OOOO5OOOOXO7%q:>>;;=&===&&&&&&&&&&&====:::>>>>:=*&%#OOXOOO5<O5OOOXOX1OO O1OO+OO O+  O1O+",
"O+XOXO1O++#o%q@@>:::&&XttX+XO5OOOO<ww<OOOOO OOO5OOO#33:@>>;=&&::::::::::::::::::>>>>>>:=&&&#..X5OO<<OOXOwwOOOO OOO +O+OO+++1+O+O",
"#O#+####%%q&*@:@>:::&&OtrXXOOOXOOOww<5OO5O+5OO5OOOX7%%:@>>;=&&=>>>>>>>>>>>>>>>>>>>>>>:==&%&#X.X55<OX<OOOw<OOOO +O+1++O+1 #O#+#O$",
"########%&3*=@q@>:::&&OXrXXO5OOOwOw<<5O5OXOOOOXOO.X#%%:@>>;===@=::::>>>>>>>>>>::::::::==&%&#XXXO<5OOOOOOw<O++##+#+##1#+11#######",
"%%%%%&&&33q@@q>>>:::*&#XrXXXOOO<w<w<5<OX5X+XOXXXOOO#%%=@>>;=@=@===>>>>>>>>>>>>>>>3ooq>==&%&#OXOO++++11++55##%%%%%%%%%%#%#%&%&&%&",
"&***===q=q:>>@>>::::*&#Or.XXOOOO<<<5 5XOX+O1  OO.OO7%%=>>>;==@==&#####++OOOXX.rrr.113q>=&%&$#OO+########5 #%oooo&%%&&%&%&&&&&&&&",
"::::>>>>>>>>::::;;==&%&O..XOOXOX<O< O5XXXOO51OXO<<O#%%=>>>@;;==#Ow,,,,r8.8....XXOO<513>:&%&&%o##1#717%o%11&oo33=======::::::::::",
">>>>>>>>>::::::;;;==&%&+.tXOOOOOXO5 X5OOOOXOXXOO<<O#%%=>>>;@@;##8,8888t8.,XXXXXOOww<13>:*&&&&%%$$%%%o&&&oo==3==:::::::::::::::::",
"::::::::::::::@@q;q=&%&#Xt.OOO5OOO5OOOOX5OOXOOOOOXO#%%=>>>@@@;+X86,,84.,XXXXOOXO<<##o3>:====*********===33----::>>>>>>>>>>>>>>>>",
"::::::@@::@::@q:q;==&%&&Xt.O5OO5OO5XOOOXOOOOXOXOXOO#%%=>>>:@@;Ot,8,,4<XXXwwXwOOO<5##o3>:=============-----::::::::>>>>>>>>>>>>>>",
"====@@qq====q=q=q===&%&&O..XXXOOXOOOXOXOOOXOXOOX  O#%%=>>>:@@;Ot,w4wXXXXXO4,44OO<5+#13>:==::::::::::::::::::::==================",
"=====q33=q===33===qq&%&&O..XXOXOOOOwOXOXOO O OOO  +#%%&>>>:;@;Ot,ww<X.XXOww,w4XO 5+#13>:==-=====================================",
"%&**=====q=qq===q==q&%&&#X.XOOXOOXw,<<OO+++OOOOO11O#%%&>>>:;@;O.8<w<OXXO,w4,5,OO 5+#o3>:==&&&&&&&&&&************&&&&&&&&&&&&&&&&",
"%%%7%%%%%&&&&&======*&&&#X.XOXOOOOw,w< O ++ OOOO11O#%%&>>>:;;;OX2< <XOXO,4,,OwOO  1#oq>:==&&%%%%%%%&&&&&&&&&&&&&&&&&&&&&&&&&&&&&",
"17O1OOOOOO+######%=;;=&%&OX.OO5 OO<w5 1+OO+O+OO+O+O#%%&:>>>;;;w22<X<OOOX4,4wO5OO1 +#&q>:==7 <<5 #%%%&&%%%+OOOOOOOOOOOOOOOOOOOOOX",
"X515XXXXXXXOOOOO+#:::;&%&+X.OO  1O<   +O+ +OO+OO+OO#%%&:>>>:;;5,w<.OOOOO4,<<XOOO1 ##&q>:== <www<1%%%&&&%+OXwwwwXXXXw<wXXww<ww<Xt",
"r44ww4rr4r,<<5OO1#=;:;=%&#O.OO15 O 1O7+O+O+O+O++O+O#&%&:>>>:;;1wtwXXOOOO<455OO+171+7&:>:=% <ww< 1%&&&&&+.t,,,,,,rr44rrrr,,,,,,r9",
"44,,4w4...<,5<O+##=;:;=%%&O.OO5  O17+O++O+O+O++O++O#&%&:>>>:;;o5OOOXOX4O<<11O+O17+7#&:>:=#5<w<  1%&&&&&+wr,,,4ww..ww.w..,,444,4e",
",4w<5<<<<w<<15+1##=;>;=%%&#XOO1OOO#++++++++#+#++++#%&%&:>>>@;;=%%%O.XO24++#++++11+77&:>:=#5<w<X1O%&&&&&O4,4,wwwX,24<XXXw44ww<<ww",
"4w<5 1 <ww<515 11#=;>;=%%&#XO+OOOO+++#++++#+#####%&&%%&:>>>:;;;==%&OOO4w##+#++##7##%&=>:=#5<w5XX5%=&&&&O,4w4wwXX,24<XXwXw,ww<5<.",
"w<5 1O<w<w551 717#=;>;@&%%&OO+############%%&&&&&&&%%&=:>>>:@;>>>=%&&& 1%%%%%%%%%%&&==>:=+5<<5OOO%=&&&&O,4wwOXOw,4<<XXXOw4ww<55X",
"<5  X5<<<< 517+7#%=;>:@&%%&%+##%%&&&&&&&&&&&%%%%%%%%&=::>>>:@;;:>>=%%%%%%%##%%%%&&===:>==O<<<5O5O%==&&&O,4wwXOOw4<<<OwwXw4w<< OX",
"   1OOw<<5 511+##%=;>:@3%%&===========&&&&&&&&&&&===::>>>>>:;@::::>:::::::::::::::::::>==Owt55OXO%:=&&&OwXXXOXOO<<OOXOw5www<5 O.",
"  111155<51171+##%=;>:@q3%&&==================::>>>>>>>>>>>:@@:>:::>>>>>>>>>>>>>>>>>>>:==Owt5 OXO%:=&3&OwXXOXOOX4<OOOXw55w<<< XX",
"OX1O1O<55 OO71+##3=;>:@qq%&&::::::::>>>>>>>>>>>>>>>>>>>>>>>:@@:::@@:::::::::::::::::::*=&Ow.5OXOO%:=&&&OwXOOXOXOXOOXOO55O5<w51OO",
"XOO1X5<5 1OO7O+##%=;>:=&%%&&::::::::>>>>>>>>>>>>>>>>>>>>:::;:::::@@::@:::::::::::::::==&&XrX5O5XO7:=3o&OwXOOOXOO5OXO5OOOOO<w51OX",
"OO1O 1O X1OXOO+#%%=;>:;@%q%%&&==>>>>>>>>>>>>>>>:;===========****&&&ooooooooooo#%&*::===&%.rXOO55+7:=33&OwXOXw5XXOOOOOOOOXXOwX1X.",
"OXO< 1OX1OXOXO+#%&3;>:@@&%%1&&==::=:=:>>>>>>>>>;*&&&&&&&&&&&&&&&o7 5<5<5<555<< 1%&;;==&%Or.XOOOO+7@=&&&Ow5OOw OOXOOO5OXO5OO5OXOX",
"<4,,<<XOOOOOXO+#3q3;>:=@*=11555555OO+OO+#&**===&&7 5<555<<5<XX...tr4,,,,,,,4ww< 1q;>==&#.r.XOwOO<1q=&3&+XXXO5XOOOXO5<<OOXO5OXOOX",
"O4,4< XXOOOO O+#33=;>:@=#5w,,,ww<<XXtXXXO#&*==*o7 w<4444,,4wtwtrrrt.www44w44ww< 1q>>==&#.rXXOOXO4 q=&&&+XOOOOXOO5OO <5OOOXOXOOO.",
"O<w<5 OO XOOO +#o*oq>:==1www<<<5+1OOXXOOO+%&**3o1<44www.XXXXXXXXXXXO5<O5<< 5<<  7q>>==%Or.OXOXOO453@&&o5OOOOX5<X555 < XOXOO5X5OO",
"OOw5  XO O O O#%&33q>:== w<w<<51O+XOXOOOO#%&&*&&1<44wwXXXO.O<OXXOOOO 5O15< 15< 17q>>==%Or,OOO5XO453@&&o5#OOOOX<<555 OOOOOO5OOOOO",
"++<5 OO 1XOOO+#%*o3;>@@=5w<<5 1+XXXXO5O X#%*%*&&+rwX.5XX<<XOw,OOXOX+O OO 5.1 <11oq>>==#O4,OOXOOX<53@&&o1oo++++5<55   17o++++OOO+",
"##5  # 1o+++##%&*qq;>:@=5w<5  1OOOO5O5O .#&=&&&&+rtX.XOO<<wXw,XXOX4X+XOX 5O1 <17oq>>==#O4,OXO5XX<53@&&o133&###1 <5  117o#######$",
"&%717$$#####%&*====;>@@=5w55+11OOO55<< 1X#==&&&&+r.X,,XO<O,,5wOO<,,<OOOO 5O.15#%oq>>==#O4wOO55OO  3:%3oo:===&&o711111o&&&&&%%%%&",
"&&&o%&%%% 1&**==@@@:>:==5w5 O++OOX5 5<5 O#=-*&&&+rwX,8OOwX,, 5OOw,,4+OOO1 OO15#%oq>>==#OwwOOO5XO 13:%333=:::;=33oooo33==**&&&&&&",
"&&&&&&===o3=;;@;@@>>:;==5w5 O+OO5O5+55 1 +=-*&&&+r.X,8OOw,w4X OOw,wwO.O511OOO1#%qq>>==#O4<OOXOOO o3:%333&=:>>>@@q@qqq@>:::--=*&&",
"***===;;;;;;::@@>:::;===5w5 OOOO5O+O5 11 +3-*&&&+r.,,,OOw,<4+XOO<4<wOOO1<O5XOO#%qq>>==7O4XXOOOOO oq:%33%3&=:>>>>>>>>>>>>>>>:-===",
">>>>>>>>>>>>:::::;=**&&&<X 1OXOO  OO511 O#3-=*&&+ttww4O5w,<4OOOO O<5OOX<ww55OO#%qq>>==7w,OO<OOXO %q:%3%%%%&=:::::::::::>>>>>>>>>",
">>>>>>>>>>>>::===*&%&&&&<X 1OOOX  OO 711O73-==*&+ttXw445w,5wXOOO+ <OOXO<w<<51O#%qq>>==1w,XOOOOOX1%@:%%%o%3%%&=======::::::>>>>>>",
"&*&&&&%%%###########%*>><X11XOOO  OO7+77O7qq--*&+ttXww45<w<wOO OOO OOOX<w<<55 #%qq>>=31w,O<<OOXX1%@:%o%%%%%%%%%%%&&&&===========",
"&&#### # OOOOOOOOOOO&&>>rX+OOO1O1 XX+O7+X#qq::*&+.twwwX<ww5wOO  +O + XO<<w 5 X#%qq>>=o w,O<<OX<O#%>:%%%&&&&&%%%%%%%%%%%&&=======",
"##OOXX< <wrrttttttXX%=>>rXOOO+OO11OOOO7OO7q3::*&#XtXOO4,<w5<OO+OOO1 OXO5<w<  1#%qq>>q7 <,X<55O<5#%>:%%11  5555  117oo3&&&&&&&&%%",
"##OO<Xw<wwXXXXXXXXOX%=>>rX+OO1OO71OOO++XO#33::*&#OtwO5,4< 15OOXO O +OO55<5 1+X#%qq>>q15<4OOO5O<5#%>:%%1 5<<<<<www< 1177o&&&&&&%%",
"#+<Owww<< OOXXX.OOOO%=>>eXOO+1+O+7OOOX.OO#33-:*&#O..4,4w 1X1OXO+OXOO+O+X5511OO#%qq>:=75<wXOO<5< #%>:%##+<< 5<<5<<<ww<<<<5 #%&&&%",
"#+<<w<5w< O OOOOXOOO%=>>eX+X111OO++OXOO1O#33=:=&#OXt,w< 11OO+  OOOOOX1OO<5  +O#%qq>:=o <4OOX<5< #3>:&##O<5 1<<<55<<<<www5 +%&=&%",
"#+<ww<1  OOOOXwwwwXO%=>>eXO+111+OX  OOX+1#oq=:;=&#Xtw<5 O O<  +X O1OOOXO<5< ++#%:;>:=3 <,X5O<<5 #3>:&#+O5 OO5<55 5555555 1+%&=&%",
"#+<ww<  XO+OO <w<5OO%=>>eX+O+11OOO  X+OO1#oq=:;=&#Xt<< 1XX<<5  ++OOOOOO+55< OO#%:;>:=o1<4OOO<<51#3>:&#+O O<X5<<5        11+%&=&%",
"#+<w<< X+XOOXO5w5 XO%=>>eXOO+11OXOO+X1OO+#oq=:>;&#Ot.w O4,w<5< OOO++1OOX5w< OO#&::>:qo#OwOXX5< 1#3>:&%+OOXX.5<51O1O117++1##%&=&&",
"#+<w<<+OXO +OO5w5 OO%=>>eXOOO1+XOOXOO+X1O#oq-:>;&#O.. XOw4w<5<+OO+O   XO5w  O##&::>:q7#OOOOX5< 7o3>=&%+XX<XX5<51XOXO7o++###%&==&",
"#+<XO OXO OXOO5w  OO%=>>rX+OX++OwOOOXOOOO#o3-:>;&#OXtXOOw,< 1 OOOOX  X1O<<  OO#&>:>:q7#OOOOO 5 73q>=&%#<< <X5<51OOOO7++1###%&==&",
"#+ .O  OX  O<O<w<1OO%=>>rXOXOO+O4wXOXOOXO#o3-::;q##XtXX <w  1 O+O +11OO<5<1 O+#*>:>:qo#O,OOO 5173q>=&%#O  1O5<51OO+O++#+11#%&==&",
"#+.XXO O  OO<w<<<1OO%=>>rXOOXOXO44w<OOXXO#o3-:>;*%#OtX <551 O XOXOO1OO5w<<O1O+$;:>>:&3#O,XOO  1o3q=&&&#XOXOX5<51OOO+++11###%&==&",
"#+ XOX+O+O+O<w<< 1+O%=>>rXOOOXOX4w<<XOOOO#o3-:>q*3#+.X  5 11+7OX+OOOO5ww<5O1+$&>:>>:&3%+OO++1 7o3q=&&&#O<1OX5<51OO1+1O#+###%&==&",
"#+..OXO +OOO< 15 1++%=>>.XXOOOOOw< <OOOOO#73qq>q33%#XX O 1O7OOO+XOOX5w5O1 $o**;;:>@=&33#####o1o3qq&&&&#OOOOO5<  O+O++#++###%&===",
"#+..XOXOO +X  1 11+#%=>>.XOOOOOOw51 OOOXO#733q>;33&#O<X.11OOOXOOXXOO55$&oo****;=>@@=&33&%%&&7o3qqq&&&&=##+OO<< 1O#11#+####%%&===",
"#+.XX O OOXO511 +7#+%=>>XXX+ XXO<5+1OOOOO#733q>q33&#O5<<X7OOOO++#$&****&&&$%%&=;>>>=&=3::>>>@@@@q&&&&&=&####  17#+######%#%&====",
"#+.XOX+ O<O+1711OO+#%=>>XXX++XXO+5++XOOXO 7o3q>qq3&%# 5<XOO O+$***&&**;;;;;;;;;>>>@=&&======qqqq&&&&&&=:=&&&o77o%%%%%%%%%%&=::==",
"#+.. OXOww< O7X7OO++%=>>OXXOOXOX+ OXOOXO5#7%3q>:=q3&=o   +#$$*****;;;;qq>>>>>>>>@@@=&&&&&&&&3ooo%%%%%&==:>>>qqqq::::::::::>>:===",
"#7.X XO ww< OOX O5O+%=>>OXXXX  XO+XOOO O517%3q>:;=3*>:o7o%%&&&*=;;>>>>qq>>>>>>>>@@@=&&%%&&33oooo%%333%&&=:::::::::::::::::::====",
"#1..5OO5O<5OOX5w<5++%=>>+XXXO++XXOOXOOOX517%3q>::33&;>>>>:===;>>>>>>>>>>>>>>>@@@@>@=q&&&%%&&o3o33&&&&&&&&&&=====================",
"#1.X<XO<XXOXOX5w< ##%=>>+OXwOXOOOOXOXXOXO#7%3q>::3oo*=;>>>>>>>>>>>:;;;;;;;;;qqqqq;=*&&%q%%&&&&&&&&&&&&&&&&&&===================&",
"# w.w<wwOOXO5w5<5 O+%=>;%OXXO XO5OOOOO XX#o%oq>::333&**=;::::::::=********q*qqooqq&qq&%%%%%%%%%%77777777777%%%%77%%%7%77%%%===&%",
"#5wXw<<wOOXX5w <  +#%=>;%OewwXXX5OOO O OO#o%oq>::q3q&&q&==========&&&&&&&&&&&o7o&%%%%%q%%%%%++++        1++++   ++++++++++#&==&%",
"# ww<<5<XOOO5< 51 +#%=>;&+eXXXXO<<OXOOXOX#o%oq>::qq=qo71111          17%%%%%%%%%%%%%%%%+OXXXXX444,,,44w5X.tt,24wX4,,ww  XX+%==&%",
"#5ww<< 5OO X5<1 11##%=>;&+eXwOXX<5OO1 OXO#o%oq>>::;qqo 5<<<<<<<<<<<<5 +++++++++++++++O.ttr8844,,,,,4ww5 .rr82,<4.4,,ww <XO+#==&%",
"# ww <O1OO XOO1 11##&=:;&&eXwOOO5 OXX1XOO#%%oq>>::q=o15w4,,,,,,,,,,,,,w<XXXXXXXXXXw5wrrrr848,,www<<ww<XXrr,2,4X .Xwwww<w5 ##::&&",
"# ww 5OOXOXOOO1171#%&>:;&&eXOXOO  OO 1XOX#%%oq>>>:;=71w4,,444,,4,,4,44w5ttttttttttt4tttrrt.4,,ww<  5<5X...88wwXX..w<<w<w5 ##::&&",
"#1ww 5OXOXOXOO17O7%%&>:;&&eXXOXO1OOOXOOXO#o%oq>>>>:=o14,4ww<<44w<<wwww<5twttttt,t,,,<<..XXXX4w< XXXX4w,,wwX<5XX5ww<ww< <+##%=:=&",
"#1ww  XOO OO+O7+O+%%=>:=&&eXOOOOXOOXOOOOO#%%oq>>>>:=o14,w45O+5w<+#<w<w< .5........,,w<XXXXXXww< XXXw,,44w<O5OXXX55<<w<  ++#%=:=&",
"#1w<  XXOO+ O +O++%&>>==&&rXXXOOOOOOXOOOX#%%3q>>>>:== w4<<<<O+<<OO<<<<5 w .XXXX.XX<45< XXXXX<<XOOXw,w<ww<OOXOOOOXOX5w<##+##%=:==",
"#7w<1 OOOOO+OO+++#%&>>==&&rXOOXOOXOX XXOX#%%3q>>>>:==7<wOO5<<O5<<O5<5<  5 X.XXXXXX<w5 OXX.XXXOOOwOw,w5<w5OXOOXXXOXO<<5#++##%=::=",
"&7< 1 OO O+O+++++#%=>>=*&&tXOOOXOO+OOOOOO#%3=:>>>>:==%X<t<X5<< 5w<5   1171XXXOOOXXX X1.XOXXXOOXO,w5w<X55XO<XOwOOOOX5<5#O+##%=::=",
"&7  O O+O+  +O++##&:>:=*&&tXOXOOO+XOOOOOO#33=:>>>>:;=7X.t.XO<<  <w5   1171XXOXXO  ..OXOOXOOX4<OO,wO5OOOXOX<<O<XOOOXO<5+O+##%&::=",
"&#1 O1+O O11O+O##%:>:;=*&&XXXOOOOOOXO O  #%3=:>>>>:;=%X<t.<.5<11 51171O7OOXXOOOX XOXOXOXXX,4,wOO<wOOXOOOXw<<w<XOOOOOw5+++##%&::=",
"&&O1OO#++++++#%%&:>::;=*&&XXOXOOO OOO XXO#%3=:>>>>@:=%O.<X.X55 11 17o1O7OO1XOXOOOOOO OXX4X,,w<OO <OOXOOOOX<<w5OOOwOOw5+O+##%&::=",
"&&#+++#####%%%%&:>:::;=*&&OOXO+X+XOOOOOO+#3%3:>>>>:::%OX<<tX5 O7X71Xoo.O1OOO<<OO O OOOXO,,wOOOXOO OXOOOXOw4ww5XwOXOO5 +O+##%&>:=",
"&&%###%%&&&&**=>:::::;q*&&+OXOXXOOOOOO++7o3%=:>>>>>:::+O.XXX  XOOO7OX1OXO1OO  OO OOOOOOOw,XOX<OOXOXOXOOO<Oww5 O++OO<++O++##%&>:=",
"&&**===;;;;;;;;::::qqq3*&&%+############o%3&=:>>>>>@::&+OXXO XX OXOX<5ww 1OX1XOXO OXOOOXOwOX<wOXww<O<+++<ww5O+Ow<O+<ww<5+##%&>:=",
"&&*=;;;::::::::::::;q33*&&&%%%%%%%%33%%%%&&==:>>>>>:@:&#+OXX1OOOO1OOww<w5 XOOOXOXOOOOO5OwO<Ow<OX<wO+OO++<<5 OO <w<OOw<55+##%&>:=",
"%%%%&&*==;::::::q::qq33*===========q==q==q===:>>>>@q::=&#+OOXOOOOO1Ow<5w 1OOOOOOO++<OOw<<<<w<5OOO5OO+OO+O+OO+O+ < O+<O5 +##%&>:=",
"%%&&&&&&*=;;;:;::::q=3**==::::::::::::::::::::>>>>>:::==&%#OOO1OOOO5w5 <51OOOOO <O+OOO<<<<w<11XOOOO<O<++OO+OO+<O+O+O+5+++##%=>:=",
"&&&=====&****=;;;;::==qq=::>>>>>>>>>>>>>>>>>>>>>>>@@q:&&&&%########1  1151OO <XO<OO<+O<<<w51OOOO+5++O+O+5+5 <O+O<<O++++O+##%=>:=",
"&&===%%######%%======qq3q:::>>>>>>>>>>>>>>>@@@>>>>@@::%%&&&&%%%%%%%%oo77 1+O <OOOOOOO+<<<511O+O+O+O++O+O+O5<<++O<<++5+O+##%%:>==",
"&==#OOwwwwww<5 1o%&==q3q=::::::::::::@::::@@@@:::@@q=3o%&&============3o77####++O+w5++5<51+++++#++++ +++#+#<5+ +55O+O++###%&:>==",
"&=#O.w,,88,,44w< 1o%%%&==:::::::::@::@@::@@@::@:@:::=3oo&3&=:::::::::::qo&%## ++OO5 +#15 1+#+#++++#++11#+#+#++#++#++++####%&>>==",
"==+.,,22888,88,,ww< #%%&&===:::::===@====@==@@======&&oo&333===:::::::::3&&%%%######### 1######## ###17##1###1###########%&=::==",
"==O.,8228,,,,,,,4ww<XO+#%&&3ooo3::==============@@==&&%%&3&&&3=====@@@=:q=&&%%%%%%%%%%%%%%%%%%%%%o%%o%o%oo%%%%%%%%%%%%%%&&==::==",
"&=Ot,8w,wwXXwXwwXXwrt.wwww<<5<<5555555<<55  11777%%%###%%%%3&&&&&qq@@===:::=&&&&&&&&&&&&&&&&&&&&&&&&&&&3&&&&&&&&&&&&&=====::===&",
"&=Otw,www<OOOOOOXwX..t,88888,,,,,,4w4w4wwww<5 O+++++#######%&&&&&3qq&====:::::::::::=============qqqqqq=q==========:::::::::==&&",
"&=OtXwO<w5OXOOOOOXXwX.trrtt.<w<wwww<<<ww<ww<<<5 XXXOOOOOOOOOOOO+#==&&%=====::::::::::::::::::;;:::@@@@@::::@q:::::::::::::===&&&",
"o=OtXOOO<5OXOXXOOOOOOOX.......<<<<5<5<<<w<<5<<5<w.wX.w.w.....XXO+#::=&&&========q=::@@@:@:::@@@:::::@@@@@@@@@:::::::::::====&&&&",
"&=O.XOXOX XOOXwOOOOXOOOXXXXXO5O5X5X5XXX<XO 555< XXXX..rr4444tt..O+=::=%%&&======q===@qq@@qq@@qq@==========================&&&&&%",
"&oOXXOOXOOOOOO4OwOO<OO XXXXXXOXO55OXOXXXOO    < OOOOXw.<4w4w..XX.+==:=%%&&&&&&====q=====qq=qqq===q=q======3=============&&&&&&%%",
"o=O.XOXOO  OOw4<4w< OOOOOXXOOOXXXOww<wXXXO1OOO11OOOO OO<<w< OX++.#3:>=%33&711111111+#%&***&&&&33ooooo1oooo3333&3oo3&&&&&&%%%%%%%",
"&o XXXOXO  OOw<5<w< OOO OOX XOOOO5<<w<XXXXOXOO1OOO    OO55   O + #=q>=333&7 <<5 5<OXO+&&&&%%%%o1 5<w<<  1111 o1 17o3o7o&&&%%%%%%",
"&o XXOXOOOXOOw<w 5 7OX OOOOOXXOXO55OO5OOOOOO1XO1OOXOO XO OO OXO O%=q>:33o&1<5<<5< Xttr.O+#%%%o1 4,,,,4w<w4,,5    5<<ww< o&&&&&%%",
"o&OXXOO OOXXOXw45 17OXOOXOXOOXXXXX55.XOXXXOOXOXOOO XOOXOOXOOO O O73:>:33oo <55<55 XX.rrr.+#%%o1<,,,,,,w<..,,.....ww,XX5< o&&&&%%",
"&&#OOXOXXOOO.O <1oX7OX  O OXOO.O..OXOOXOOXOOOOOXOOOOOXOX OOOO O#+73:@>=3oo#X 555 1X XX5XXO##%&o5ww.XX<<XXXXX<XOX,,w<OXXw< 1&&&%%",
"&o%#++OOOXXXO5  1oXXOO11OOOOOOXXOXOXOXXXOOOOOOOOOOOOOOXOOOOOOOO#7o3@>>=&o&+X   111XX55XXXO+#%%o w.XX<XXXO<OXXXXX,,<<XXOXOO+%&&%%",
"&%=%#########o717#####oo#o#############+++##++#%=%%##%##%%#3%33oo3=@>>:&&&+X15 1+7X1 511OO+#&&1 wXXOXXOX<w,,XXOXw<5 XOX OO+%=&%%",
"&&===&*******3*3*3******************==*********====@=@@==qqq==3qqq:@>>:oo&#O7 17O+O11 OOOO7#&& 5XOXOOXXO<,,4O5OXw<  X OOO +%:=%%",
"&&===:::::::::::::@:@:::@::@:::@:@::@:::>>>>>>@>>>>>>>>>>>>@@@@@@@>>>>:oo&%+q1o3++ ++15+++#%oo1XXOO<OOw4,,4<OOOOw5O7O OOOO+%:=%%",
"&&*=;:::::::::::@@@@@@::@@@@:@@@@@@@:>>>>>>>>>>>>>>>>>>>>>>>>>>>>>>>>>:&&&=%3o33######1##7qq&o155OOOOO,<w<<5OOOO51OOOOOOOO#%:=%%",
"%%&&=====;;;;;;;@;@@@q@;;;q@;;;@@:@:::::::@@@@:::::::::::::::::::::::::&====@33q%%%####%&qq:==7+++++< <5+++1++117o+++++ +##%:=%%",
"%%&&======::::::;===qqqq;;@::q::::::@:@@::::@:::::::::::::::::q:@@:::::&@@==@@@q::::@@@@@:q===q7%%%%17oo%%%%3oooooo3%%%%%%%=:&%%",
"%%%%%%%&&*******&&&3&3qq====qqq======================q=qq=======qq=q==q=@@@===@@@@@@@=qq=qq===q&==::::::::::::::::::::::::::=&%%",
"%%%%%%%%&&&&&&&&&&&333q3q=q==q===q=qq====q=q@==q=========qq======@===qq=@@@q=====qq====qq=====qqqq==========q3333==========&&&%%",
"===================qq=qqq===q====q==qq====q=============qqqq=qq==@@@qq===@=qq=qqq=q===qqq==========q=====3=q33qqq333qq=qqq======",
"=======================q=========================================@=@@=======qqq=======q==========qq=======qq=q33==qqqqq========="
};
