/* XPM */
static char *k[] = {
/* columns rows colors chars-per-pixel */
"64 64 256 2 ",
"   c black",
".  c #0000A8",
"X  c #00A800",
"o  c #00A8A8",
"O  c #A80000",
"+  c #A800A8",
"@  c #A85400",
"#  c #4C4436",
"$  c gray33",
"%  c #5454FC",
"&  c #524A42",
"*  c #5E5246",
"=  c #736352",
"-  c #685D4C",
";  c #FCFC54",
":  c gray99",
">  c #ECECEC",
",  c gainsboro",
"<  c #D0D0D0",
"1  c #C0C0C0",
"2  c #B4B4B4",
"3  c gray66",
"4  c #989898",
"5  c gray55",
"6  c #7C7C7C",
"7  c gray44",
"8  c #646464",
"9  c gray33",
"0  c #484848",
"q  c gray22",
"w  c #2C2C2C",
"e  c #202020",
"r  c #FC0000",
"t  c #EC0000",
"y  c #E00000",
"u  c #D40000",
"i  c #C80000",
"p  c #BC0000",
"a  c #B00000",
"s  c #A40000",
"d  c #980000",
"f  c #880000",
"g  c #7C0000",
"h  c #700000",
"j  c #640000",
"k  c #580000",
"l  c #4C0000",
"z  c #400000",
"x  c #FCD8D8",
"c  c #FCB8B8",
"v  c #FC9C9C",
"b  c #FC7C7C",
"n  c #FC5C5C",
"m  c #FC4040",
"M  c #FC2020",
"N  c #FC0000",
"B  c #FCA85C",
"V  c #FC9840",
"C  c #FC8820",
"Z  c #FC7800",
"A  c #E46C00",
"S  c #CC6000",
"D  c #B45400",
"F  c #9C4C00",
"G  c #FCFCD8",
"H  c #FCFCB8",
"J  c #FCFC9C",
"K  c #FCFC7C",
"L  c #FCF85C",
"P  c #FCF440",
"I  c #FCF420",
"U  c #FCF400",
"Y  c #E4D800",
"T  c #CCC400",
"R  c #B4AC00",
"E  c #9C9C00",
"W  c #848400",
"Q  c #706C00",
"!  c #585400",
"~  c #404000",
"^  c #849C7B",
"/  c #738C6B",
"(  c #6B7B63",
")  c #637352",
"_  c #5A6B52",
"`  c #525A4A",
"'  c #4A5242",
"]  c #425239",
"[  c #394A39",
"{  c #313931",
"}  c #313929",
"|  c #293129",
" . c #293121",
".. c #212921",
"X. c #182118",
"o. c #181818",
"O. c #00FC00",
"+. c #00EC00",
"@. c #00E000",
"#. c #00D400",
"$. c #04C800",
"%. c #04BC00",
"&. c #04B000",
"*. c #04A400",
"=. c #049800",
"-. c #048800",
";. c #047C00",
":. c #047000",
">. c #046400",
",. c #045800",
"<. c #044C00",
"1. c #044000",
"2. c #C8BFB2",
"3. c #A89A85",
"4. c #9A8C77",
"5. c #7CFCF8",
"6. c #5CFCFC",
"7. c #40FCFC",
"8. c #20FCFC",
"9. c #00FCFC",
"0. c #00E4E4",
"q. c #00CCCC",
"w. c #00B4B4",
"e. c #009C9C",
"r. c #008484",
"t. c #007070",
"y. c #005858",
"u. c #004040",
"i. c #94846B",
"p. c #8C7B67",
"a. c #847B63",
"s. c #81735D",
"d. c #7B6B5A",
"f. c #007CCC",
"g. c #006CB4",
"h. c #005C9C",
"j. c #736B5A",
"k. c #736B52",
"l. c #9C9CFC",
"z. c #7C80FC",
"x. c #5C60FC",
"c. c #4040FC",
"v. c #2024FC",
"b. c #0004FC",
"n. c #0000FC",
"m. c #0000EC",
"M. c #0000E0",
"N. c #0000D4",
"B. c #0000C8",
"V. c #0000BC",
"C. c #0000B0",
"Z. c #0000A4",
"A. c #000098",
"S. c #000088",
"D. c #00007C",
"F. c #000070",
"G. c #000064",
"H. c #000058",
"J. c #00004C",
"K. c #000040",
"L. c #282828",
"P. c #FCE034",
"I. c #FCD424",
"U. c #FCCC18",
"Y. c #FCC008",
"T. c #FCB400",
"R. c #B420FC",
"E. c #A800FC",
"W. c #9800E4",
"Q. c #8000CC",
"!. c #7400B4",
"~. c #60009C",
"^. c #500084",
"/. c #440070",
"(. c #340058",
"). c #280040",
"_. c #FCD8FC",
"`. c #FCB8FC",
"'. c #FC9CFC",
"]. c #FC7CFC",
"[. c #FC5CFC",
"{. c #FC40FC",
"}. c #FC20FC",
"|. c #FC00FC",
" X c #E000E4",
".X c #C800CC",
"XX c #B400B4",
"oX c #9C009C",
"OX c #840084",
"+X c #6C0070",
"@X c #580058",
"#X c #400040",
"$X c #FCE8DC",
"%X c #FCE0D0",
"&X c #FCD8C4",
"*X c #FCD4BC",
"=X c #FCCCB0",
"-X c #FCC4A4",
";X c #FCBC9C",
":X c #FCB890",
">X c #FCB080",
",X c #FCA470",
"<X c #FC9C60",
"1X c #F0945C",
"2X c #E88C58",
"3X c #DC8854",
"4X c #D08050",
"5X c #C87C4C",
"6X c #BC7848",
"7X c #B47044",
"8X c #A86840",
"9X c #A0643C",
"0X c #9C6038",
"qX c #905C34",
"wX c #885830",
"eX c #80502C",
"rX c #744C28",
"tX c #6C4824",
"yX c #5C4020",
"uX c #543C1C",
"iX c #483818",
"pX c #403018",
"aX c #382C14",
"sX c #28200C",
"dX c #600064",
"fX c #006464",
"gX c #006060",
"hX c #00001C",
"jX c #00002C",
"kX c #302410",
"lX c #480048",
"zX c #500050",
"xX c #000034",
"cX c gray11",
"vX c #4C4C4C",
"bX c gray36",
"nX c gray25",
"mX c gray19",
"MX c #343434",
"NX c #2E2B22",
"BX c #B8E8E8",
"VX c #9CDCDC",
"CX c #74C8C8",
"ZX c #48C0C0",
"AX c #20B4B4",
"SX c #20B0B0",
"DX c #00A4A4",
"FX c #009898",
"GX c #008C8C",
"HX c #008484",
"JX c #007C7C",
"KX c #007878",
"LX c #007474",
"PX c #007070",
"IX c #006C6C",
"UX c #980088",
/* pixels */
"q q q q q q q q q q q q q mXL.L.w q q q q q q q q q q q q q q q q q q q q q q q q q q q q mXL.L.w q q q q q q q q q q q q q q q ",
"4 4 4 4 4 4 4 4 4 4 4 4 5 $ e L.q 5 4 4 4 4 4 4 4 4 4 4 4 4 4 4 4 4 4 4 4 4 4 4 4 4 4 4 4 $ e L.q 5 4 4 4 4 4 4 4 4 4 4 4 4 4 4 ",
"6 5 6 6 7 6 6 5 5 6 6 7 8 0 o.e q 4 5 6 8 8 7 6 6 6 6 6 6 6 6 6 6 5 5 6 6 6 6 7 7 5 4 5 6 0 o.e q 4 5 6 5 5 6 6 5 5 5 5 5 6 7 6 ",
"7 6 6 6 6 6 5 6 7 7 6 7 8 nXo.e q 4 7 7 7 7 8 6 6 7 6 6 6 7 6 6 6 5 5 6 6 6 7 6 5 4 5 6 7 0 o.e q 4 6 6 5 6 6 6 5 6 6 6 7 6 7 6 ",
"6 6 7 7 6 6 6 7 7 7 7 7 6 0 o.e q 4 6 6 6 5 6 6 7 7 6 4 5 5 6 6 6 6 6 6 6 6 7 7 6 6 6 6 7 0 o.e q 4 5 6 5 5 5 6 5 6 6 6 7 7 5 6 ",
"6 7 8 6 6 7 6 6 6 7 7 6 6 0 o.e q 4 5 5 6 5 6 6 6 6 6 6 6 5 5 6 6 5 6 6 6 6 7 8 5 5 5 6 6 0 o.e q 4 4 6 5 6 6 6 6 7 6 7 7 7 4 5 ",
"6 6 7 6 6 6 6 7 7 7 7 7 7 nXo.e q 4 5 6 6 6 7 8 7 6 5 5 6 6 7 7 7 7 8 7 6 6 7 8 6 6 6 6 6 0 o.e q 4 6 6 7 7 7 6 6 6 6 6 6 7 7 7 ",
"7 7 7 6 6 7 7 8 0 $ $ $ vXw   e mX7 7 $ $ $ vX0 $ $ bXbXbX$ 0 nXnXvX$ $ vX$ 0 vX$ 0 0 bX$ mX  e mX8 $ $ 8 7 6 6 6 7 8 8 6 8 6 7 ",
"0 0 nX0 0 0 nXq w L.e e e o.  cX..mXL.e e e e e e e e e e e e e e e e e e e e e e e e e e o.  cX..mXL.L.w MXnX0 0 0 nXnX0 nX0 nX",
"o.o.o.o.o.                                                                                                        o.o.o.o.o.o.o.",
"e w w w w w e o.  1.1.1.1.1.1.1.1.1.1.1.1.1.1.1.1.1.1.1.1.1.1.1.1.1.1.1.1.1.1.1.1.1.1.1.1.1.1.1.1.1.1.1.1.1.1.  w mXw w w ..cXcX",
"MX5 4 4 4 4 7 nX  1.1.1.1.1.<.,.;.;.>.<.>.;.;.<.1.1.>.-.-.;.<.1.<.<.,.<.1.<.;.;.;.;.,.1.<.,.,.<.1.1.1.<.:.>.1.  3 1 3 4 4 $ e ..",
"q 4 6 6 6 6 $ q   1.<.,.<.<.>.;.-.-.:.<.,.-.-.;.<.,.-.=.=.-.,.<.-.-.=.-.<.<.;.-.-.;.,.<.,.,.,.,.<.1.<.=.*.=.1.  2 2 3 4 6 0 o.e ",
"q 4 7 7 6 7 vXmX  1.,.,.<.<.:.-.-.-.:.<.,.;.-.;.<.<.-.=.=.-.<.<.-.=.*.=.:.<.,.-.-.;.,.<.,.,.,.,.,.1.<.*.&.*.<.  2 2 4 5 7 nXo.e ",
"q 4 6 6 6 7 vXq   1.,.,.1.1.>.;.;.;.>.1.<.:.;.:.1.<.;.-.-.:.1.<.;.=.-.-.;.1.1.:.;.:.<.1.<.<.<.<.<.1.,.*.&.*.<.  2 3 5 6 7 0 o.e ",
"q 4 6 7 7 7 $ MX  1.<.<.1.1.1.X.X.X.X.o.X.X.X.X.X.1.1.X.X.X.o.X.X.X.X.X.X.o.o.X.X.X.X.o.o.X.X.X.X.1.,.*.&.=.1.  2 4 7 7 7 0 o.e ",
"q 4 6 7 6 7 $ MX  1.1.1.<.<.1.o.z z   l k k l   o.<.<.o.z k k l z     z z           z l k k z   o.1.<.=.=.;.1.  2 2 5 6 7 0 o.e ",
"q 4 6 6 5 6 bXq   1.1.<.>.;.:.X.l   z k j j j l X.-.-.X.z l h h k z       z       z     z z     o.1.1.<.<.<.1.  3 3 7 7 7 0 o.e ",
"q 4 5 6 6 7 $ w   1.1.,.;.-.;.X.z   z k j j j l X.-.=.X.z z j h k     k l l z   z k l z       z o.<.<.1.1.1.1.  4 5 6 7 6 0 o.e ",
"mXbX0 0 0 nXw cX  1.1.>.-.-.;.X.      l k j j l X.-.=.X.z z l j l z l j k k z   z k k k z   z k X.<.,.<.1.1.1.  $ bX0 0 0 q   e ",
"L.e o.o.o.        1.1.<.;.-.;.X.    z   z k k z X.=.=.sXk z   l     k j k k z   z k j k z   z l X.<.,.<.1.1.1.  o.o.o.o.o.    e ",
"q mXw w w w e o.  1.<.1.<.;.:.X.z z l z         X.;.:.X.z           z k l z     z z k k z   z k o.<.1.1.1.1.1.  MXq mXw w w mXq ",
"4 4 4 4 4 5 8 nX  1.:.<.1.<.1.o.z k j k z     z o.1.1.o.  z       z         z       z z       z o.1.1.1.1.1.1.  2 1 3 4 4 4 4 4 ",
"7 7 7 6 6 7 vXmX  1.;.;.<.1.1.o.l j j j k z   z o.1.,.X.l l z   z k l z   z z z z     z z z     o.1.1.<.,.<.1.  3 3 3 5 5 6 6 7 ",
"7 7 7 7 7 6 vXmX  1.;.;.<.<.>.X.z k j k k z z l o.,.;.X.l k z   z k k k o.X.X.o.X.X.X.o.X.X.X.X.X.1.<.,.,.,.1.  4 2 4 6 6 5 7 6 ",
"6 6 6 6 6 5 $ MX  1.;.;.<.<.:.X.  l k k l z   z o.<.;.X.l k z   z k j l X.-.:.1.<.>.<.1.<.>.,.<.1.1.,.,.,.,.1.  3 2 6 6 6 7 7 6 ",
"5 5 6 6 5 6 $ mX  1.;.;.<.<.:.X.    z         z X.,.:.X.z z     z z k l X.-.:.<.,.>.<.1.<.>.>.<.1.1.,.,.,.<.1.  4 4 5 5 6 7 7 5 ",
"6 5 7 6 5 6 $ mX  1.;.;.<.<.>.X.z       z z     o.X.X.o.    z       z z o.X.X.o.X.X.X.o.X.X.X.X.X.1.<.<.1.1.1.  4 3 6 6 6 6 6 5 ",
"6 5 7 7 7 7 vXmX  1.<.<.1.1.1.o.    z z z z       l       z l l z     z z z     z   z z       z o.1.1.1.1.1.1.  4 3 6 7 6 5 6 5 ",
"7 7 8 8 7 8 vXw   1.1.1.<.,.<.o.  z j j j j z   k j l   z l k k z   l j j k z   z l j j l   z k X.<.1.1.1.<.1.  5 4 7 6 6 6 6 6 ",
"0 0 nXnXnXnXw cX  1.1.<.=.*.=.X.z   j h h z   z j j l   z k k k z z l h h j l   l h h h j z l j sX>.,.1.1.<.1.  $ bX0 0 0 0 0 0 ",
"o.o.o.o.o.        1.1.<.*.&.=.X.z   k h k     k j j l   z l l l z   l h h h k z k h g h k   l j sX>.,.1.1.<.1.  o.o.o.o.o.o.o.o.",
"e w w w w w e o.  1.1.<.=.&.=.X.    z k       z z z       z   z     z k k k z   l j h h l   z l X.>.,.1.1.<.1.  MXq mXw w ..cXcX",
"MX5 4 4 4 5 8 nX  1.1.1.,.=.=.X.      z z z z z z z     z z             z           z z         X.<.1.1.1.1.1.  2 1 4 4 5 $ e ..",
"q 4 6 6 6 7 vXmX  1.1.<.<.<.,.X.z z     j h h h j z   l k k k z   z l l k z   z z z         z   o.1.1.<.<.<.1.  4 4 5 5 6 0 o.e ",
"q 4 6 6 6 7 vXmX  1.<.;.;.<.1.o.l z   z j h h h j z   l j j j l z l j j k z   z k k l z   z l z o.1.,.;.;.;.1.  4 2 4 5 6 0 o.e ",
"q 4 6 5 6 8 0 mX  1.;.-.;.,.1.X.X.X.X.o.sXsXsXsXX.X.X.sXk j j l   l j j sXX.o.o.k j l   z k j k o.,.;.-.-.;.1.  4 3 6 5 5 0 o.e ",
"q 4 6 5 6 7 0 mX  1.;.-.;.,.<.-.=.=.-.<.<.,.<.1.<.:.:.X.l k k z   l j k X.>.1.o.k k z   z j j k X.,.;.-.-.;.1.  4 3 6 5 6 0 o.e ",
"q 4 6 6 6 7 0 q   1.;.;.;.,.<.-.=.=.-.<.<.,.,.1.<.:.:.X.z z       z k l X.:.1.o.l k z   z k j k o.,.;.-.-.;.1.  2 3 6 6 7 0 o.e ",
"q 4 6 6 6 7 $ q   1.,.,.,.,.1.X.X.X.X.o.o.X.X.o.X.X.X.o.      z z       X.<.1.o.l z z     z z z o.1.,.;.;.>.1.  4 4 6 7 7 0 o.e ",
"q 4 6 6 7 8 bXq   1.1.<.<.<.1.o.z   l z   z z       z     z k k k z     o.1.1.o.z   z z       z o.<.<.<.<.1.1.  5 5 6 7 6 0 o.e ",
"mXbX0 0 nXnXmXe   1.1.,.;.:.,.X.z z j j k       z l l z   l j j j z   z o.1.1.o.z l j j l   z k X.-.:.<.1.1.1.  $ bX0 0 0 q   e ",
"L.e o.o.o.        1.<.:.-.-.:.X.z z j h h l   z k k k z   l j j j l   z X.<.1.o.l h h h j z l j sX-.=.;.<.<.1.  o.o.o.o.o.    e ",
"q mXw w w w e o.  1.<.;.-.-.;.X.  z j h h k   z k k k z   z k j j l   z X.:.:.X.k h g h k   l j sX=.=.;.<.<.1.  MXq mXw w w mXq ",
"4 4 4 4 4 4 7 nX  1.<.:.-.-.;.X.  z j j j z     l l z       z k k z     X.;.;.X.l j h h l   z l X.-.=.;.<.<.1.  1 1 4 4 4 4 4 4 ",
"6 5 4 4 5 6 bXq   1.1.>.;.;.:.X.    z z z     z       z z   z   z     z X.;.;.X.    z z         X.;.;.<.1.1.1.  3 3 6 6 6 5 5 5 ",
"7 6 5 6 7 8 0 mX  1.1.1.<.<.1.o.z z         l       z l k k z     z k k X.:.:.X.z z         z   o.1.<.<.<.1.1.  2 2 6 7 7 6 7 7 ",
"6 6 6 7 6 bX0 w   1.<.<.<.1.1.o.k k k z   l j l   z l l k k k z   z j k o.1.1.o.l k l z   z z z o.1.<.>.;.>.1.  2 2 5 7 7 6 6 7 ",
"5 6 6 6 6 8 vXw   1.;.;.;.<.1.X.X.sXo.o.X.X.X.X.X.o.o.o.X.X.X.o.X.X.X.X.X.1.1.X.X.X.X.o.o.X.X.X.X.1.,.;.-.;.1.  2 3 6 7 6 6 6 6 ",
"5 6 4 5 7 7 $ q   1.;.-.;.<.<.:.;.:.1.1.:.>.:.>.>.1.1.<.;.=.:.1.<.:.;.;.:.<.<.:.;.;.>.1.1.:.;.:.,.1.,.;.-.;.1.  2 3 6 6 6 6 6 6 ",
"6 5 5 8 7 6 bXq   1.;.;.>.1.<.;.-.;.<.<.;.:.;.:.,.1.,.=.=.*.-.<.,.-.-.-.;.<.<.;.-.-.;.<.<.;.-.;.,.<.,.;.;.,.1.  3 3 6 6 6 7 7 6 ",
"6 6 7 8 7 6 $ q   1.:.,.<.1.<.;.-.;.<.1.>.:.;.>.<.<.;.*.*.*.-.<.>.-.-.-.;.<.1.<.;.;.>.<.,.;.-.;.,.1.<.<.<.1.1.  4 4 6 6 6 7 6 6 ",
"0 0 nXnXnXnXMXL.  1.<.1.1.1.1.<.;.;.<.1.1.<.<.1.1.<.-.=.=.=.;.<.,.;.;.>.<.1.1.1.<.<.1.1.<.;.;.;.<.1.1.1.1.<.1.  bXbX0 0 0 0 0 0 ",
"o.o.o.o.o.        1.1.1.1.1.1.1.1.1.1.1.1.1.1.1.1.1.1.1.1.1.1.1.1.1.1.1.1.1.1.1.1.1.1.1.1.1.1.1.1.1.1.1.1.1.1.  o.o.o.o.o.o.o.o.",
"e w w w w w w w                                                                                                 q MXmXw w ..cXcX",
"MX5 4 4 4 4 4 3 3 3 2 1 < < < < < < < < < < < < < < < < 1 6 e e q 1 < < < < < < < < < < < < < < < < < < < < < < < 1 4 4 5 $ e ..",
"q 4 6 6 6 5 6 5 5 6 4 3 4 3 3 2 2 2 1 2 3 4 5 4 3 2 3 3 4 8 o.e nX1 2 3 2 1 1 3 3 2 3 1 2 3 3 1 3 3 2 2 3 3 3 2 2 3 5 6 6 0 o.e ",
"q 4 6 7 7 6 8 7 6 6 7 6 6 6 5 5 6 6 6 6 6 7 7 7 7 7 7 7 7 0 o.e q 3 5 5 6 6 6 6 6 5 5 5 6 6 6 5 5 5 6 6 5 6 5 4 5 5 6 6 6 0 o.e ",
"q 4 6 7 7 6 bX7 6 7 8 6 6 5 5 6 7 6 7 6 7 bX$ 8 8 7 8 7 7 0 o.e q 4 6 6 6 6 6 7 6 6 6 6 6 6 5 5 5 6 7 6 6 6 6 5 6 6 6 5 6 0 o.e ",
"q 4 6 7 6 6 6 5 5 7 7 6 6 5 5 6 6 7 7 7 7 8 8 7 8 7 bX8 7 0 o.e q 4 6 6 6 7 7 7 6 7 7 6 6 6 6 6 5 6 6 6 6 6 6 5 6 6 7 7 6 0 o.e ",
"q 4 6 7 6 6 6 6 7 7 6 6 6 5 6 7 7 bX8 8 7 7 8 7 6 6 7 7 7 0 o.e q 4 6 6 7 7 7 7 7 7 7 7 6 6 7 6 6 6 7 7 6 6 5 5 6 6 6 6 7 0 o.e ",
"q 5 7 6 4 6 6 7 7 7 6 7 8 6 8 0 $ bX8 7 6 7 7 7 7 7 7 7 7 0 o.e q 4 6 6 bX8 8 8 7 7 7 7 7 7 7 7 7 7 7 7 6 6 6 6 6 7 8 7 7 0 o.e ",
"mX$ 0 0 0 0 0 0 0 0 0 nXnX0 nXnXnXnXnXnX0 0 0 nX0 0 nXnXnXq   e mXbX0 0 nXnXnXnXnX0 nX0 0 0 nXnXnXnXnX0 0 0 0 0 0 0 nXnXnXq   e ",
"L.e                                                           e L.e                                                           e "
};
