/* XPM */
static char * n_xpm[] = {
"64 64 44 1",
" 	c None",
".	c #008C8C",
"+	c #007C7C",
"@	c #007878",
"#	c #20B0B0",
"$	c #009898",
"%	c #007474",
"&	c #007070",
"*	c #004040",
"=	c #20B4B4",
"-	c #48C0C0",
";	c #74C8C8",
">	c #9CDCDC",
",	c #008484",
"'	c #005858",
")	c #B8E8E8",
"!	c #00A4A4",
"~	c #A8A8A8",
"{	c #D0D0D0",
"]	c #C0C0C0",
"^	c #7C7C7C",
"/	c #646464",
"(	c #707070",
"_	c #8C8C8C",
":	c #989898",
"<	c #B4AC00",
"[	c #E4D800",
"}	c #FCF400",
"|	c #2C2C2C",
"1	c #383838",
"2	c #545454",
"3	c #B4B4B4",
"4	c #585400",
"5	c #848400",
"6	c #404000",
"7	c #006C6C",
"8	c #484848",
"9	c #CCC400",
"0	c #706C00",
"a	c #010101",
"b	c #D8F4F4",
"c	c #9C9C00",
"d	c #202020",
"e	c #098282",
"................................................................",
".+@@@@@@@@@@@@@@@@@@@@@@@@@@@@@@@@@@@@@@@@@@@@@@@@@@@@@@@@@@@@@.",
".#$$.%&#.....%&#$....%&#.....%&#.....%&#.....%&#.....%&#......@.",
".####+*&#####+*&#####+*&#####+*&==--#+*&---##+*&#####+*&#$..$.@.",
".####@+.#####@+.#####@+.#####@+.=-;>#@+.--###@+.#####@+.$...$.@.",
".####,''''''''''''''''''''''''''''''''''''''''''''''''''''.$$.@.",
".#####+@&&&&&&&&&&&&&&&&&&&&&&&&&&&&&&&&&&&&&&&&&&&&&&&&&'.$$.@.",
".$,)#>#.................................................&'$,).@.",
".+&,#)-!!!!!!!!!!!!!!!!!####=====-=-=-=-====###!!!!!$$$.&'+&,.@.",
".@+.#);!!!!!!!!!!!!!!!#####=====-=-=-=-====###!!!!!$$$$.&'@+..@.",
".!!##);!!!!!!!!!!!!!#####====-=-=-=-=-====###!!!!!$!$$$.&'$!!.@.",
".####);!!!!!!!!!!!#####=====-=-=-=-=-====###!#!!!$!$$...&'$!!.@.",
".####);!!!!!!!!######====-=-=-=-=-=-====###!#!!!$!$$....&'$!#.@.",
".####);!!!!!!######=====-=-=-=-=-=-====###!#!!!$!$$$$...&'!!#.@.",
".####);!!!!######======-=-=-=-=-=-====###!#!!!$!$$$$....&'!##.@.",
".$,)#);!!#######======-=-=-=-=-=-====###!#!!!$!$$$$.....&'$,).@.",
".+&,#);#######=====-=-=-=-=-=-=-====#####!!!!!$$$$...,..&'+&,.@.",
".@+.#);#####======-=-=-=-=-=-=-====#=###!!!!!$$$$....,..&'@+..@.",
".!!##);###=======-=-=-=-=-=-=-====#=###!!!!!$!$$.$..,...&'!!#.@.",
".####);#========-=-=-=-=-=-=-====#=###!!!!!$!$$.$...,...&'!##.@.",
".####);========-=-=-=-=-=-=-=-==#=###!!!!!$!$$.$........&'!##.@.",
".####);=====-=-=-=-=-=-=-=-=-==#=###!#!!!$!$$$$....,....&'###.@.",
".####);====-=-=-=-=-=-=-=-=-==#=###!#!!!!!$$$$....,.....&'###.@.",
".$,)#);===-=-=-=-=-=-=-=-=-==#=###!#!!!!!$$$$.$..,....$.&'$,).@.",
".+&,#);==-=-=-=-=-=-=-=-=-==#=###!#!!!!!$$$$.$..,.......&'+&,.@.",
".@+.#);=-=-=-=-=-=-=-=-=-==#=###!#!!!!!$$$$.$..,.,....$.&'@+..@.",
".!!##);-=-=-=-=-=-=-=-=-==#=#####!!!!!$!$$.$..,.,....$..&'!!!.@.",
".####);=-=-=-=-~{{{{{{{]]#=#####!!!!!$!$$.$..,.,......$.&'#!!.@.",
".##==);-=-=-=-#^/((^^_:~]=#####!!!!!$!$$$$....,.,....$..&'!!$.@.",
".#===);=-<[}-#+|/1~(^2{:3#####!!!!!$!$$$$.$..,.,....$.$.&'!$,.@.",
".====);-@45}=!+|///((^^_3####!#!!!$!$$$$.$..,.,.,....$$.&'!.+.@.",
".$,)=);,%65[;.+|////((^^3###!#!!!!!$$$$.$..,.,.,....$.$.&'.@-.@.",
".+&,=)#,.65[-.+|/////((^~##!#!!!!!$$$$.$..,.,.,.,..$.$$.&'+7@.@.",
".@+.-)$,>65[-.+|28599}((~#!#!!!!!$$$$.$....,.,.,....$$$.&'@+..@.",
".!!-;;$,;659-.+|8|0aa9/(~!#!!!!!$!$$.$....,.,.,....$.$$.&'++$.@.",
".-;;>=$,;659-.+|1|0aa9//~#!!!!!$!$$.$.$..,.,.,.,..$.$$$.&'+.$.@.",
".;;>>#$,;659-.+|||4||9//~!!!!!$!$$$$.$..,.,.,.,....$$$$.&',.!.@.",
".;>>)#$,-65<-.+|||4405//~!!!!$!$$$$.$..,.,.,.,....$.$$$.&',.!.@.",
".>)))#$,-65<-.+|||||||//:!!!$!$$$$.$..,.,.,.,....$.$$$$.&'.$#.@.",
".;=)b#$,-65c-.+||||||8//:!!$!$$$$.$....,.,.,.,....$$$$$.&'.+>.@.",
".#+=)#$,.%60=.+|11882///:!!!$$$$.$....,.,.,.,....$.$$$$.&'+&+.@.",
".##;)=$,@@,==.+|1d(2/|_/_!!$!$$.$....,.,.,.,....$.$$$$!.&'@+..@.",
".;;)>=$,,,===.+||1222///_!$!$$.$.$..,.,.,.,......$$$$$$.&',$!.@.",
".b)>>=$,.===#.+|||||||||/$!$$$$.$..,.,.,.,.,....$.$$$$!.&'.$!.@.",
".)>>;=$$====#.++++++++++$!$$$$.$....,.,.,.,....$.$$$$!$.&'$!#.@.",
".>>;;=$====##..........!!$$$$.$....,.,.,.,....$.$$$$$$!.&'$!#.@.",
".>;---#===#######!#!!!!!$$$$.$....,.,.,.,......$.$$$$!$.&'!!#.@.",
".$,)-)===#######!#!!!!!$$$$.$....,.,.,.,.,....$.$$$$$$!.&'$,).@.",
".+&,-)-=#######!#!!!!!$$$$.$....,.,.,.,.,....$.$$$$$$!!.&'+&,.@.",
".@+.-);#######!#!#!!!$!$$.$.$..,.,.,.,.,......$.$$$$!$!.&'@+..@.",
".!!--);######!#!#!!!$!$$.$.$....,.,.,.,......$.$$$$$$!!.&'!!#.@.",
".---=);#####!#!#!!!$!$$$$.$....,.,.,.,.,....$.$$$$$$!$!.&'!!#.@.",
".--==);####!#!#!!!$!$$$$.$....,.,.,.,.,......$.$$$$$$!!.&'!!#.@.",
".====);###!#!#!#!$!$$$$.$....,.,.,.,.,......$.$$$$$$!!!.&'!!#.@.",
".====);##!#!#!#!!!$$$$.$....,.,.,.,.,......$.$$$$$$!$!!.&'!##.@.",
".$,)=);###!#!#!!!$$$$.$....,...,.,.,.,....$.$.$$$$$$!!!.&'$,).@.",
".+&,=);##!#!#!!!$$$$.$........,.,.,.,......$.$$$$$$!$!!!@'+&,.@.",
".@+.#);;;;;;;;;;;;;;;;;;---==#!!!!#=------------========+'@+..@.",
".!!##)))))))))))))))))))>>>>;;---;;>>>>>>>>>>>>>>>>;;;;-.+!!#.@.",
".#############!!!!$$$$$$$$.,,+++++,..$$$$$$!!################.@.",
".####$,)#####$,)!$$$$$&=$.,,+@&$++,.$$&=$$$!#$,)#####$,)#####.@.",
".####+&,#####+&,$$$$$+*&.,,++&*'+,,.$+*&$$!!#+&,#####+&,#####.@.",
"e####@+.#####@+.$$$$$@+..,,++&&@,,.$$@+.$$!##@+.#####@+.#####.@e",
"................................................................"};
