/* XPM */
static char *m[] = {
/* columns rows colors chars-per-pixel */
"64 64 169 2 ",
"   c black",
".  c #010101",
"X  c #020202",
"o  c gray1",
"O  c #040404",
"+  c gray2",
"@  c #060606",
"#  c #161616",
"$  c gray9",
"%  c #181818",
"&  c #191919",
"*  c gray10",
"=  c #1B1B1B",
"-  c gray11",
";  c #1D1D1D",
":  c #1E1E1E",
">  c gray12",
",  c #202020",
"<  c gray13",
"1  c #222222",
"2  c #232323",
"3  c gray14",
"4  c #252525",
"5  c gray15",
"6  c #272727",
"7  c #282828",
"8  c gray16",
"9  c #2A2A2A",
"0  c gray17",
"q  c #2C2C2C",
"w  c #2D2D2D",
"e  c gray18",
"r  c #2F2F2F",
"t  c gray19",
"y  c #313131",
"u  c #323232",
"i  c gray20",
"p  c #343434",
"a  c #353535",
"s  c gray21",
"d  c #373737",
"f  c gray22",
"g  c #393939",
"h  c #3A3A3A",
"j  c gray23",
"k  c #3C3C3C",
"l  c gray24",
"z  c #3E3E3E",
"x  c #3F3F3F",
"c  c gray25",
"v  c #414141",
"b  c gray26",
"n  c #434343",
"m  c #444444",
"M  c gray27",
"N  c #464646",
"B  c gray28",
"V  c #484848",
"C  c #494949",
"Z  c gray29",
"A  c #4B4B4B",
"S  c #4C4C4C",
"D  c gray30",
"F  c #4E4E4E",
"G  c gray31",
"H  c #505050",
"J  c #515151",
"K  c gray32",
"L  c #535353",
"P  c gray33",
"I  c #555555",
"U  c #565656",
"Y  c gray34",
"T  c #585858",
"R  c gray35",
"E  c #5A5A5A",
"W  c #5B5B5B",
"Q  c gray36",
"!  c #5D5D5D",
"~  c gray37",
"^  c #5F5F5F",
"/  c #606060",
"(  c gray38",
")  c #626262",
"_  c gray39",
"`  c #646464",
"'  c #656565",
"]  c gray40",
"[  c #676767",
"{  c #686868",
"}  c gray42",
"|  c #6C6C6C",
" . c #6D6D6D",
".. c gray43",
"X. c #6F6F6F",
"o. c gray44",
"O. c #717171",
"+. c #727272",
"@. c gray45",
"#. c #747474",
"$. c gray46",
"%. c #767676",
"&. c #777777",
"*. c gray47",
"=. c #797979",
"-. c gray48",
";. c #7B7B7B",
":. c #7C7C7C",
">. c gray49",
",. c #7E7E7E",
"<. c gray50",
"1. c #808080",
"2. c #818181",
"3. c #888888",
"4. c #898989",
"5. c gray54",
"6. c #8B8B8B",
"7. c gray55",
"8. c #8D8D8D",
"9. c #8E8E8E",
"0. c gray56",
"q. c #909090",
"w. c gray57",
"e. c #929292",
"r. c #939393",
"t. c gray58",
"y. c #959595",
"u. c gray59",
"i. c #979797",
"p. c #989898",
"a. c gray60",
"s. c #9A9A9A",
"d. c #9B9B9B",
"f. c gray61",
"g. c #9D9D9D",
"h. c gray62",
"j. c #A2A2A2",
"k. c gray64",
"l. c #A4A4A4",
"z. c #A5A5A5",
"x. c gray65",
"c. c #A7A7A7",
"v. c gray66",
"b. c #A9A9A9",
"n. c #AAAAAA",
"m. c gray67",
"M. c #ACACAC",
"N. c gray68",
"B. c #AEAEAE",
"V. c #AFAFAF",
"C. c gray69",
"Z. c #B1B1B1",
"A. c #B2B2B2",
"S. c gray70",
"D. c #B4B4B4",
"F. c gray71",
"G. c #B6B6B6",
"H. c #B7B7B7",
"J. c gray72",
"K. c gray73",
"L. c gray74",
"P. c gray",
"I. c gray75",
"U. c #C0C0C0",
"Y. c #C1C1C1",
"T. c gray76",
"R. c #C3C3C3",
"E. c gray77",
"W. c #CACACA",
/* pixels */
"f f d f k f f d f f f b k b b k M k b b k b k b b k b b b b k b k b b b b b k b b k b b k b b b b k f f d f f d d d f f f f f f ",
"d E ] ] / / ] { ] / { / { ] / ] Q { ] / ] ] { / / ../ / Y O           ] / ] ] / ] / / { / ] / ] / ] ] ] ] ] ] ] / ] / ] Q Q L f ",
"f / d d f d d d f f f f d f f f k f f b b k b b b k b k &       O     ] b k b M b b b d f d f f f f d u f f f f f f f f f f   d ",
"d E f f d f J.o.d d f f f f Y...f u k d d f P...k u k b >     O     O / d k d d P.o.d d f f d f Y.o.d k f f f f A.] f k d d   d ",
"f Y d d d d ] 5 f f f f f d o.7 f f d f f f o.e f f d f &             ] d f d f ..7 f f f f f d o.7 f f f d f f ] 5 d d d d   f ",
"d L d d f d f d f f f f k d f f d f f f f d d f f k f f >     O O     ] d u f f f k d f d d k d d f d f f d d d f d u f u u   u ",
"d Z                       O             O         O     >             L   O               O                 O               O u ",
"d L d d u f   b.b.b.G.b.z.b.b.b.i.b.s.i.i.s.i.] f f f f &             ] f f f f   ] ] ] Q / / ] Q E Q L / Y Z D D Y u d d u   d ",
"d Y u u u d   G.G.A.M.b.z.b.b.z.b.s.i.s.s.i.i.Q d f f f >     O       Q d f f f   o./ { / E ] Q ] Q Q Q L L Y Y Y L u d u d   d ",
"e L d d u u O A.P.M.k.b.G.z.b.b.z.b.f.i.z.f.i.E k d f d >   O   O     E k d f d   o.o...] / / { E Q Q Q Y Y Q D D L d u u e   u ",
"u Y e e d u   Y.G.G.A.G.M.z.b.b.M.b.k.z.b.i.z.Y d f d f &   @       O Y u f d f   o.#.o.{ Q ..{ ] / Q Q E E Y Y Q L e u 7 d   d ",
"d L u e u e   z.A.A.E.A.A.G.z.b.z.z.b.M.s.b.b.L d f u d >       O     L d u d d   ;.#./ o./ o./ ] Q E Q Q Q Q E L Y u e u e   e ",
"e L e u d e   z.G.Y.A.G.J.A.b.z.M.z.b.b.z.z.i.L u d u u &   O         Y u d u u   o./ #.o.o...o./ Q E / ] Q E / Y Y 7 u u e   u ",
"e D u e 7 u   b.A.A.A.Y.A.G.z.M.z.M.z.G.b.M.z.Y u d u u ,       O     Y u u u d   o.#.;...o.>.] ] ] ../ Q ] Q L D L u e e u   e ",
"u Z e u e e   G.b.b.A.G.G.A.G.A.G.z.G.G.b.z.b.L u d d u &     O       Y u u f u   >.>.;.o.o.o./ ....] ] / Q E Y L L u e u u   u ",
"u Z u i.Y u   b.z.G.b.z.G.G.A.G.z.G.A.b.z.M.b.Y u b.Q u >             Y u b.E u   ;.>.o.o.>.o.o.>...o.o.] Q E Q Q Z u s.L 7   u ",
"e D e L , e   b.z.M.b.z.G.G.Y.G.P.G.b.A.z.b.b.Y e Q , e >             Y e E > u   6.>.>.>...>.;.>.o.o.o.] E Q Q Q Z e Y , 7   u ",
"u M e 7 e 5   b.b.b.b.z.G.A.A.P.P.G.G.b.z.M.z.Y u d u e >             L u u u e   >.8.>.o.o...>.o.o.#.] E E Q Q E D 7 e e 7   e ",
"5 Z e e e e   z.b.z.z.b.G.b.Y.Y.G.P.G.k.J.z.b.L u 7 u e &       O     Y e 7 u u   8.8.#.2.;.>.>.o.....] Q Q / E Q D 7 5 e e   7 ",
"e Z 7 7 7 e   s.z.b.b.b.z.A.G.A.P.G.A.A.b.b.z.D e d e u &             D u d e e   8.6.>.;.8.>...>.#./ Q / Q / ] Q Z e u 7 e   e ",
"e Z u e e 7   s.i.b.z.b.A.G.b.G.G.A.Y.G.z.z.A.D e e u e > O       O   Z u 7 u u   8.8.8.6.6.#.>.>...] / ] ] ] Q E M e e e u   e ",
"7 M 5 e e e   s.b.z.b.b.J.z.A.b.z.G.A.G.G.G.G.Z e 5 e e >         O   D e e e e   6.6.8.8.;.8.>.;.] ] ] { o.] Q Q Z e 7 7 e   7 ",
"e Z u 7 e 7   z.b.s.z.b.z.b.M.z.J.k.b.G.P.A.G.D e e 7 e &             Z e 7 e 7   8.8.6.6.6.8.>.o.o.....2.#./ ] ] Z 7 u 5 7   e ",
"e M 7 7 7 e   s.i.b.b.f.b.z.z.b.z.M.z.A.A.G.P.Z e e e 7 >   O         Z e e 7 e   6.i.8.8.8.6...>.>.>.;.o./ o.o.] M 7 7 7 7   e ",
"7 M 7 7 7 5 O i.b.z.s.b.b.b.z.b.z.b.G.A.G.P.G.M 7 7 e e &             Z e e e 7   s.8.6.8.6.>.>.>.;.8.;.o.o.;.o...Z 7 5 7 7   7 ",
"e Z 7 7 7 7   b.b.s.z.s.s.z.M.z.b.b.b.b.G.J.A.Z u e 5 e >       O     Z 7 e 7 e   i.s.s.8.;.8.8.8.8.>.>.>.>.>.o...Z 5 e 5 7   7 ",
"5 M 7 7 7 5   i.i.s.i.i.b.s.q.M.b.z.z.G.b.b.b.M 5 e e 7 >     O   O   M e 7 e 7   s.i.8.6.6.6.8.6.>.>.;.;.>...>.o.Z 7 7 7 7   7 ",
"7 M 7 5 7 7   s.i.s.i.s.i.s.f.b.z.b.b.z.b.z.b.D e e 7 e >         O   Z e e e 7   b.s.q.8.q.8.8.6.6.8.8.8.;.>.;.o.M 7 5 7 e O 7 ",
"5 b 5 7 e 5   i.i.s.s.i.i.i.z.z.f.z.b.b.i.z.z.M 5 7 5 7 >   O         M 5 7 5 7   s.s.s.6.6.i.6.8.8.8.8.>.8.;.>.o.b 5 e 7 , O 5 ",
"5 M 7 5 7 5 O 6.6.i.s.i.s.s.b.s.b.b.z.f.b.M.z.Z 7 5 7 7 ,       O     Z 7 5 7 7   i.i.s.q.s.8.6.6.6.8.6.6.8.;.;.;.b 7 5 e 7   7 ",
"7 k 7 7 7 7   q.s.6.8.s.i.i.i.z.s.i.s.z.z.b.z.Z 7 7 7 5 &           O Z 5 7 e 5   b.s.i.s.s.6.8.s.8.6.6.8.6.>.;.;.k 7 7 7 7   5 ",
"7 b , >.Z 5   6.6.8.6.s.i.i.s.i.i.s.i.s.b.b.b.Z 7 >.D 7 >       O     M 7 >.Z 7   s.z.i.s.i.i.i.s.3.s.8.8.8.8.>.8.b 5 >.Z ,   7 ",
"7 f , M > ,   6.6.8.i.s.i.s.i.s.i.i.s.i.b.b.M.k 5 Z & 7 > O           b 5 Z > 7   b.b.i.s.i.i.i.s.i.s.6.6.8.6.6.;.k , M > ,   7 ",
"7 f , , , >   8.8.8.6.8.s.i.s.6.i.s.i.z.i.s.b.b 7 e 7 5 &         O   b 7 7 5 5   M.s.i.i.s.i.f.s.i.8.8.6.8.8.6.8.f > 5 > & O , ",
", f , , , ,   8.8.6.8.8.6.8.6.8.s.i.s.i.s.s.z.b 7 , 7 e >             b 7 5 7 7   b.b.b.b.z.i.i.i.i.8.6.3.s.6.8.s.f , > , ,   > ",
", f , , > ,   8.6.6.6.8.8.6.6.6.i.i.i.i.s.k.M.b 5 e , 7 >       O   O b 5 e 5 7   z.b.z.z.f.b.s.i.s.i.s.s.6.6.s.8.d , , , 5   , ",
", f , > , ,   8.;.8.8.6.;.8.8.8.s.s.s.i.s.z.i.k , , , > >             b , , , ,   b.b.M.b.z.b.i.s.s.i.i.i.s.q.8.6.f , , , ,   , ",
", d , > , >   >.8.;.>.>.8.6.8.i.6.6.i.s.i.s.b.f , > , > > O           f > > , >   b.b.z.z.b.s.s.i.s.i.i.s.s.6.s.8.k , , , ,   , ",
", d , 5 > >   ;.>.;...;.6.8.8.6.8.6.s.i.q.s.s.f , > , 5 &           O d , 5 , ,   b.b.b.M.z.z.s.s.z.s.i.z.i.s.i.6.f > , , ,   , ",
"> f > > , ,   >.;.>.>.>.6.8.8.i.i.6.s.i.s.s.i.f , > , > >     O       f , , , ,   b.A.b.z.M.b.z.z.s.i.b.s.s.i.i.s.f , , , ,   , ",
", d , , , ,   o.o...>.8.6.6.8.i.8.6.8.6.i.s.s.d , , 5 > &             f , , 5 >   A.b.z.b.b.z.b.b.i.b.s.i.i.s.i.s.f > > 5 ,   , ",
", f > , > , O / o...2.;.>.6.8.8.6.q.6.i.8.8.i.f , , > , >             k > , & 5   G.b.b.z.b.b.b.z.b.i.b.b.s.s.s.i.f , , & ,   > ",
"> f , > , >   ] ;.>.;.;.8.8.#.8.6.8.6.8.6.6.s.d > , , > >     O   O   d , 5 , ,   G.z.b.b.A.b.b.A.b.b.b.i.k.i.s.s.d , > , >   , ",
", f 5 > , 5   ....>...>.8.;.q.>.8.6.6.6.6.i.s.d , > > 5 &             f , > > ,   A.G.A.G.b.A.G.b.b.b.z.z.M.i.s.s.d > , 5 >   > ",
"> d > 5 > >   ] o.o.>.;...;.>.;.8.>.6.8.8.8.8.f , , > , ,             d > 5 > ,   J.A.Y.G.A.P.b.z.b.b.b.b.i.i.z.b.f > , > > O , ",
"> f > > , ,   ] o.o.>.o.>.>.;.8.>.;.6.6.8.3.6.f , , , , >     O O   O f > > , ,   A.Y.G.Y.P.G.z.G.b.b.z.b.z.b.b.f.d , > , ,   , ",
"> f , , , ,   / / o./ ..o.o.;.o.;.2.6.6.6.8.8.d , , > , &             k > , , ,   G.G.E.W.G.J.G.z.G.b.z.M.b.k.s.i.f , , , ,   5 ",
", u > ] d ,   Q ] ] { ..o.;.o...;.;.8.>.8.6.8.f , o.k , >         O   f > o.k ,   b.A.P.G.Y.P.A.G.A.b.b.b.z.M.z.s.d > ] d ,   > ",
", u > f > >   ] ] / ] / o.] / o.>.;.>.6.>.;.>.f , k > > >             f > b > >   G.Y.b.A.G.A.Y.A.b.z.z.b.b.z.b.s.u , d & ,   , ",
", d , 5 > ,   Q Q Q Q Q ] ..o.o.;.2.;.>.;.o.;.f , 5 > , >             f > , > >   G.z.b.G.A.J.P.G.b.M.A.M.b.b.b.z.u > 5 , , O > ",
"> d , & , ,   E Q Q Q E { o.o.o.>.o...;.#.;.;.f , & , , &         O   d , & , ,   z.b.z.b.G.M.G.G.A.A.M.b.z.b.z.b.d > > , >   , ",
"> d , , , ,   Y L Y Q Q { / ] o.o./ o.] o.>.;.d , 5 , , >             d > 5 , ,   b.b.b.z.G.M.b.G.P.J.z.z.b.b.b.z.d > , , >   , ",
", u , 5 > >   Y D L E ] / ] / ] / ] >.{ ..>.>.u > 5 , > >           O d > , > , O z.z.M.b.z.b.z.A.G.A.z.b.b.k.b.z.d > , , ,   5 ",
", u , , , ,   Z Y E Q Q / ] Q E ] o.../ ..;.o.f > > , , >             u > > , ,   s.z.b.b.b.z.G.b.z.b.b.z.b.b.b.z.d > , , ,   , ",
", u , > , ,   Z L E / E Q Q E / ] / o.o.>.o.o.e , > , , &             u 5 > , ,   b.b.z.b.b.b.b.b.z.b.b.b.G.A.z.b.u , , , ,   > ",
", u , , , ,   D Q Y L / Q Q Q / ] ] o.o./ ] ..d > , , > >             u , , , ,   b.i.f.z.b.b.z.b.b.b.z.G.P.G.b.z.d , , , ,   , ",
"> u , , > >   L Z L Q Y L / E E Q / ] / ] ..>.u > , , , &   O         d , , , >   s.q.b.b.z.b.z.z.M.z.b.A.G.G.b.b.u > , > ,   , ",
"> u d e u u d d d d e f u u d d u d d d u d d u d u d d 7             u d d u d d d d d u d d d d u u d d d u u u d e e u u   , ",
", e & > > > > , & , 5 > , , > > , , > & 5 > , > > > , , ,     O   O   d , > > , > > > > > , , , , , , , & > , , > , & > & >   > ",
"> u > & & & / d & > & , > , ] f > , > , > > ] f , , , , ,             f > , , > ] f , , , , > , ] f > & > > & & / d > & > >   , ",
", e > & > > d > & > > & > & d & > > , , , , d > > > , , ,     O       u , & , , f > > > > > > & d > & > > > & > d > > & & &   , ",
"> u > & & > & > > & & > > & > > > & & > & & > & > > > > >             d > > > & & > & > , # & > & > > & & , > & > & & > & > O , ",
"7 7     O             O                                 O   O         7                                                       5 ",
"e > e 7 7 e e e e u e e u u e u e u u u u u u e u u e e 7 , , , , , , 7 e e u u u u u e u u u e u u e u u e e 7 d e u e u e e e "
};
